<?xml version="1.0" standalone="no"?>
<!DOCTYPE svg PUBLIC "-//W3C//DTD SVG 20010904//EN"
 "http://www.w3.org/TR/2001/REC-SVG-20010904/DTD/svg10.dtd">
<svg version="1.0" xmlns="http://www.w3.org/2000/svg"
 width="162.000000pt" height="162.000000pt" viewBox="0 0 162.000000 162.000000"
 preserveAspectRatio="xMidYMid meet">
<metadata>
Created by potrace 1.14, written by Peter Selinger 2001-2017
</metadata>
<g transform="translate(0.000000,162.000000) scale(0.100000,-0.100000)"
fill="#000000" stroke="none">
<path d="M651 1598 c-74 -117 -111 -251 -126 -453 -8 -115 -14 -168 -25 -227
-6 -28 -10 -66 -10 -84 0 -41 -14 -43 -80 -13 -49 22 -140 112 -164 162 -29
63 -24 189 13 280 15 40 15 40 -24 33 -89 -17 -166 -89 -177 -166 -13 -84 34
-157 147 -232 115 -77 152 -193 160 -506 5 -214 23 -270 104 -326 98 -68 251
-76 486 -25 197 43 417 118 502 172 83 53 113 93 113 152 0 71 -62 142 -169
192 -44 20 -61 34 -62 48 0 11 -2 28 -4 37 -2 9 -6 35 -9 58 -3 23 -8 45 -10
49 -3 4 -7 20 -10 36 -7 39 -68 164 -113 233 -50 75 -184 210 -308 309 -140
113 -182 163 -208 253 -12 40 -12 40 -26 18z m191 -284 c291 -235 432 -438
454 -652 l7 -62 -40 14 c-96 34 -281 77 -513 121 -186 35 -231 49 -226 67 3 7
7 38 10 68 18 174 85 344 177 444 28 31 53 56 56 56 3 0 37 -25 75 -56z m-486
-503 c5 -5 37 -19 70 -31 l61 -22 -3 -56 c-10 -196 -15 -251 -24 -282 -5 -19
-13 -53 -16 -75 -3 -22 -7 -49 -9 -60 -2 -11 -4 -36 -5 -55 0 -26 -3 -31 -10
-20 -12 22 -19 101 -21 253 -1 133 -24 268 -54 326 -15 30 -10 41 11 22z m339
-96 c214 -42 353 -73 480 -108 l120 -32 -2 -55 c-5 -110 -75 -256 -158 -329
-77 -67 -172 -114 -276 -137 -45 -10 -188 -11 -246 -2 -136 21 -175 68 -151
178 32 144 57 345 60 473 0 45 2 48 22 43 11 -4 80 -18 151 -31z m786 -248
c64 -62 69 -125 15 -178 -38 -38 -197 -116 -331 -163 -85 -30 -96 -32 -70 -13
153 112 224 239 244 439 2 14 104 -48 142 -85z"/>
</g>
</svg>
