<svg xmlns="http://www.w3.org/2000/svg" xmlns:xlink="http://www.w3.org/1999/xlink" viewBox="0 0 2385.27 753.21"><defs><style>.cls-1{fill:none;}.cls-2{clip-path:url(#clip-path);}.cls-3{fill:#dcae7e;}.cls-4{fill:#1b2645;}.cls-5{fill:#e8dfd8;}.cls-6{fill:#0096d6;}</style><clipPath id="clip-path" transform="translate(235.81 132.64)"><polygon class="cls-1" points="1179.6 0 747.23 0 0 0 0 370.67 0 524.38 231.75 524.38 388.96 524.38 792.33 524.38 963.69 524.38 1300.01 524.38 1300.01 301.32 1300.01 187.67 1300.01 0 1179.6 0"/></clipPath></defs><title>Asset 3</title><g id="Layer_2" data-name="Layer 2"><g id="Layer_4" data-name="Layer 4"><g class="cls-2"><path class="cls-3" d="M950.89,136.48v215c1.09,0,2.18.06,3.28.06s2.19,0,3.27-.06v-215c-1.08,0-2.18,0-3.27,0S952,136.45,950.89,136.48ZM150.2-103.21A374.12,374.12,0,0,0-78.46,236.65c0,1.72,0,3.43,0,5.16v4.32q0,2.58,0,5.16A374.14,374.14,0,0,0,296,620.57H957.44V-132.64H296A372.27,372.27,0,0,0,150.2-103.21Zm800.69-22.88V614H296A365.42,365.42,0,0,1,158,587.29q-2.64-1.06-5.28-2.18c-.87-.36-1.73-.74-2.6-1.12A366.35,366.35,0,0,1,35.81,506.27,370.3,370.3,0,0,1,.21,465q-2-2.65-3.91-5.36A367.07,367.07,0,0,1-64.93,318.08c-.44-2.17-.84-4.35-1.24-6.53a370.28,370.28,0,0,1-5.74-60.26q0-2.58,0-5.16v-4.32q0-2.59,0-5.16a370.17,370.17,0,0,1,5.74-60.26c.4-2.18.8-4.36,1.24-6.53A367.07,367.07,0,0,1-3.7,28.28c1.28-1.81,2.58-3.59,3.91-5.37a370.2,370.2,0,0,1,35.6-41.24A366.55,366.55,0,0,1,150.15-96.06l2.6-1.12c1.76-.74,3.52-1.46,5.28-2.18A365.61,365.61,0,0,1,296-126.09Zm0,262.57v215c1.09,0,2.18.06,3.28.06s2.19,0,3.27-.06v-215c-1.08,0-2.18,0-3.27,0S952,136.45,950.89,136.48Zm0,0v215c1.09,0,2.18.06,3.28.06s2.19,0,3.27-.06v-215c-1.08,0-2.18,0-3.27,0S952,136.45,950.89,136.48Z" transform="translate(235.81 132.64)"/><path class="cls-4" d="M150.15-96.06,196-72.33Q186.39-69,177-65A340.89,340.89,0,0,0,37.67,42.17L.21,22.91a370.2,370.2,0,0,1,35.6-41.24A366.55,366.55,0,0,1,150.15-96.06Z" transform="translate(235.81 132.64)"/><path class="cls-5" d="M296-126.09H428.38l45,34.72H309.28A343,343,0,0,0,204.65-75.22L158-99.36A365.61,365.61,0,0,1,296-126.09Z" transform="translate(235.81 132.64)"/><polygon class="cls-4" points="674.92 6.55 832.73 6.55 846.66 41.26 719.92 41.26 674.92 6.55"/><polygon class="cls-4" points="839.79 6.55 904.27 6.55 938.98 41.26 853.73 41.26 839.79 6.55"/><path class="cls-4" d="M677.71-126.09H950.89v32.77q-16.78.18-33.31,1.95H712.43Z" transform="translate(235.81 132.64)"/><path class="cls-5" d="M712.43,579.31H917.58q16.51,1.77,33.31,1.94V614H677.71Z" transform="translate(235.81 132.64)"/><polygon class="cls-4" points="853.73 711.95 938.98 711.95 904.27 746.66 839.79 746.66 853.73 711.95"/><polygon class="cls-6" points="719.92 711.95 846.66 711.95 832.73 746.66 674.92 746.66 719.92 711.95"/><path class="cls-4" d="M204.65,563.16a343,343,0,0,0,104.63,16.15h164.1l-45,34.71H296A365.42,365.42,0,0,1,158,587.29Z" transform="translate(235.81 132.64)"/><path class="cls-6" d="M37.67,445.77A341.16,341.16,0,0,0,177,553q9.43,3.93,19,7.28L150.15,584A366.35,366.35,0,0,1,35.81,506.27,370.3,370.3,0,0,1,.21,465Z" transform="translate(235.81 132.64)"/><path class="cls-4" d="M-25.44,303.35A328.64,328.64,0,0,0-4,374.51a332.62,332.62,0,0,0,37.69,65.94L-3.7,459.66A367.07,367.07,0,0,1-64.93,318.08Z" transform="translate(235.81 132.64)"/><path class="cls-6" d="M-3.7,28.28,33.67,47.49A332.62,332.62,0,0,0-4,113.43a328.48,328.48,0,0,0-21.42,71.16l-39.49-14.73A367.07,367.07,0,0,1-3.7,28.28Z" transform="translate(235.81 132.64)"/><path class="cls-5" d="M-66.17,176.39l39.61,14.77a332.05,332.05,0,0,0-4.1,45.49H-71.91A370.17,370.17,0,0,1-66.17,176.39Z" transform="translate(235.81 132.64)"/><path class="cls-6" d="M-71.91,251.29h41.25a331.91,331.91,0,0,0,4.1,45.48l-39.61,14.78A370.28,370.28,0,0,1-71.91,251.29Z" transform="translate(235.81 132.64)"/><path class="cls-3" d="M950.89,106.34l-1.31,0V381.56l1.31,0V351.45c1.09,0,2.18.06,3.28.06s2.19,0,3.27-.06v-215c-1.08,0-2.18,0-3.27,0s-2.19,0-3.28,0ZM204.65-75.22c-2.89.93-5.78,1.89-8.65,2.89h0Q186.39-69,177-65A340.89,340.89,0,0,0,37.67,42.17q-2,2.64-4,5.32A332.62,332.62,0,0,0-4,113.43a328.48,328.48,0,0,0-21.42,71.16c-.4,2.19-.77,4.37-1.12,6.57a332.05,332.05,0,0,0-4.1,45.49q-.07,3.65-.07,7.32t.07,7.32a331.91,331.91,0,0,0,4.1,45.48q.52,3.3,1.12,6.58A328.64,328.64,0,0,0-4,374.51a332.62,332.62,0,0,0,37.69,65.94q2,2.69,4,5.32A341.16,341.16,0,0,0,177,553q9.43,3.93,19,7.28h0c2.87,1,5.76,2,8.65,2.9a343,343,0,0,0,104.63,16.15H958.75V-91.37H309.28A343,343,0,0,0,204.65-75.22Zm744.93-7V570.14H309.28a334.37,334.37,0,0,1-93-13q-4.5-1.29-9-2.72h0q-13.6-4.35-26.85-9.87A332,332,0,0,1,46,441.5c-1.37-1.75-2.7-3.52-4-5.3A323.49,323.49,0,0,1,4.4,370.89a319.6,319.6,0,0,1-21.11-70.8h0q-.59-3.29-1.08-6.59a321.78,321.78,0,0,1-3.69-42.21c-.06-2.44-.08-4.88-.08-7.32s0-4.89.08-7.32a321.78,321.78,0,0,1,3.69-42.22q.49-3.3,1.08-6.58h0A319.6,319.6,0,0,1,4.4,117a323.42,323.42,0,0,1,37.54-65.3c1.32-1.79,2.65-3.55,4-5.31a331.9,331.9,0,0,1,134.53-103q13.24-5.54,26.85-9.87h0q4.47-1.44,9-2.73a334.37,334.37,0,0,1,93-13Zm1.31,188.54-1.31,0V381.56l1.31,0V351.45c1.09,0,2.18.06,3.28.06s2.19,0,3.27-.06v-215c-1.08,0-2.18,0-3.27,0s-2.19,0-3.28,0Zm0,0-1.31,0V381.56l1.31,0V351.45c1.09,0,2.18.06,3.28.06s2.19,0,3.27-.06v-215c-1.08,0-2.18,0-3.27,0s-2.19,0-3.28,0Z" transform="translate(235.81 132.64)"/><path class="cls-5" d="M867,72.42l36.71,36.7a141.38,141.38,0,0,0-38.44,22.16l-49.75-19.54A189.64,189.64,0,0,1,867,72.42Z" transform="translate(235.81 132.64)"/><path class="cls-6" d="M681.1,66l67.4,26.48,151.06,59.34a105.53,105.53,0,0,0-32.42,31.07L647,131.29q2.63-6.9,5.59-13.7a326.19,326.19,0,0,1,27-49.88l3.1,2.4Z" transform="translate(235.81 132.64)"/><path class="cls-5" d="M770.46-24.08l46.32,46.32a259.82,259.82,0,0,0-68.22,63.22l-63.92-25.1a331.88,331.88,0,0,1,85.82-84.44Z" transform="translate(235.81 132.64)"/><path class="cls-6" d="M621.6-82.2h90.74L761-33.51a345.45,345.45,0,0,0-85.9,84.62Z" transform="translate(235.81 132.64)"/><path class="cls-5" d="M410.31,82.54,631.9,134.48a338.25,338.25,0,0,0-16.75,70.28L410.31,188Z" transform="translate(235.81 132.64)"/><path class="cls-6" d="M207.34-66.45h0L403.76,35.22V74.27L172,20v91.28L46,46.43a331.9,331.9,0,0,1,134.53-103Q193.74-62.12,207.34-66.45Z" transform="translate(235.81 132.64)"/><polygon class="cls-5" points="414.35 160.85 449.39 169.07 449.39 304.46 414.35 301.58 414.35 160.85"/><path class="cls-5" d="M949.58,143.09v23.58a74.5,74.5,0,0,0-69.69,70H856A98.4,98.4,0,0,1,949.58,143.09Z" transform="translate(235.81 132.64)"/><path class="cls-5" d="M941.06,350.69q4.22.53,8.52.71v30.16A135.1,135.1,0,0,1,915.73,376Z" transform="translate(235.81 132.64)"/><path class="cls-6" d="M886.46,251.29h63.12V314.7A67.93,67.93,0,0,1,886.46,251.29Z" transform="translate(235.81 132.64)"/><path class="cls-6" d="M625.67,251.29H849.45c.09,2,.23,4.05.43,6.06L701.59,269.52l-74.15,6.08Q626.1,263.54,625.67,251.29Z" transform="translate(235.81 132.64)"/><path class="cls-6" d="M822.51,469.24q6.76,4.06,13.78,7.71a256.78,256.78,0,0,0,113.29,28.66v62.53A328.08,328.08,0,0,1,776,515.71Z" transform="translate(235.81 132.64)"/><path class="cls-6" d="M675.13,436.82A345.45,345.45,0,0,0,761,521.44l-48.69,48.7H621.6Z" transform="translate(235.81 132.64)"/><path class="cls-5" d="M655,439.23,485.27,570.14h-176a334.37,334.37,0,0,1-93-13l187.44-97v77.83Z" transform="translate(235.81 132.64)"/><polygon class="cls-6" points="449.39 448.75 449.39 584.14 414.35 592.36 414.35 451.62 449.39 448.75"/><path class="cls-5" d="M26.05,331.5l145.94-12v49.82l-130,66.86A323.49,323.49,0,0,1,4.4,370.89a319.6,319.6,0,0,1-21.11-70.8h0l42.76-15.95Z" transform="translate(235.81 132.64)"/><path class="cls-6" d="M-17.79,194.43l43.84,16.36v25.86H-21.48A321.78,321.78,0,0,1-17.79,194.43Z" transform="translate(235.81 132.64)"/><rect class="cls-3" y="369.28" width="1194.57" height="14.64"/><path class="cls-3" d="M867.91,350.39c1.44,1.19,2.9,2.36,4.38,3.49a134.93,134.93,0,0,0,36.46,19.84c2.3.83,4.63,1.59,7,2.3a135.1,135.1,0,0,0,33.85,5.54l1.31,0c1.1,0,2.18,0,3.28,0s2.19,0,3.27,0l1.31,0v6.55c-.44,0-.87,0-1.31,0-1.08,0-2.18,0-3.27,0s-2.18,0-3.28,0l-1.31,0a141.16,141.16,0,0,1-39.08-6.87q-3.45-1.12-6.84-2.43a141.23,141.23,0,0,1-38.44-22.16c-.5-.4-1-.81-1.5-1.23Z" transform="translate(235.81 132.64)"/><path class="cls-3" d="M954.17,99.75c1.09,0,2.19,0,3.27,0l1.31,0v6.55l-1.31,0c-1.08,0-2.18,0-3.27,0s-2.18,0-3.28,0l-1.31,0a134.2,134.2,0,0,0-33.85,5.54c-2.35.7-4.68,1.47-7,2.29a135,135,0,0,0-36.46,19.85c-1.48,1.12-2.94,2.29-4.38,3.49l-4.19-5c.49-.42,1-.83,1.5-1.24a141.38,141.38,0,0,1,38.44-22.16q3.39-1.31,6.84-2.43a141.15,141.15,0,0,1,39.08-6.86l1.31,0C952,99.76,953.07,99.75,954.17,99.75Z" transform="translate(235.81 132.64)"/><path class="cls-3" d="M789.27,381.9c1,1.16,1.9,2.32,2.88,3.45a211.57,211.57,0,0,0,157.43,75.18l1.31,0c1.1,0,2.18,0,3.28,0s2.19,0,3.27,0h1.31v6.54c-.43,0-.87,0-1.31,0-1.08,0-2.18,0-3.27,0s-2.19,0-3.28,0l-1.31,0a218.1,218.1,0,0,1-163.86-79.19L784.19,386Z" transform="translate(235.81 132.64)"/><path class="cls-3" d="M954.17,20.81c1.09,0,2.19,0,3.27,0l1.31,0v6.55l-1.31,0c-1.08,0-2.18,0-3.27,0s-2.18,0-3.28,0l-1.31,0a211.56,211.56,0,0,0-157.43,75.17c-1,1.14-1.93,2.29-2.88,3.45l-5.08-4.12,1.53-1.86A218.13,218.13,0,0,1,949.58,20.86l1.31,0C952,20.81,953.07,20.81,954.17,20.81Z" transform="translate(235.81 132.64)"/><path class="cls-3" d="M752.33,396.57c.84,1.15,1.69,2.28,2.56,3.42a252.92,252.92,0,0,0,84.42,71.15,250.32,250.32,0,0,0,110.27,27.92l1.31,0c1.1,0,2.18,0,3.28,0s2.19,0,3.27,0l1.31,0v6.55l-1.31,0c-1.09,0-2.18,0-3.27,0s-2.18,0-3.28,0l-1.31,0A256.78,256.78,0,0,1,836.29,477q-7-3.63-13.78-7.71c-1.93-1.15-3.84-2.34-5.73-3.54a260,260,0,0,1-68.22-63.22c-.51-.67-1-1.35-1.5-2Z" transform="translate(235.81 132.64)"/><path class="cls-3" d="M954.17-17.72l3.27,0,1.31,0v6.55l-1.31,0-3.27,0-3.28,0-1.31,0A250.31,250.31,0,0,0,839.31,16.79a252.92,252.92,0,0,0-84.42,71.15c-.87,1.14-1.72,2.27-2.56,3.42l-5.27-3.88c.49-.68,1-1.35,1.5-2a259.82,259.82,0,0,1,68.22-63.22c1.89-1.21,3.79-2.39,5.72-3.54q6.76-4.08,13.79-7.72A257.05,257.05,0,0,1,949.58-17.68l1.31,0Z" transform="translate(235.81 132.64)"/><path class="cls-3" d="M811.56,371.85c1.29,1.47,2.58,2.92,3.91,4.34A189.67,189.67,0,0,0,867,415.52q3.07,1.59,6.19,3.08a188.68,188.68,0,0,0,76.44,18.24l1.31,0c1.1,0,2.18,0,3.28,0s2.19,0,3.27,0l1.31,0V450l-1.31,0c-1.08,0-2.18,0-3.27,0s-2.18,0-3.28,0l-1.31,0a202.21,202.21,0,0,1-147.14-68.64c-.26-.28-.51-.57-.75-.85Z" transform="translate(235.81 132.64)"/><path class="cls-3" d="M954.17,37.94c1.09,0,2.19,0,3.27,0l1.31,0v13.1l-1.31,0c-1.08,0-2.18,0-3.27,0s-2.18,0-3.28,0l-1.31,0a188.65,188.65,0,0,0-76.44,18.24c-2.09,1-4.14,2-6.19,3.09a189.64,189.64,0,0,0-51.48,39.32c-1.33,1.42-2.62,2.88-3.91,4.35l-9.87-8.61c.24-.29.49-.57.75-.86A202.24,202.24,0,0,1,949.58,38l1.31,0C952,37.94,953.07,37.94,954.17,37.94Z" transform="translate(235.81 132.64)"/><path class="cls-3" d="M950.89,136.48l-1.31.05q-4.3.18-8.52.72-4,.5-8,1.31A104,104,0,0,0,907,147.67h0q-3.78,1.92-7.39,4.14a105.53,105.53,0,0,0-32.42,31.07c-1.28,1.91-2.51,3.87-3.67,5.87a104,104,0,0,0-12.72,35.34q-.53,3.21-.87,6.5-.3,3-.43,6.06c-.07,1.52-.1,3-.1,4.6,0,.91,0,1.81,0,2.72s0,1.81,0,2.72c0,1.54,0,3.07.1,4.6.09,2,.23,4.05.43,6.06.23,2.19.52,4.35.87,6.5a104,104,0,0,0,12.72,35.34c1.16,2,2.39,3.95,3.67,5.87a105.65,105.65,0,0,0,32.42,31.07q3.62,2.21,7.39,4.13h0a104.28,104.28,0,0,0,26.14,9.12q3.93.8,8,1.31,4.22.53,8.52.71c.44,0,.87,0,1.31.05,1.09,0,2.18.06,3.28.06s2.19,0,3.27-.06c.44,0,.87,0,1.31-.05v-6.55l-1.31,0c-1.08,0-2.18.06-3.27.06s-2.19,0-3.28-.06l-1.31,0A98.4,98.4,0,0,1,856,251.29c-.08-1.53-.11-3.06-.11-4.6q0-1.32,0-2.64v-.17c0-.88,0-1.75,0-2.63,0-1.55,0-3.08.11-4.6a98.4,98.4,0,0,1,93.57-93.56c.44,0,.87-.05,1.31-.05,1.09,0,2.18-.06,3.28-.06s2.19,0,3.27.06c.44,0,.87,0,1.31.05v-6.56l-1.31-.05c-1.08,0-2.18,0-3.27,0S952,136.45,950.89,136.48Z" transform="translate(235.81 132.64)"/><path class="cls-3" d="M950.89,166.6l-1.31.07a74.5,74.5,0,0,0-69.69,70c-.08,1.41-.12,2.84-.12,4.27,0,.67,0,1.34,0,2l0,1.05,0,1c0,.67,0,1.34,0,2,0,1.44,0,2.87.12,4.28a74.51,74.51,0,0,0,69.69,70l1.31.07c1.09.05,2.18.07,3.28.07s2.19,0,3.27-.07l1.31-.07V314.7l-1.31.08c-1.08.05-2.17.07-3.27.07s-2.2,0-3.28-.07l-1.31-.08a67.93,67.93,0,0,1-63.12-63.41c-.09-1.41-.14-2.84-.14-4.28,0-.61,0-1.21,0-1.82l0-1.22,0-1.22q0-.92,0-1.83c0-1.43,0-2.86.14-4.27a67.94,67.94,0,0,1,63.12-63.42c.44,0,.87-.06,1.31-.07,1.08-.06,2.18-.09,3.28-.09s2.19,0,3.27.09c.44,0,.88,0,1.31.07v-6.56l-1.31-.07c-1.08,0-2.18-.08-3.27-.08S952,166.55,950.89,166.6Z" transform="translate(235.81 132.64)"/><polygon class="cls-3" points="261.87 376.6 268.42 376.6 268.42 457.02 282.12 455.89 295.22 454.82 410.81 445.34 642.58 426.34 850.2 409.31 863.25 408.24 937.4 402.15 1085.7 389.99 1089.08 389.71 1089.62 396.23 1086.56 396.48 937.94 408.68 864.03 414.74 850.97 415.81 646.12 432.61 643.11 432.86 639.57 433.15 462.49 447.67 449.39 448.75 414.35 451.62 411.35 451.87 407.8 452.15 261.87 464.13 261.87 376.6"/><polygon class="cls-3" points="261.87 289.07 407.8 301.05 414.35 301.58 449.39 304.46 462.49 305.53 639.57 320.06 646.12 320.59 850.97 337.4 864.03 338.47 1086.56 356.73 1089.62 356.98 1089.08 363.5 1085.7 363.22 863.25 344.98 850.2 343.9 642.58 326.87 410.81 307.87 295.22 298.39 282.12 297.31 268.42 296.19 268.42 376.6 261.87 376.6 261.87 289.07"/><polygon class="cls-3" points="1103.64 430.8 1105.14 437.18 1102.96 437.69 953.08 472.82 882.85 489.28 869.97 492.3 706.38 530.64 693.28 533.71 646.12 544.77 643.59 545.36 639.57 546.3 407.8 600.62 407.8 448.6 414.35 448.6 414.35 592.36 449.39 584.14 462.49 581.08 639.57 539.57 642.1 538.98 646.12 538.03 867.71 486.1 880.55 483.09 951.59 466.44 1099.29 431.82 1103.64 430.8"/><polygon class="cls-3" points="407.8 152.59 639.57 206.91 646.12 208.44 693.28 219.5 706.38 222.56 869.98 260.91 882.85 263.92 1102.96 315.52 1105.14 316.03 1103.64 322.41 1099.29 321.38 951.59 286.77 880.55 270.12 867.71 267.11 646.12 215.18 642.1 214.23 639.57 213.64 462.49 172.13 449.39 169.07 414.35 160.85 414.35 304.6 407.8 304.6 407.8 152.59"/><polygon class="cls-3" points="639.57 429.6 646.12 429.6 646.12 660.94 693.28 642.41 706.38 637.27 904.19 559.57 909.41 557.52 909.41 557.52 916.66 554.68 916.91 554.58 984.31 528.1 1135.38 468.76 1141.72 466.27 1144.11 472.37 1142.77 472.9 1142.77 472.9 1108.1 486.51 1101.04 489.28 1051.29 508.83 1038.25 513.95 1027.96 517.99 1021.53 520.51 990.7 532.62 986.71 534.2 984.38 535.11 920.46 560.22 913.56 562.93 907.93 565.14 890.83 571.86 890.82 571.86 639.57 670.55 639.57 429.6"/><polygon class="cls-3" points="639.57 82.66 890.82 181.35 890.83 181.35 907.93 188.07 913.56 190.28 920.46 192.99 984.38 218.1 990.7 220.58 1021.53 232.69 1027.96 235.22 1038.25 239.26 1051.29 244.38 1101.04 263.92 1108.1 266.69 1142.77 280.31 1142.77 280.31 1144.11 280.84 1141.72 286.93 1135.38 284.44 984.31 225.1 916.91 198.63 916.66 198.53 909.41 195.69 909.41 195.68 904.19 193.63 706.38 115.94 693.28 110.79 646.12 92.27 646.12 323.61 639.57 323.61 639.57 82.66"/><polygon class="cls-3" points="1055.5 595.43 1060.13 600.07 948.25 711.95 913.53 746.66 906.98 753.21 897.72 753.21 948.15 702.78 996.85 654.08 1006.27 644.65 1052.59 598.34 1055.5 595.43"/><polygon class="cls-3" points="918.56 550.46 916.91 554.58 916.8 554.87 913.56 562.93 910.94 569.45 857.41 702.78 853.73 711.95 839.79 746.66 837.16 753.21 830.1 753.21 832.73 746.66 846.66 711.95 850.35 702.78 903.53 570.33 731.81 702.78 719.92 711.95 674.92 746.66 666.42 753.21 655.7 753.21 664.2 746.66 709.2 711.95 721.09 702.78 890.82 571.86 890.83 571.86 905.06 560.88 909.41 557.52 909.41 557.52 915.46 552.86 918.56 550.46"/><polygon class="cls-3" points="731.81 50.43 903.53 182.88 850.35 50.43 846.66 41.26 832.73 6.55 830.1 0 837.16 0 839.79 6.55 853.73 41.26 857.41 50.43 910.94 183.75 913.56 190.28 916.8 198.34 916.91 198.63 918.56 202.74 915.46 200.35 909.41 195.69 909.41 195.68 905.06 192.32 890.83 181.35 890.82 181.35 721.09 50.43 709.2 41.26 664.2 6.55 655.7 0 666.42 0 674.92 6.55 719.92 41.26 731.81 50.43"/><polygon class="cls-3" points="897.72 0 906.98 0 1060.13 153.15 1055.5 157.78 1052.59 154.87 1006.27 108.55 996.85 99.13 948.15 50.43 897.72 0"/><polygon class="cls-3" points="1172.38 478.55 1177.01 483.19 1103.25 556.94 1098.61 552.3 1102.77 548.15 1139.47 511.45 1144.57 506.36 1168.91 482.01 1172.38 478.55"/><polygon class="cls-3" points="1103.25 196.27 1108.95 201.97 1146.32 239.33 1177.01 270.02 1172.38 274.65 1168.92 271.19 1144.57 246.85 1139.48 241.76 1102.77 205.06 1098.61 200.9 1103.25 196.27"/><polygon class="cls-3" points="263.99 408.99 266.29 415.12 261.87 416.77 219.1 432.72 219.1 432.73 210.37 435.98 170.88 450.71 168.3 451.68 166.02 445.54 169.65 444.18 209.25 429.41 218.02 426.14 261.87 409.78 263.99 408.99"/><polygon class="cls-3" points="168.3 301.53 170.88 302.5 210.37 317.23 219.1 320.48 219.1 320.49 261.87 336.44 266.29 338.09 263.99 344.22 261.87 343.43 218.02 327.07 209.25 323.8 169.65 309.02 166.02 307.67 168.3 301.53"/><polygon class="cls-3" points="409.58 501.07 412.58 506.89 407.8 509.35 281.77 574.14 273.48 578.4 236.03 597.66 232.63 599.4 229.64 593.57 232.12 592.3 269.49 573.09 277.75 568.84 407.8 501.98 409.58 501.07"/><polygon class="cls-3" points="232.63 153.81 236.03 155.55 273.48 174.8 281.77 179.07 407.8 243.86 412.58 246.32 409.58 252.14 407.8 251.23 277.75 184.37 269.49 180.12 232.12 160.91 229.64 159.63 232.63 153.81"/><polygon class="cls-3" points="641.34 584.43 644.35 590.25 639.57 592.72 452.14 689.75 440.47 695.79 393.85 719.93 387.61 723.16 384.59 717.34 385.97 716.63 431.81 692.9 431.81 692.9 443.15 687.02 443.16 687.02 639.57 585.35 641.34 584.43"/><polygon class="cls-3" points="387.61 30.05 393.85 33.28 440.47 57.41 452.14 63.46 639.57 160.49 644.35 162.96 641.34 168.78 639.57 167.86 443.16 66.18 443.15 66.18 431.81 60.31 431.81 60.31 385.97 36.58 384.59 35.87 387.61 30.05"/><rect class="cls-3" x="282.12" y="379.65" width="13.1" height="79"/><rect class="cls-3" x="282.12" y="294.56" width="13.1" height="79"/><rect class="cls-3" x="449.39" y="444.92" width="13.1" height="141.05"/><rect class="cls-3" x="449.39" y="167.23" width="13.1" height="141.05"/><rect class="cls-3" x="693.28" y="528.81" width="13.1" height="114.55"/><rect class="cls-3" x="693.28" y="109.84" width="13.1" height="114.55"/><path class="cls-4" d="M954.57-93.34v13.1l-3.68,0h-1.31A328.19,328.19,0,0,0,776-27.77q-2.81,1.82-5.57,3.69a331.88,331.88,0,0,0-85.82,84.44c-1.24,1.76-2.46,3.55-3.66,5.34l-.14.2c-.4.6-.8,1.2-1.19,1.81a326.19,326.19,0,0,0-27,49.88q-3,6.8-5.59,13.7c-.8,2.05-1.56,4.12-2.3,6.19a324.81,324.81,0,0,0-16.52,68.36q-.44,3.24-.78,6.5-1.34,12.06-1.77,24.31c-.09,2.43-.16,4.87-.19,7.32s.1,4.88.19,7.32q.45,12.24,1.77,24.31c.23,2.18.5,4.34.78,6.51a324.78,324.78,0,0,0,16.52,68.34c.74,2.07,1.5,4.13,2.3,6.19,1.74,4.61,3.62,9.17,5.59,13.71a327.13,327.13,0,0,0,27,49.88l1.19,1.81.14.2q1.8,2.68,3.66,5.34A331.88,331.88,0,0,0,770.46,512q2.76,1.88,5.58,3.69a328.08,328.08,0,0,0,173.54,52.43h1.31c1.23,0,2.46,0,3.68,0v13.1c-1.23,0-2.45,0-3.68,0q-16.78-.16-33.31-1.94a341.05,341.05,0,0,1-151-54.14c-1.86-1.22-3.7-2.46-5.54-3.73a345.45,345.45,0,0,1-85.9-84.62q-1.53-2.15-3-4.31t-2.86-4.27c-.3-.43-.59-.87-.87-1.31a341.24,341.24,0,0,1-27.76-51.35c-2.3-5.27-4.44-10.57-6.46-15.92-.77-2.06-1.53-4.13-2.26-6.2a338.34,338.34,0,0,1-16.75-70.29c-.28-2.16-.54-4.33-.76-6.5q-1.39-12.6-1.83-25.38-.13-3.6-.18-7.23v-.18q0-3.63.18-7.23.45-12.78,1.83-25.38c.22-2.18.48-4.35.76-6.51a338.25,338.25,0,0,1,16.75-70.28c.73-2.08,1.49-4.14,2.27-6.21q3-8,6.45-15.91A340.86,340.86,0,0,1,668.38,61c.28-.44.57-.88.87-1.31q1.41-2.14,2.86-4.26c1-1.45,2-2.88,3-4.32A345.45,345.45,0,0,1,761-33.51c1.84-1.27,3.68-2.51,5.54-3.72a340.36,340.36,0,0,1,55.82-29.69,339.89,339.89,0,0,1,95.19-24.45q16.51-1.77,33.31-1.95Z" transform="translate(235.81 132.64)"/><rect class="cls-1" y="3.27" width="1189.98" height="746.66"/><path class="cls-3" d="M962.75,351.45v-215c-1.09,0-2.19,0-3.28,0s-2.19,0-3.27,0v215c1.08,0,2.18.06,3.27.06S961.66,351.49,962.75,351.45Zm800.69,239.69A374.09,374.09,0,0,0,1992.1,251.29q0-2.58,0-5.16v-4.32c0-1.73,0-3.44,0-5.16a374.14,374.14,0,0,0-374.42-369.29H956.2V620.57h661.48A372.09,372.09,0,0,0,1763.44,591.14ZM962.75,614V-126.09h654.93a365.61,365.61,0,0,1,137.93,26.73c1.76.72,3.52,1.44,5.27,2.18l2.61,1.12a366.66,366.66,0,0,1,114.34,77.73,370.2,370.2,0,0,1,35.6,41.24c1.33,1.78,2.63,3.56,3.91,5.37a367.07,367.07,0,0,1,61.23,141.58c.44,2.17.84,4.35,1.24,6.53a370.17,370.17,0,0,1,5.74,60.26q0,2.57,0,5.16v4.32q0,2.58,0,5.16a370.28,370.28,0,0,1-5.74,60.26c-.4,2.18-.8,4.36-1.24,6.53a367.07,367.07,0,0,1-61.23,141.58q-1.92,2.7-3.91,5.36a370.3,370.3,0,0,1-35.6,41.25A366.46,366.46,0,0,1,1763.49,584c-.87.38-1.73.76-2.61,1.12q-2.62,1.11-5.27,2.18A365.42,365.42,0,0,1,1617.68,614Zm0-262.57v-215c-1.09,0-2.19,0-3.28,0s-2.19,0-3.27,0v215c1.08,0,2.18.06,3.27.06S961.66,351.49,962.75,351.45Zm0,0v-215c-1.09,0-2.19,0-3.28,0s-2.19,0-3.27,0v215c1.08,0,2.18.06,3.27.06S961.66,351.49,962.75,351.45Z" transform="translate(235.81 132.64)"/><path class="cls-4" d="M1763.49,584l-45.85-23.73q9.61-3.35,19-7.28A341.16,341.16,0,0,0,1876,445.77L1913.43,465a370.3,370.3,0,0,1-35.6,41.25A366.46,366.46,0,0,1,1763.49,584Z" transform="translate(235.81 132.64)"/><path class="cls-5" d="M1617.68,614H1485.26l-45-34.71h164.11A343,343,0,0,0,1709,563.16l46.62,24.13A365.42,365.42,0,0,1,1617.68,614Z" transform="translate(235.81 132.64)"/><polygon class="cls-4" points="1710.35 746.66 1552.54 746.66 1538.6 711.95 1665.35 711.95 1710.35 746.66"/><polygon class="cls-4" points="1545.47 746.66 1481 746.66 1446.29 711.95 1531.54 711.95 1545.47 746.66"/><path class="cls-4" d="M1235.92,614H962.75V581.25q16.79-.16,33.31-1.94h205.15Z" transform="translate(235.81 132.64)"/><path class="cls-5" d="M1201.21-91.37H996.06q-16.51-1.77-33.31-1.95v-32.77h273.17Z" transform="translate(235.81 132.64)"/><polygon class="cls-4" points="1531.54 41.26 1446.29 41.26 1481 6.55 1545.47 6.55 1531.54 41.26"/><polygon class="cls-6" points="1665.35 41.26 1538.6 41.26 1552.54 6.55 1710.35 6.55 1665.35 41.26"/><path class="cls-4" d="M1709-75.22a343,343,0,0,0-104.63-16.15H1440.25l45-34.72h132.42a365.61,365.61,0,0,1,137.93,26.73Z" transform="translate(235.81 132.64)"/><path class="cls-6" d="M1876,42.17A340.89,340.89,0,0,0,1736.68-65q-9.43-3.93-19-7.29l45.85-23.73a366.66,366.66,0,0,1,114.34,77.73,370.2,370.2,0,0,1,35.6,41.24Z" transform="translate(235.81 132.64)"/><path class="cls-4" d="M1939.08,184.59A331.72,331.72,0,0,0,1880,47.49l37.38-19.21a367.07,367.07,0,0,1,61.23,141.58Z" transform="translate(235.81 132.64)"/><path class="cls-6" d="M1917.34,459.66,1880,440.45a331.72,331.72,0,0,0,59.12-137.1l39.49,14.73a367.07,367.07,0,0,1-61.23,141.58Z" transform="translate(235.81 132.64)"/><path class="cls-5" d="M1979.81,311.55l-39.61-14.78a330.34,330.34,0,0,0,4.09-45.48h41.26A370.28,370.28,0,0,1,1979.81,311.55Z" transform="translate(235.81 132.64)"/><path class="cls-6" d="M1985.55,236.65h-41.26a330.48,330.48,0,0,0-4.09-45.49l39.61-14.77A370.17,370.17,0,0,1,1985.55,236.65Z" transform="translate(235.81 132.64)"/><path class="cls-3" d="M962.75,381.6l1.31,0V106.38l-1.31,0v30.14c-1.09,0-2.19,0-3.28,0s-2.19,0-3.27,0v215c1.08,0,2.18.06,3.27.06s2.19,0,3.28-.06ZM1709,563.16c2.89-.93,5.78-1.9,8.65-2.9h0q9.61-3.35,19-7.28A341.16,341.16,0,0,0,1876,445.77q2-2.64,4-5.32a331.72,331.72,0,0,0,59.12-137.1q.6-3.28,1.12-6.58a330.34,330.34,0,0,0,4.09-45.48c.06-2.44.08-4.88.08-7.32s0-4.89-.08-7.32a330.48,330.48,0,0,0-4.09-45.49c-.35-2.2-.72-4.38-1.12-6.57A331.72,331.72,0,0,0,1880,47.49q-2-2.68-4-5.32A340.89,340.89,0,0,0,1736.68-65q-9.43-3.93-19-7.29h0c-2.87-1-5.76-2-8.65-2.89a343,343,0,0,0-104.63-16.15H954.89V579.31h649.47A343,343,0,0,0,1709,563.16Zm-744.93,7V-82.2h640.3a334.24,334.24,0,0,1,93,13q4.51,1.29,9,2.73h0q13.59,4.34,26.85,9.87a331.9,331.9,0,0,1,134.53,103c1.37,1.76,2.7,3.52,4,5.31a322.9,322.9,0,0,1,37.53,65.3,319.1,319.1,0,0,1,21.12,70.8h0q.59,3.28,1.08,6.58a321.78,321.78,0,0,1,3.69,42.22c.06,2.43.08,4.87.08,7.32s0,4.88-.08,7.32a321.78,321.78,0,0,1-3.69,42.21q-.5,3.3-1.08,6.59h0a319.1,319.1,0,0,1-21.12,70.8,323,323,0,0,1-37.53,65.31c-1.32,1.78-2.65,3.55-4,5.3a332,332,0,0,1-134.53,103q-13.25,5.54-26.85,9.87h0q-4.47,1.43-9,2.72a334.25,334.25,0,0,1-93,13ZM962.75,381.6l1.31,0V106.38l-1.31,0v30.14c-1.09,0-2.19,0-3.28,0s-2.19,0-3.27,0v215c1.08,0,2.18.06,3.27.06s2.19,0,3.28-.06Zm0,0,1.31,0V106.38l-1.31,0v30.14c-1.09,0-2.19,0-3.28,0s-2.19,0-3.27,0v215c1.08,0,2.18.06,3.27.06s2.19,0,3.28-.06Z" transform="translate(235.81 132.64)"/><path class="cls-5" d="M1046.69,415.52,1010,378.81a141.38,141.38,0,0,0,38.44-22.16l49.75,19.54A189.67,189.67,0,0,1,1046.69,415.52Z" transform="translate(235.81 132.64)"/><path class="cls-6" d="M1232.54,421.94l-67.4-26.47-151.06-59.34a105.76,105.76,0,0,0,32.42-31.07l220.1,51.59q-2.62,6.9-5.59,13.7a327.13,327.13,0,0,1-27,49.88l-3.1-2.4Z" transform="translate(235.81 132.64)"/><path class="cls-5" d="M1143.18,512l-46.32-46.32a260.14,260.14,0,0,0,68.22-63.22l63.92,25.1A331.88,331.88,0,0,1,1143.18,512Z" transform="translate(235.81 132.64)"/><path class="cls-6" d="M1292,570.14H1201.3l-48.69-48.7a345.45,345.45,0,0,0,85.9-84.62Z" transform="translate(235.81 132.64)"/><path class="cls-5" d="M1503.33,405.4l-221.59-51.94a338.34,338.34,0,0,0,16.75-70.29L1503.33,300Z" transform="translate(235.81 132.64)"/><path class="cls-6" d="M1706.3,554.39h0L1509.88,452.71v-39L1741.65,468V376.71l126,64.79a332,332,0,0,1-134.53,103Q1719.9,550.06,1706.3,554.39Z" transform="translate(235.81 132.64)"/><polygon class="cls-5" points="1970.91 592.36 1935.88 584.14 1935.88 448.75 1970.91 451.62 1970.91 592.36"/><path class="cls-5" d="M964.06,344.85V321.27a74.5,74.5,0,0,0,69.68-70h23.89A98.4,98.4,0,0,1,964.06,344.85Z" transform="translate(235.81 132.64)"/><path class="cls-5" d="M972.58,137.25q-4.22-.54-8.52-.72V106.38a134.2,134.2,0,0,1,33.85,5.54Z" transform="translate(235.81 132.64)"/><path class="cls-6" d="M1027.18,236.65H964.06V173.24A67.93,67.93,0,0,1,1027.18,236.65Z" transform="translate(235.81 132.64)"/><path class="cls-6" d="M1288,236.65H1064.19c-.09-2-.23-4.06-.44-6.06l148.3-12.17,74.15-6.09Q1287.52,224.4,1288,236.65Z" transform="translate(235.81 132.64)"/><path class="cls-6" d="M1091.13,18.7q-6.77-4.08-13.78-7.72A257.05,257.05,0,0,0,964.06-17.68V-80.2A328.08,328.08,0,0,1,1137.6-27.77Z" transform="translate(235.81 132.64)"/><path class="cls-6" d="M1238.51,51.12a345.26,345.26,0,0,0-85.9-84.63L1201.3-82.2H1292Z" transform="translate(235.81 132.64)"/><path class="cls-5" d="M1258.63,48.71,1428.37-82.2h176a334.24,334.24,0,0,1,93,13l-187.43,97V-50Z" transform="translate(235.81 132.64)"/><polygon class="cls-6" points="1935.88 304.46 1935.88 169.07 1970.91 160.85 1970.91 301.59 1935.88 304.46"/><path class="cls-5" d="M1887.59,156.44l-145.94,12V118.59l130-66.85a322.9,322.9,0,0,1,37.53,65.3,319.1,319.1,0,0,1,21.12,70.8h0l-42.76,16Z" transform="translate(235.81 132.64)"/><path class="cls-6" d="M1931.43,293.5l-43.84-16.36V251.29h47.53A321.78,321.78,0,0,1,1931.43,293.5Z" transform="translate(235.81 132.64)"/><rect class="cls-3" x="1190.7" y="369.28" width="1194.57" height="14.64"/><path class="cls-3" d="M1045.73,137.55c-1.44-1.2-2.9-2.37-4.38-3.49a135,135,0,0,0-36.46-19.85c-2.3-.82-4.63-1.59-7-2.29a134.2,134.2,0,0,0-33.85-5.54l-1.31,0c-1.1,0-2.19,0-3.28,0s-2.19,0-3.27,0l-1.31,0V99.83l1.31,0c1.08,0,2.18,0,3.27,0s2.18,0,3.28,0l1.31,0a141.15,141.15,0,0,1,39.08,6.86c2.3.76,4.58,1.56,6.84,2.43a141.26,141.26,0,0,1,38.44,22.17q.75.6,1.5,1.23Z" transform="translate(235.81 132.64)"/><path class="cls-3" d="M959.47,388.18c-1.09,0-2.19,0-3.27,0-.44,0-.87,0-1.31,0v-6.55l1.31,0c1.08,0,2.18,0,3.27,0l3.28,0,1.31,0A135.1,135.1,0,0,0,997.91,376c2.35-.71,4.68-1.47,7-2.3a134.93,134.93,0,0,0,36.46-19.84c1.48-1.13,2.94-2.3,4.38-3.49l4.19,5-1.5,1.23A141.38,141.38,0,0,1,1010,378.81q-3.39,1.31-6.84,2.43a141.16,141.16,0,0,1-39.08,6.87l-1.31,0C961.65,388.17,960.56,388.18,959.47,388.18Z" transform="translate(235.81 132.64)"/><path class="cls-3" d="M1124.36,106c-.94-1.16-1.89-2.31-2.87-3.45A211.56,211.56,0,0,0,964.06,27.41l-1.31,0c-1.1,0-2.19,0-3.28,0s-2.19,0-3.27,0l-1.31,0V20.86l1.31,0c1.08,0,2.18,0,3.27,0s2.19,0,3.28,0l1.31,0a218.11,218.11,0,0,1,163.86,79.2c.52.61,1,1.23,1.53,1.85Z" transform="translate(235.81 132.64)"/><path class="cls-3" d="M959.47,467.13c-1.09,0-2.19,0-3.27,0-.44,0-.88,0-1.31,0v-6.54h1.31c1.08,0,2.18,0,3.27,0l3.28,0,1.31,0a211.57,211.57,0,0,0,157.43-75.18c1-1.13,1.93-2.29,2.87-3.45l5.09,4.13-1.53,1.85a218.1,218.1,0,0,1-163.86,79.19l-1.31,0C961.66,467.12,960.56,467.13,959.47,467.13Z" transform="translate(235.81 132.64)"/><path class="cls-3" d="M1161.3,91.36c-.83-1.15-1.69-2.28-2.55-3.41a253,253,0,0,0-84.42-71.16A250.31,250.31,0,0,0,964.06-11.12l-1.31,0-3.28,0-3.27,0-1.31,0v-6.55l1.31,0,3.27,0,3.28,0,1.31,0A257.05,257.05,0,0,1,1077.35,11q7,3.64,13.78,7.72,2.89,1.73,5.73,3.54a260,260,0,0,1,68.22,63.22c.51.67,1,1.34,1.5,2Z" transform="translate(235.81 132.64)"/><path class="cls-3" d="M959.47,505.65c-1.09,0-2.18,0-3.27,0l-1.31,0v-6.55l1.31,0c1.08,0,2.18,0,3.27,0s2.18,0,3.28,0l1.31,0A249.91,249.91,0,0,0,1158.75,400c.86-1.13,1.72-2.27,2.55-3.42l5.28,3.88c-.49.68-1,1.36-1.5,2a260.14,260.14,0,0,1-68.22,63.22q-2.83,1.8-5.72,3.54-6.77,4.06-13.79,7.71a256.78,256.78,0,0,1-113.29,28.66l-1.31,0C961.65,505.65,960.56,505.65,959.47,505.65Z" transform="translate(235.81 132.64)"/><path class="cls-3" d="M1102.08,116.09c-1.29-1.47-2.58-2.93-3.91-4.35a189.64,189.64,0,0,0-51.48-39.32q-3.07-1.61-6.19-3.09a188.72,188.72,0,0,0-76.44-18.24l-1.31,0c-1.1,0-2.19,0-3.28,0s-2.19,0-3.27,0l-1.31,0V38l1.31,0c1.08,0,2.18,0,3.27,0s2.18,0,3.28,0l1.31,0a202.24,202.24,0,0,1,147.14,68.63l.75.86Z" transform="translate(235.81 132.64)"/><path class="cls-3" d="M959.47,450c-1.09,0-2.19,0-3.27,0l-1.31,0v-13.1l1.31,0c1.08,0,2.18,0,3.27,0l3.28,0,1.31,0a188.65,188.65,0,0,0,76.44-18.24c2.09-1,4.14-2,6.19-3.08a189.67,189.67,0,0,0,51.48-39.33c1.33-1.42,2.62-2.87,3.91-4.34l9.87,8.61c-.25.28-.49.57-.75.85A202.21,202.21,0,0,1,964.06,450l-1.31,0Z" transform="translate(235.81 132.64)"/><path class="cls-3" d="M962.75,351.45c.43,0,.87,0,1.31-.05q4.31-.18,8.52-.71,4-.51,7.95-1.31a104.35,104.35,0,0,0,26.15-9.12h0q3.78-1.92,7.39-4.13a105.76,105.76,0,0,0,32.42-31.07c1.28-1.92,2.51-3.87,3.66-5.87a103.79,103.79,0,0,0,12.73-35.34c.35-2.15.64-4.31.86-6.5.21-2,.35-4,.44-6.06.07-1.53.1-3.06.1-4.6,0-.91,0-1.82,0-2.72s0-1.81,0-2.72c0-1.55,0-3.08-.1-4.6-.09-2-.23-4.06-.44-6.06q-.33-3.28-.86-6.5a103.79,103.79,0,0,0-12.73-35.34c-1.15-2-2.38-4-3.66-5.87a105.64,105.64,0,0,0-32.42-31.07q-3.62-2.22-7.39-4.14h0a103.86,103.86,0,0,0-26.14-9.11q-3.93-.81-8-1.31-4.22-.54-8.52-.72l-1.31-.05c-1.09,0-2.19,0-3.28,0s-2.19,0-3.27,0l-1.31.05v6.56c.44,0,.87-.05,1.31-.05,1.08,0,2.18-.06,3.27-.06s2.19,0,3.28.06c.43,0,.87,0,1.31.05a98.4,98.4,0,0,1,93.57,93.56c.08,1.52.11,3,.11,4.6,0,.88,0,1.75,0,2.63v.17q0,1.32,0,2.64c0,1.54,0,3.07-.11,4.6a98.4,98.4,0,0,1-93.57,93.56l-1.31,0c-1.09,0-2.19.06-3.28.06s-2.19,0-3.27-.06l-1.31,0v6.55c.44,0,.87,0,1.31.05,1.08,0,2.18.06,3.27.06S961.66,351.49,962.75,351.45Z" transform="translate(235.81 132.64)"/><path class="cls-3" d="M962.75,321.33l1.31-.06a74.5,74.5,0,0,0,69.68-70c.09-1.41.13-2.84.13-4.28,0-.66,0-1.33,0-2l0-1.05,0-1q0-1,0-2c0-1.43,0-2.86-.13-4.27a74.49,74.49,0,0,0-69.68-70c-.44,0-.88-.06-1.31-.07-1.09-.05-2.19-.08-3.28-.08s-2.19,0-3.27.08c-.44,0-.87,0-1.31.07v6.56l1.31-.08c1.08,0,2.17-.08,3.27-.08s2.2,0,3.28.08l1.31.08a67.93,67.93,0,0,1,63.12,63.41c.09,1.41.14,2.84.14,4.27q0,.92,0,1.83l0,1.22,0,1.22c0,.61,0,1.21,0,1.82,0,1.44,0,2.87-.14,4.28a67.93,67.93,0,0,1-63.12,63.41c-.44,0-.88.06-1.31.08-1.08.05-2.18.08-3.28.08s-2.19,0-3.27-.08c-.44,0-.88,0-1.31-.08v6.57c.44,0,.87.05,1.31.06,1.08.05,2.18.08,3.27.08S961.66,321.38,962.75,321.33Z" transform="translate(235.81 132.64)"/><polygon class="cls-3" points="2123.4 376.6 2116.85 376.6 2116.85 296.19 2103.15 297.31 2090.05 298.39 1974.46 307.87 1742.69 326.87 1535.07 343.9 1522.01 344.97 1447.87 351.05 1299.57 363.22 1296.18 363.5 1295.64 356.98 1298.7 356.73 1447.33 344.53 1521.23 338.47 1534.3 337.4 1739.15 320.6 1742.15 320.35 1745.7 320.06 1922.78 305.53 1935.88 304.46 1970.91 301.59 1973.92 301.34 1977.46 301.05 2123.4 289.07 2123.4 376.6"/><polygon class="cls-3" points="2123.4 464.13 1977.46 452.16 1970.91 451.62 1935.88 448.75 1922.78 447.67 1745.7 433.15 1739.15 432.62 1534.3 415.81 1521.23 414.74 1298.7 396.48 1295.64 396.23 1296.18 389.71 1299.57 389.99 1522.01 408.23 1535.07 409.31 1742.69 426.34 1974.46 445.34 2090.05 454.82 2103.15 455.89 2116.85 457.02 2116.85 376.6 2123.4 376.6 2123.4 464.13"/><polygon class="cls-3" points="1281.62 322.41 1280.13 316.03 1282.31 315.52 1432.18 280.39 1502.42 263.93 1515.29 260.91 1678.89 222.57 1691.99 219.5 1739.15 208.44 1741.67 207.85 1745.7 206.91 1977.46 152.59 1977.46 304.6 1970.91 304.6 1970.91 160.85 1935.88 169.07 1922.78 172.13 1745.7 213.64 1743.17 214.23 1739.15 215.18 1517.55 267.11 1504.72 270.12 1433.68 286.77 1285.98 321.38 1281.62 322.41"/><polygon class="cls-3" points="1977.46 600.62 1745.7 546.3 1739.15 544.77 1691.99 533.71 1678.89 530.64 1515.29 492.3 1502.42 489.28 1282.31 437.69 1280.13 437.18 1281.62 430.8 1285.98 431.82 1433.68 466.44 1504.72 483.09 1517.55 486.1 1739.15 538.03 1743.17 538.98 1745.7 539.57 1922.78 581.08 1935.88 584.14 1970.91 592.36 1970.91 448.6 1977.46 448.6 1977.46 600.62"/><polygon class="cls-3" points="1745.7 323.61 1739.15 323.61 1739.15 92.27 1691.99 110.79 1678.89 115.94 1481.07 193.64 1475.86 195.68 1475.85 195.69 1468.61 198.53 1468.35 198.63 1400.96 225.1 1249.89 284.44 1243.55 286.93 1241.15 280.84 1242.49 280.31 1242.5 280.31 1277.16 266.69 1284.23 263.92 1333.98 244.38 1347.01 239.26 1357.3 235.22 1363.73 232.7 1394.56 220.59 1398.56 219.01 1400.89 218.1 1464.81 192.99 1471.71 190.28 1477.34 188.07 1494.44 181.35 1494.45 181.35 1745.7 82.66 1745.7 323.61"/><polygon class="cls-3" points="1745.7 670.55 1494.45 571.86 1494.44 571.86 1477.34 565.14 1471.71 562.93 1464.81 560.22 1400.89 535.11 1394.56 532.63 1363.73 520.52 1357.3 517.99 1347.01 513.95 1333.98 508.83 1284.23 489.29 1277.16 486.51 1242.5 472.9 1242.49 472.9 1241.15 472.37 1243.55 466.27 1249.89 468.76 1400.96 528.1 1468.35 554.58 1468.61 554.68 1475.85 557.52 1475.86 557.52 1481.07 559.58 1678.89 637.27 1691.99 642.41 1739.15 660.94 1739.15 429.6 1745.7 429.6 1745.7 670.55"/><polygon class="cls-3" points="1329.77 157.78 1325.14 153.14 1437.02 41.26 1471.74 6.55 1478.29 0 1487.55 0 1437.12 50.43 1388.42 99.13 1379 108.55 1332.68 154.87 1329.77 157.78"/><polygon class="cls-3" points="1466.7 202.74 1468.35 198.63 1468.47 198.34 1471.71 190.28 1474.33 183.76 1527.86 50.43 1531.54 41.26 1545.47 6.55 1548.11 0 1555.17 0 1552.54 6.55 1538.6 41.26 1534.92 50.43 1481.74 182.88 1653.46 50.43 1665.35 41.26 1710.35 6.55 1718.84 0 1729.57 0 1721.07 6.55 1676.07 41.26 1664.18 50.43 1494.45 181.35 1494.44 181.35 1480.21 192.33 1475.86 195.68 1475.85 195.69 1469.81 200.35 1466.7 202.74"/><polygon class="cls-3" points="1653.46 702.78 1481.74 570.33 1534.92 702.78 1538.6 711.95 1552.54 746.66 1555.17 753.21 1548.11 753.21 1545.47 746.66 1531.54 711.95 1527.86 702.78 1474.33 569.46 1471.71 562.93 1468.47 554.87 1468.35 554.58 1466.7 550.46 1469.81 552.86 1475.85 557.52 1475.86 557.52 1480.21 560.88 1494.44 571.86 1494.45 571.86 1664.18 702.78 1676.07 711.95 1721.07 746.66 1729.57 753.21 1718.84 753.21 1710.35 746.66 1665.35 711.95 1653.46 702.78"/><polygon class="cls-3" points="1487.55 753.21 1478.29 753.21 1325.14 600.06 1329.77 595.43 1332.68 598.34 1379 644.65 1388.42 654.08 1437.12 702.78 1487.55 753.21"/><polygon class="cls-3" points="1212.89 274.66 1208.26 270.02 1282.02 196.27 1286.65 200.9 1282.5 205.06 1245.8 241.76 1240.7 246.85 1216.36 271.19 1212.89 274.66"/><polygon class="cls-3" points="1282.02 556.93 1276.32 551.24 1238.95 513.88 1208.26 483.19 1212.89 478.56 1216.35 482.01 1240.7 506.36 1245.79 511.45 1282.5 548.15 1286.65 552.3 1282.02 556.93"/><polygon class="cls-3" points="2121.27 344.22 2118.98 338.09 2123.4 336.44 2166.16 320.49 2166.16 320.48 2174.89 317.23 2214.38 302.5 2216.96 301.53 2219.25 307.67 2215.62 309.02 2176.01 323.8 2167.24 327.07 2123.4 343.43 2121.27 344.22"/><polygon class="cls-3" points="2216.96 451.68 2214.38 450.71 2174.89 435.98 2166.16 432.73 2166.16 432.72 2123.4 416.77 2118.98 415.12 2121.27 408.99 2123.4 409.78 2167.24 426.14 2176.01 429.41 2215.62 444.18 2219.25 445.54 2216.96 451.68"/><polygon class="cls-3" points="1975.69 252.14 1972.69 246.32 1977.46 243.86 2103.5 179.07 2111.78 174.8 2149.24 155.55 2152.63 153.81 2155.63 159.63 2153.15 160.91 2115.78 180.12 2107.51 184.37 1977.46 251.23 1975.69 252.14"/><polygon class="cls-3" points="2152.63 599.4 2149.24 597.66 2111.78 578.4 2103.5 574.14 1977.46 509.35 1972.69 506.89 1975.69 501.07 1977.46 501.98 2107.51 568.84 2115.78 573.09 2153.15 592.3 2155.63 593.57 2152.63 599.4"/><polygon class="cls-3" points="1743.93 168.78 1740.91 162.96 1745.7 160.49 1933.13 63.46 1944.8 57.41 1991.42 33.28 1997.66 30.05 2000.67 35.87 1999.3 36.58 1953.46 60.31 1953.45 60.31 1942.11 66.18 1942.11 66.18 1745.7 167.86 1743.93 168.78"/><polygon class="cls-3" points="1997.66 723.16 1991.42 719.93 1944.8 695.79 1933.13 689.75 1745.7 592.72 1740.91 590.25 1743.93 584.43 1745.7 585.35 1942.11 687.02 1942.11 687.02 1953.45 692.9 1953.46 692.9 1999.3 716.63 2000.67 717.34 1997.66 723.16"/><rect class="cls-3" x="2090.05" y="294.56" width="13.1" height="79"/><rect class="cls-3" x="2090.05" y="379.65" width="13.1" height="79"/><rect class="cls-3" x="1922.78" y="167.23" width="13.1" height="141.05"/><rect class="cls-3" x="1922.78" y="444.92" width="13.1" height="141.05"/><rect class="cls-3" x="1678.89" y="109.84" width="13.1" height="114.55"/><rect class="cls-3" x="1678.89" y="528.81" width="13.1" height="114.55"/><path class="cls-3" d="M959.06,581.27v-13.1c1.23,0,2.46,0,3.69,0h1.31a328.19,328.19,0,0,0,173.55-52.43c1.87-1.22,3.72-2.44,5.57-3.69A331.88,331.88,0,0,0,1229,427.58q1.86-2.65,3.66-5.34l.13-.2c.41-.6.81-1.21,1.2-1.81a327.13,327.13,0,0,0,27-49.88q3-6.8,5.59-13.7c.8-2.06,1.56-4.12,2.3-6.2a324.72,324.72,0,0,0,16.52-68.35c.29-2.16.54-4.33.78-6.5q1.32-12.08,1.77-24.31c.09-2.44.16-4.88.19-7.32s-.1-4.89-.19-7.32q-.45-12.26-1.77-24.32-.36-3.26-.78-6.5a324.87,324.87,0,0,0-16.52-68.35c-.74-2.07-1.5-4.13-2.3-6.19q-2.62-6.9-5.59-13.7a326.19,326.19,0,0,0-27-49.88c-.39-.61-.79-1.21-1.2-1.81l-.13-.2c-1.2-1.79-2.42-3.58-3.66-5.34a331.88,331.88,0,0,0-85.82-84.44c-1.85-1.25-3.71-2.49-5.58-3.69A328.08,328.08,0,0,0,964.06-80.2h-1.31q-1.85,0-3.69,0v-13.1l3.69,0q16.79.18,33.31,1.95a339.89,339.89,0,0,1,95.19,24.45,340.36,340.36,0,0,1,55.82,29.69c1.86,1.21,3.7,2.45,5.54,3.72a345.26,345.26,0,0,1,85.9,84.63c1,1.43,2,2.86,3,4.31s1.93,2.84,2.87,4.26c.3.44.59.87.87,1.31A341.35,341.35,0,0,1,1273,112.36q3.43,7.9,6.46,15.91c.77,2.07,1.53,4.13,2.26,6.21a338.25,338.25,0,0,1,16.75,70.28q.42,3.24.76,6.51,1.39,12.6,1.82,25.38c.1,2.4.15,4.81.19,7.23v.18c0,2.42-.09,4.83-.19,7.23q-.43,12.77-1.82,25.38-.35,3.25-.76,6.5a338.34,338.34,0,0,1-16.75,70.29q-1.1,3.1-2.27,6.2-3,8-6.45,15.92a341.35,341.35,0,0,1-27.76,51.36c-.28.44-.57.88-.87,1.31q-1.41,2.14-2.87,4.26c-1,1.44-2,2.88-3,4.31a345.45,345.45,0,0,1-85.9,84.62c-1.84,1.27-3.68,2.51-5.54,3.72a340.45,340.45,0,0,1-151,54.15q-16.51,1.77-33.31,1.94C961.52,581.27,960.3,581.27,959.06,581.27Z" transform="translate(235.81 132.64)"/><rect class="cls-1" x="1195.28" y="3.27" width="1189.98" height="746.66"/><ellipse class="cls-4" cx="1162.17" cy="376.6" rx="362.62" ry="354.42"/><path class="cls-4" d="M819.06-78.49S612.38,30.43,612.38,244.06c0,225,205.82,321.44,255.16,326.08H382C216.32,570.14,147.21,560,36,427.9c0,0-57.54-63.37-57.54-183.93S35.66,53.89,70.74,18c0,0,89.77-100.16,228-100.16H867.54Z" transform="translate(235.81 132.64)"/></g></g></g></svg>