<svg xmlns="http://www.w3.org/2000/svg" viewBox="0 0 301.89 70.52"><defs><style>.cls-1{fill:#1d1d1b;}</style></defs><g id="Layer_2" data-name="Layer 2"><g id="Layer_3" data-name="Layer 3"><path class="cls-1" d="M54.87,44.71v1.08c9.2,3.73,10.15,8.8,7,11.81-2.43,2.3-10.9,6.22-19.62,8.59a18.85,18.85,0,0,1-9.46,2.42c-6.47-.57-13.18,1.93-17.47-5.1l.37-.43s0-.34.09-1c-.89-2.44-1.16-5.84-1-10.57C15.05,38,11,33.82,11,33.82a23.16,23.16,0,0,0,7.48,3.31c0-.41,0-.82.05-1.22C12.9,34.34,12.27,33,9.24,29.56c-4.82-5.53,0-15.67,0-15.67C-3,16.34-1.88,26.69,5.61,30.61s7.76,14.26,7.69,26.08,9.23,15.11,26,11.12,25.74-8.32,25.6-13.64C64.82,50.88,62.23,47.69,54.87,44.71Z"/><path class="cls-1" d="M30.57,10.8A123.16,123.16,0,0,1,43.93,22.74c4.74,5,9.58,12.37,9.58,21.44.47.17.92.35,1.36.53-.28-17-13.73-27.37-21.25-33.16S26.28.36,26.28.36c-7.08,9.32-5.59,22.75-7,29.28a38.45,38.45,0,0,0-.74,6.27L20,36.3C20.51,28,22.63,17,30.57,10.8Z"/><path class="cls-1" d="M19.94,37.53q0-.6.06-1.23l-1.48-.39c0,.4,0,.81-.05,1.22C18.94,37.27,19.43,37.4,19.94,37.53Z"/><path class="cls-1" d="M28.47,68.16c-.57,0-1.12-.06-1.66-.09a43.71,43.71,0,0,1-7.43-.95,3,3,0,0,1-2.08-2.33,8.34,8.34,0,0,1-1.56-2.7c-.06.65-.09,1-.09,1l-.37.43c4.29,7,11,4.53,17.47,5.1a18.85,18.85,0,0,0,9.46-2.42A47.73,47.73,0,0,1,28.47,68.16Z"/><path class="cls-1" d="M53.49,45.26c.48.18.94.35,1.38.53V44.71c-.44-.18-.89-.36-1.36-.53C53.51,44.54,53.5,44.9,53.49,45.26Z"/><path class="cls-1" d="M17.39,59.41a95.94,95.94,0,0,0,2.49-20.08q0-.87.06-1.8c-.51-.13-1-.26-1.47-.4-.18,4.75-.06,9.78-1,14.38-1.07,5.17-1.53,8.91-1.71,10.58a8.34,8.34,0,0,0,1.56,2.7A11.26,11.26,0,0,1,17.39,59.41Z"/><path class="cls-1" d="M52.45,51.58c-3,10.58-12.56,17-25.64,16.49.54,0,1.09.07,1.66.09a47.73,47.73,0,0,0,13.74-2,22.93,22.93,0,0,0,12.66-20.4c-.44-.18-.9-.35-1.38-.53A27.59,27.59,0,0,1,52.45,51.58Z"/><path class="cls-1" d="M17.3,64.79a3,3,0,0,0,2.08,2.33,43.71,43.71,0,0,0,7.43.95C22.19,67.74,19.17,66.9,17.3,64.79Z"/><path class="cls-1" d="M49,43.89c1.67.43,3.18.89,4.53,1.37,0-.36,0-.72,0-1.08a114.55,114.55,0,0,0-18-4.69C28.16,38.09,23.34,37.14,20,36.3q0,.63-.06,1.23c3.32.88,7.38,1.67,12.26,2.47C37.94,41,43.32,42.46,49,43.89Z"/><path class="cls-1" d="M77.89,0h9.53c6.31,0,10.26,3,10.26,8.74,0,6-4.08,9-10.22,9h-6l.08,10.84a.28.28,0,0,1-.28.29H77.89a.28.28,0,0,1-.28-.29l.12-14.51L77.61.29A.28.28,0,0,1,77.89,0Zm3.55,14.84h6.27c3.71,0,6.18-1.65,6.18-6,0-4-2.31-5.93-6.35-5.93h-6L81.44,14.1Z"/><path class="cls-1" d="M103,28.57a.28.28,0,0,1-.29.29H99.5a.28.28,0,0,1-.29-.29L99.34,18l-.13-10.1a.28.28,0,0,1,.29-.29h3.22a.28.28,0,0,1,.29.29l-.17,3.67a8.11,8.11,0,0,1,7.22-4.17,4.57,4.57,0,0,1,1.36.17c.16,0,.24.12.24.28v2.31c0,.21-.12.29-.33.25a10.46,10.46,0,0,0-1.19-.08c-3.63,0-6.81,2.18-7.18,6.93Z"/><path class="cls-1" d="M126.63,21.73a.27.27,0,0,1,.29-.25h3c.17,0,.33.12.29.29-.66,4.41-3.83,7.59-9.32,7.59-6.59,0-10.14-4.58-10.14-11,0-6.64,3.75-11.18,9.94-11.18s9.81,4.25,9.89,11.3a.28.28,0,0,1-.29.29H114.59c.13,5.23,2.23,8,6.39,8C124.16,26.72,126.05,24.94,126.63,21.73Zm-11.91-5.57h11.83c-.12-3.5-2-6.43-5.77-6.43C117.27,9.73,115.21,12.08,114.72,16.16Z"/><path class="cls-1" d="M162.21,28.57a.28.28,0,0,1-.28.29h-3.26a.28.28,0,0,1-.29-.29l.08-8.08V15.71c0-4.08-1.61-5.73-4.08-5.73-2.27,0-4.12,2.06-5,5.52v5l.08,8.08a.28.28,0,0,1-.28.29h-3.3a.28.28,0,0,1-.29-.29l.08-8.08V15.71c0-4.08-1.57-5.73-4-5.73s-4.45,2.39-5.24,6.39v4.12l.09,8.08a.28.28,0,0,1-.29.29h-3.34a.28.28,0,0,1-.29-.29l.12-8.08-.08-12.57a.28.28,0,0,1,.29-.29H136a.28.28,0,0,1,.29.29l-.12,3.42c1.32-2.31,3.38-4.21,6.55-4.21a5.89,5.89,0,0,1,6.15,4.46c1.48-2.81,3.67-4.46,6.68-4.46,4.16,0,6.63,2.64,6.63,8.46v4.9Z"/><path class="cls-1" d="M168.65,28.57a.28.28,0,0,1-.29.29h-3.3a.28.28,0,0,1-.28-.29l.08-10.68-.08-10a.28.28,0,0,1,.28-.29h3.3a.28.28,0,0,1,.29.29l-.08,10Zm0-27V5a.28.28,0,0,1-.29.29h-3.25a.28.28,0,0,1-.29-.29V1.57a.28.28,0,0,1,.29-.29h3.25A.28.28,0,0,1,168.65,1.57Z"/><path class="cls-1" d="M170.71,18.31c0-6.72,3.67-11.18,10.1-11.18s10.06,4.41,10.06,11.09-3.58,11.14-10.06,11.14S170.71,25,170.71,18.31Zm16.29,0c0-5.36-2.06-8.54-6.19-8.54s-6.22,3.18-6.22,8.54,2.06,8.41,6.22,8.41S187,23.67,187,18.31Z"/><path class="cls-1" d="M191.87,21.77a.26.26,0,0,1,.29-.29h3.09a.26.26,0,0,1,.29.29c.12,3.5,2.14,5.07,5.93,5.07,3.14,0,5.2-1.36,5.2-3.79,0-5.73-14.31-1.16-14.31-9.69,0-4,3.38-6.19,8.41-6.19s8.58,2.11,8.83,6.56a.29.29,0,0,1-.29.29h-2.93a.26.26,0,0,1-.29-.29c-.25-2.8-2.27-4.12-5.36-4.12-2.93,0-4.78,1.11-4.78,3.54,0,5.36,14.35.74,14.35,9.65,0,4.12-3.88,6.51-9,6.51C195.62,29.31,192,26.8,191.87,21.77Z"/><path class="cls-1" d="M82.27,69.52a.34.34,0,0,1-.35.35H78.27a.34.34,0,0,1-.35-.35l.15-16.83L78,35.15a.34.34,0,0,1,.35-.35H84a.38.38,0,0,1,.4.3L95.55,64,106.47,35.1a.38.38,0,0,1,.4-.3h5.31a.34.34,0,0,1,.35.35l-.1,17.54.15,16.83a.34.34,0,0,1-.35.35h-4a.35.35,0,0,1-.36-.35L107.93,54l.15-13L97.25,69.57a.38.38,0,0,1-.4.3H93.7a.38.38,0,0,1-.4-.3L82,40.66,82.22,54Z"/><path class="cls-1" d="M115.19,52.39c0-11.23,6.61-18.24,16.78-18.24s16.79,7,16.79,18.24c0,11-6.72,18.13-16.84,18.13S115.19,63.31,115.19,52.39Zm28.71,0c0-9-4.46-14.58-12-14.58s-11.87,5.51-11.87,14.58S124.56,66.86,132,66.86,143.9,61.4,143.9,52.39Z"/><path class="cls-1" d="M155.82,69.52a.34.34,0,0,1-.35.35h-3.76a.34.34,0,0,1-.35-.35L151.51,52l-.1-16.89a.34.34,0,0,1,.35-.35h4.86a.41.41,0,0,1,.4.25l18.34,28.56-.1-11.73,0-16.73a.34.34,0,0,1,.35-.35h3.76a.34.34,0,0,1,.35.35L179.52,52l.15,17.48a.34.34,0,0,1-.35.35h-5.11a.43.43,0,0,1-.41-.25L155.67,41.41l.1,11.68Z"/><path class="cls-1" d="M199.86,35.1l12.22,34.37c.1.2-.05.4-.3.4h-4.11a.44.44,0,0,1-.4-.3l-3.56-10.32H189.38l-3.45,10.32a.38.38,0,0,1-.4.3h-4c-.25,0-.4-.2-.3-.4L193.54,35.1a.38.38,0,0,1,.4-.3h5.52A.44.44,0,0,1,199.86,35.1Zm-3.36,3-5.86,17.38h11.82Z"/><path class="cls-1" d="M239.88,69.47c.15.2,0,.4-.25.4H235a.48.48,0,0,1-.45-.25L231.12,64l-5.46-8.57h-7.37l.1,14.08a.34.34,0,0,1-.35.35H214a.34.34,0,0,1-.35-.35l.15-17.73-.15-16.64a.34.34,0,0,1,.35-.35h12.38c8,0,12.87,3.46,12.87,10.27,0,5.56-3.3,8.92-8.56,10ZM218.39,38.31l-.1,13.63h8.57c4.61,0,7.76-2,7.76-6.82,0-4.51-2.9-6.81-7.86-6.81Z"/><path class="cls-1" d="M240.74,52.29c0-11.08,6.26-18.14,16.38-18.14,7,0,13,3.21,14.68,12.32a.33.33,0,0,1-.35.4h-4c-.2,0-.3-.09-.35-.3-1.05-6.06-4.91-8.76-10.12-8.76-7.32,0-11.42,5.71-11.42,14.48,0,9.61,4.3,14.57,11.42,14.57,5.81,0,9.62-3.3,10.32-9.46a.37.37,0,0,1,.4-.35h4a.35.35,0,0,1,.35.45c-1.35,8.86-7,13-14.93,13C246.85,70.52,240.74,63.66,240.74,52.29Z"/><path class="cls-1" d="M289.63,35.1l12.23,34.37c.1.2-.05.4-.3.4h-4.11a.44.44,0,0,1-.4-.3l-3.56-10.32H279.16l-3.45,10.32a.4.4,0,0,1-.41.3h-4c-.25,0-.4-.2-.3-.4L283.32,35.1a.38.38,0,0,1,.4-.3h5.51A.44.44,0,0,1,289.63,35.1Zm-3.35,3-5.87,17.38h11.83Z"/></g></g></svg>