<?xml version="1.0" encoding="utf-8"?>
<!-- Generator: Adobe Illustrator 26.0.0, SVG Export Plug-In . SVG Version: 6.00 Build 0)  -->
<svg version="1.1" id="Layer_1" xmlns="http://www.w3.org/2000/svg" xmlns:xlink="http://www.w3.org/1999/xlink" x="0px" y="0px"
	 viewBox="0 0 6 10" style="enable-background:new 0 0 6 10;" xml:space="preserve">
<style type="text/css">
	.st0{fill:#4258FF;}
</style>
<path class="st0" d="M1.7,0.3c-0.4-0.4-1-0.4-1.4,0s-0.4,1,0,1.4L1.7,0.3z M5,5l0.7,0.7c0.4-0.4,0.4-1,0-1.4L5,5z M0.3,8.3
	c-0.4,0.4-0.4,1,0,1.4c0.4,0.4,1,0.4,1.4,0L0.3,8.3z M0.3,1.7l4,4l1.4-1.4l-4-4L0.3,1.7z M4.3,4.3l-4,4l1.4,1.4l4-4L4.3,4.3z"/>
</svg>
