<svg xmlns="http://www.w3.org/2000/svg" viewBox="0 0 126.19 126.19"><defs><style>.cls-1{fill:#fff;}.cls-2{fill:#40d9f4;}</style></defs><g id="Layer_2" data-name="Layer 2"><g id="Layer_3" data-name="Layer 3"><circle class="cls-1" cx="63.09" cy="63.09" r="63.09"/><path class="cls-2" d="M46.57,99.89l-.07,0a8.23,8.23,0,0,0,3.28,1.86,36.38,36.38,0,0,0,18.12.72C60.35,103.48,51.65,103.58,46.57,99.89Z"/><path class="cls-2" d="M89.1,88c-4.43,8.26-12.78,12.75-21.2,14.44a96.15,96.15,0,0,0,10.94-2.23A28.14,28.14,0,0,0,90.52,88.75a35.91,35.91,0,0,0,4.29-14.66c-.52-.22-1-.42-1.59-.63A34.45,34.45,0,0,1,89.1,88Z"/><path class="cls-2" d="M59.61,104.68c-6.1,0-10.8-1.16-14-3.48l-.17-.13a9.94,9.94,0,0,0,3.81,2.16,33.44,33.44,0,0,0,10.58,1.58,42.36,42.36,0,0,0,7.27-.63c-1.67.21-3.38.37-5.08.45C61.2,104.66,60.39,104.68,59.61,104.68Z"/><path class="cls-2" d="M67.9,102.42a36.38,36.38,0,0,1-18.12-.72,8.23,8.23,0,0,1-3.28-1.86,9.63,9.63,0,0,1-3-3.67,6.91,6.91,0,0,0,2,4.9l.17.13c3.19,2.32,7.89,3.48,14,3.48.78,0,1.59,0,2.42-.05,1.7-.08,3.41-.24,5.08-.45a38.7,38.7,0,0,0,11.73-4A96.15,96.15,0,0,1,67.9,102.42Z"/><path class="cls-2" d="M106.51,80.48c-2.09-3.3-6.2-5.91-11.63-8.09l-1.61-.62c-8.9-3.29-20.87-5.61-33.24-8L53.5,62.49c-1.64-.33-3.14-.69-4.53-1.07,0,.55-.08,1.1-.1,1.65,1.34.36,2.77.7,4.32,1l6.53,1.28c12.58,2.43,24.73,4.79,33.5,8.11.54.21,1.07.41,1.59.63,4.85,2,8.49,4.35,10.34,7.25a5.81,5.81,0,0,1,.86,5.41c-2.13,5.61-14,9.68-25.29,12.93l-1.88.51a38.7,38.7,0,0,1-11.73,4,96.09,96.09,0,0,0,14.06-3c12.28-3.52,24-7.64,26.36-13.91A7.44,7.44,0,0,0,106.51,80.48Z"/><path class="cls-2" d="M42.71,59.2c-6-3.07-14.91-10.6-7.4-26.95,0,0-2.68-.78-6.33,1.66a11.81,11.81,0,0,0-5.81,10.34c0,5.4,5.95,8.46,10.07,11.78l1.29.67,2.82,1.41.24.12a34.62,34.62,0,0,0,9.68,4.39c0-.54.07-1.08.11-1.62a15.7,15.7,0,0,1-2-.63A24.76,24.76,0,0,1,42.71,59.2Z"/><path class="cls-2" d="M43.45,96.17a11.82,11.82,0,0,1-1.08-4.71c-.1-2.59-.14-5.1-.17-7.52-.15-9.85-.28-18.64-4.61-25.71l-.24-.12L34.53,56.7,33.24,56a11.47,11.47,0,0,1,3.38,3.82,10.51,10.51,0,0,0,.92,1.71c2.8,6.19,2.91,13.65,3,22.4,0,2.44.07,5,.17,7.56a11.89,11.89,0,0,0,4.7,9.55A6.91,6.91,0,0,1,43.45,96.17Z"/><path class="cls-2" d="M93.73,62.74C91.16,52.82,84.52,43.44,74,34.85c-3.44-2.81-6.18-5.09-8.37-6.93h0l-.11-.09L63.7,26.29a19.26,19.26,0,0,1-6-11.87h0c-.58,2.71.46,5.69,1.79,8.16a29.21,29.21,0,0,0,3.66,5.23l-.08.05.14.12c2.45,2.07,5.64,4.71,9.8,8.11,10.25,8.37,16.7,17.47,19.18,27a34.06,34.06,0,0,1,1.11,8.63l1.61.62A35.79,35.79,0,0,0,93.73,62.74Z"/><path class="cls-2" d="M59.46,22.59c-1.33-2.47-2.37-5.45-1.79-8.16-8.76,11.78-7.61,28-8.56,34.24-.23,1.52-.53,3.19-.77,4.92-.42,2.44-.76,4.9-1,7.37v0h0c0,.54-.08,1.08-.11,1.62-.09,1.68-.12,3.36-.07,5a74.73,74.73,0,0,1-2.4,19.58c-.78,3.43-1.46,6.44-1.35,9a9.63,9.63,0,0,0,3,3.67c-2.36-2.38-1.5-6.17-.12-12.26a75.64,75.64,0,0,0,2.43-20c0-1.49,0-3,.06-4.52,0-.55.06-1.1.1-1.65a88.08,88.08,0,0,1,2.33-14.1c3.86-13.57,11-18.9,11.74-19.45l.08-.05A29.21,29.21,0,0,1,59.46,22.59Z"/></g></g></svg>