<svg xmlns="http://www.w3.org/2000/svg" viewBox="0 0 113.12 113.12"><defs><style>.cls-1{isolation:isolate;}.cls-2{fill:#dcae7e;}.cls-3{mix-blend-mode:multiply;}.cls-4{fill:#0062c1;}</style></defs><title>Asset 7</title><g class="cls-1"><g id="Layer_2" data-name="Layer 2"><g id="Layer_3" data-name="Layer 3"><circle class="cls-2" cx="56.56" cy="56.56" r="56.56"/><g class="cls-3"><path class="cls-4" d="M41.75,89.55l-.07,0a7.34,7.34,0,0,0,2.94,1.67,32.78,32.78,0,0,0,16.25.65C54.1,92.76,46.31,92.85,41.75,89.55Z"/><path class="cls-4" d="M79.87,78.87c-4,7.41-11.45,11.43-19,12.95a88.86,88.86,0,0,0,9.81-2A25.28,25.28,0,0,0,81.15,79.56,32.25,32.25,0,0,0,85,66.42l-1.42-.57A30.74,30.74,0,0,1,79.87,78.87Z"/><path class="cls-4" d="M53.44,93.85c-5.47,0-9.68-1-12.54-3.13l-.15-.11a8.8,8.8,0,0,0,3.41,1.94A30.11,30.11,0,0,0,53.64,94a37.49,37.49,0,0,0,6.52-.57c-1.5.19-3,.33-4.56.4Q54.49,93.85,53.44,93.85Z"/><path class="cls-4" d="M60.87,91.82a32.78,32.78,0,0,1-16.25-.65,7.34,7.34,0,0,1-2.94-1.67A8.72,8.72,0,0,1,39,86.22a6.16,6.16,0,0,0,1.8,4.39l.15.11c2.86,2.08,7.07,3.13,12.54,3.13q1.05,0,2.16-.06c1.53-.07,3.06-.21,4.56-.4a34.65,34.65,0,0,0,10.52-3.57A88.86,88.86,0,0,1,60.87,91.82Z"/><path class="cls-4" d="M95.48,72.14c-1.87-3-5.56-5.29-10.42-7.24l-1.45-.56c-8-3-18.7-5-29.8-7.18L48,56c-1.47-.29-2.82-.61-4.06-1,0,.5-.07,1-.09,1.48,1.2.32,2.48.63,3.87.9l5.86,1.14c11.28,2.19,22.17,4.3,30,7.27l1.42.57c4.35,1.79,7.62,3.9,9.27,6.5A5.23,5.23,0,0,1,95,77.77c-1.91,5-12.54,8.68-22.67,11.59l-1.69.46a34.65,34.65,0,0,1-10.52,3.57,85.31,85.31,0,0,0,12.61-2.64c11-3.16,21.49-6.85,23.62-12.47A6.62,6.62,0,0,0,95.48,72.14Z"/><path class="cls-4" d="M38.28,53.07c-5.41-2.75-13.36-9.5-6.62-24.16,0,0-2.41-.7-5.68,1.49a10.58,10.58,0,0,0-5.21,9.27c0,4.84,5.34,7.58,9,10.56l1.16.6c1.16.59,2.11,1.06,2.52,1.26l.22.11a31.27,31.27,0,0,0,8.68,3.94c0-.49.06-1,.1-1.45-.11,0-.78-.2-1.78-.57A25.08,25.08,0,0,1,38.28,53.07Z"/><path class="cls-4" d="M39,86.22A10.78,10.78,0,0,1,38,82c-.09-2.32-.12-4.57-.15-6.74-.13-8.83-.25-16.71-4.13-23l-.22-.11c-.41-.2-1.36-.67-2.52-1.26l-1.16-.6a10.33,10.33,0,0,1,3,3.43,8.52,8.52,0,0,0,.83,1.53c2.5,5.54,2.6,12.24,2.72,20.08,0,2.18.06,4.44.15,6.77a10.64,10.64,0,0,0,4.22,8.57A6.16,6.16,0,0,1,39,86.22Z"/><path class="cls-4" d="M84,56.24c-2.31-8.89-8.26-17.3-17.69-25-3.09-2.52-5.54-4.56-7.51-6.21h0l-.1-.08L57.1,23.57a17.24,17.24,0,0,1-5.39-10.64h0c-.52,2.43.42,5.11,1.61,7.32a26.35,26.35,0,0,0,3.27,4.69l-.07,0,.13.1c2.19,1.86,5,4.23,8.79,7.27,9.18,7.5,15,15.66,17.19,24.25a30.58,30.58,0,0,1,1,7.73l1.45.56A32.46,32.46,0,0,0,84,56.24Z"/><path class="cls-4" d="M53.31,20.25c-1.19-2.21-2.13-4.89-1.61-7.32C43.85,23.5,44.88,38,44,43.63c-.21,1.36-.48,2.86-.7,4.42-.38,2.17-.67,4.39-.85,6.6v0h0c0,.48-.07,1-.1,1.45-.09,1.51-.11,3-.07,4.49a66.81,66.81,0,0,1-2.15,17.56,32.75,32.75,0,0,0-1.21,8,8.72,8.72,0,0,0,2.73,3.28c-2.11-2.13-1.34-5.52-.11-11a67.75,67.75,0,0,0,2.19-17.92c0-1.34,0-2.69.05-4.05,0-.49,0-1,.09-1.48A79.38,79.38,0,0,1,46,42.42C49.45,30.26,55.82,25.48,56.51,25l.07,0A26.35,26.35,0,0,1,53.31,20.25Z"/></g></g></g></g></svg>