<svg xmlns="http://www.w3.org/2000/svg" viewBox="0 0 186.19 49.48"><defs><style>.cls-1{fill:#00c1f7;}.cls-2{fill:#0068af;}.cls-3{font-size:17.97px;font-family:FormaDJRCyrillicMicro-Regular, Forma DJR Cyrillic Micro;letter-spacing:-0.06em;}</style></defs><g id="Layer_2" data-name="Layer 2"><g id="Layer_3" data-name="Layer 3"><rect class="cls-1" x="123.41" y="12.27" width="4.95" height="4.95"/><path class="cls-2" d="M128.23,38V20.21h-4.69V38Zm31.08.18V33.83a12.59,12.59,0,0,1-1.7-.11,2,2,0,0,1-1.1-.49,1.9,1.9,0,0,1-.48-1.06,10.16,10.16,0,0,1-.11-1.72V24.22h3.39v-4h-3.39V13.28h-4.69V30.49a15.32,15.32,0,0,0,.37,3.67,5.19,5.19,0,0,0,1.25,2.36,5,5,0,0,0,2.29,1.28,13.86,13.86,0,0,0,3.58.39ZM186.19,38V11.9H181.5V38ZM146.7,22a7.05,7.05,0,0,0-5.45-2.12,6.86,6.86,0,0,0-3.08.69,6.6,6.6,0,0,0-2.33,1.9l-.25.32V20.21H131V38h4.66V28.87a5.29,5.29,0,0,1,1.24-3.69,4,4,0,0,1,3-1.27,3.77,3.77,0,0,1,3.07,1.23,5.2,5.2,0,0,1,1,3.41h0v0h0V38h4.74V27.91A8.4,8.4,0,0,0,146.7,22Zm32.35,7.11a9.53,9.53,0,0,0-.67-3.6,9.33,9.33,0,0,0-1.89-2.94,8.69,8.69,0,0,0-2.9-2,9.61,9.61,0,0,0-3.73-.71,9.13,9.13,0,0,0-3.61.73,9.51,9.51,0,0,0-2.94,2,9.4,9.4,0,0,0-2,2.94,9.13,9.13,0,0,0-.73,3.61,9.49,9.49,0,0,0,.7,3.62,8.76,8.76,0,0,0,4.89,4.91,9.78,9.78,0,0,0,3.82.73,10.1,10.1,0,0,0,7.92-3.49l-3.38-2.57a6.2,6.2,0,0,1-4.5,2,5.38,5.38,0,0,1-3.24-.91,4.47,4.47,0,0,1-1.69-2.47l-.05-.17h14Zm-13.94-1.64c0-1.3,1.49-3.58,4.72-3.58s4.72,2.27,4.72,3.58Z"/><text class="cls-3" transform="translate(70.76 34.92)">con</text><path d="M24.74,49.48H24l5-13.89h7a3.42,3.42,0,0,0,3-2.09l5.49-15.07a3.13,3.13,0,0,0-3.14-4.48H31.69L23.59,36.2h0L19,48.81A24.75,24.75,0,0,1,18.06.91l-4.74,13h0L5.45,35.58h5.24l6.7-18.39h3.94l-6.7,18.39h5.24l6.24-17.16A3.12,3.12,0,0,0,23,13.94H18.57L23.63,0l1.11,0a24.74,24.74,0,0,1,0,49.48Zm15-32.3H35.77L30.26,32.31H34.2Z"/></g></g></svg>