<svg xmlns="http://www.w3.org/2000/svg" viewBox="0 0 154.33 80.47"><title>Asset 3</title><g id="Layer_2" data-name="Layer 2"><g id="Layer_3" data-name="Layer 3"><rect x="83.55" y="61.31" width="2.53" height="2.53" style="fill:#fff"/><path d="M86,74.48v-9.1h-2.4v9.1Zm15.9.09V72.34a6.58,6.58,0,0,1-.87,0,1,1,0,0,1-.56-.25,1,1,0,0,1-.25-.55,5.18,5.18,0,0,1-.06-.88V67.43h1.74V65.38h-1.74V61.83h-2.4v8.8A8.25,8.25,0,0,0,98,72.51a2.65,2.65,0,0,0,.64,1.21,2.57,2.57,0,0,0,1.17.65,6.81,6.81,0,0,0,1.83.2Zm13.74-.09V61.13h-2.4V74.48ZM95.46,66.27a3.64,3.64,0,0,0-2.79-1.08,3.55,3.55,0,0,0-1.57.35,3.33,3.33,0,0,0-1.19,1l-.14.17v-1.3H87.41v9.1h2.38V70a1,1,0,0,1,0-.17,2.67,2.67,0,0,1,.63-1.88A2.06,2.06,0,0,1,92,67.27a1.94,1.94,0,0,1,1.57.63A2.67,2.67,0,0,1,94,69.64h0v0h0v4.81h2.42V69.31A4.32,4.32,0,0,0,95.46,66.27ZM112,69.91a4.89,4.89,0,0,0-.34-1.84,4.72,4.72,0,0,0-1-1.5,4.38,4.38,0,0,0-1.48-1,5,5,0,0,0-1.91-.37,4.56,4.56,0,0,0-1.84.38,4.5,4.5,0,0,0-1.51,1,4.89,4.89,0,0,0-1,1.5,4.6,4.6,0,0,0-.37,1.85,5,5,0,0,0,.35,1.85,4.67,4.67,0,0,0,1,1.5,4.54,4.54,0,0,0,1.52,1,5,5,0,0,0,1.95.38,5.18,5.18,0,0,0,4.05-1.79l-1.73-1.32a3.13,3.13,0,0,1-2.3,1,2.74,2.74,0,0,1-1.66-.46,2.32,2.32,0,0,1-.86-1.27l0-.08H112Zm-7.13-.83a2.51,2.51,0,0,1,4.83,0Z" style="fill:#fff"/><path d="M118.38,73.33a.87.87,0,0,0-.19-.28.92.92,0,0,0-.28-.19.8.8,0,0,0-.34-.07.81.81,0,0,0-.35.07.92.92,0,0,0-.28.19,1.07,1.07,0,0,0-.19.28.84.84,0,0,0-.07.35.77.77,0,0,0,.07.34,1,1,0,0,0,.19.29.92.92,0,0,0,.28.19.89.89,0,0,0,.69,0,.92.92,0,0,0,.28-.19.81.81,0,0,0,.19-.29.77.77,0,0,0,.07-.34A.84.84,0,0,0,118.38,73.33Zm-.14.63a.78.78,0,0,1-.16.24.76.76,0,0,1-.23.15.67.67,0,0,1-.28.06.72.72,0,0,1-.29-.06.91.91,0,0,1-.23-.15.78.78,0,0,1-.16-.24.66.66,0,0,1,0-.28.64.64,0,0,1,0-.28.78.78,0,0,1,.16-.24.7.7,0,0,1,.23-.15.72.72,0,0,1,.29-.06.67.67,0,0,1,.28.06.61.61,0,0,1,.23.15.78.78,0,0,1,.16.24.64.64,0,0,1,.06.28A.67.67,0,0,1,118.24,74Zm-.51-.21a.3.3,0,0,0,.18-.08.28.28,0,0,0,.06-.2.34.34,0,0,0-.08-.23.41.41,0,0,0-.27-.07h-.4v1h.19v-.42h.14l.25.42h.2Zm-.1-.15h-.22v-.29h.3l.06,0a.12.12,0,0,1,0,.07.15.15,0,0,1,0,.08l-.06,0Z" style="fill:#fff"/><g id="_Group_" data-name="&lt;Group&gt;"><path id="_Compound_Path_" data-name="&lt;Compound Path&gt;" d="M61.16,80.47h-.38l2.58-7.08H66.9a1.71,1.71,0,0,0,1.51-1.06l2.79-7.66a1.59,1.59,0,0,0-1.6-2.28H64.69L60.57,73.71h0l-2.34,6.42a12.59,12.59,0,0,1-.47-24.37l-2.41,6.63h0l-4,11H54L57.42,64h2L56,73.4h2.67l3.17-8.73a1.59,1.59,0,0,0-1.59-2.28H58l2.57-7.08h.57a12.59,12.59,0,0,1,0,25.17ZM68.77,64h-2L64,71.73h2Z" style="fill:#fff"/></g><path d="M38.94,31.48a2.71,2.71,0,0,1,0,.29c0,.16,0,.32,0,.48,6.53,2.64,7.21,6.24,5,8.38C42.16,42.26,36.15,45,30,46.72a13.2,13.2,0,0,1-6.72,1.72c-4.58-.4-9.35,1.37-12.39-3.62l.26-.3s0-.25.06-.7a21.59,21.59,0,0,1-.74-7.51c.25-9.58-2.63-12.56-2.63-12.56a16.54,16.54,0,0,0,5.31,2.35l0-.87c-4-1.11-4.43-2.05-6.58-4.5-3.42-3.93,0-11.12,0-11.12C-2.13,11.34-1.33,18.69,4,21.47S9.49,31.6,9.44,40,16,50.71,27.9,47.88,46.17,42,46.07,38.2C46,35.86,44.17,33.59,38.94,31.48Z" style="fill:#fff"/><path d="M21.7,7.41a87.17,87.17,0,0,1,9.48,8.47C34.55,19.46,38,24.67,38,31.1l1,.38c-.19-12.1-9.74-19.42-15.08-23.54S18.65,0,18.65,0c-5,6.62-4,16.15-5,20.78a27.1,27.1,0,0,0-.53,4.45l1.06.28C14.56,19.62,16.06,11.83,21.7,7.41Z" style="fill:#fff"/><path d="M14.15,26.39c0-.29,0-.58,0-.88l-1.06-.28,0,.87Z" style="fill:#fff"/><path d="M20.21,48.12c-.41,0-.8,0-1.18-.06a29.63,29.63,0,0,1-5.27-.68,2.11,2.11,0,0,1-1.48-1.65,5.93,5.93,0,0,1-1.11-1.91c0,.45-.06.7-.06.7l-.26.3c3,5,7.81,3.22,12.39,3.62A13.2,13.2,0,0,0,30,46.72,33.53,33.53,0,0,1,20.21,48.12Z" style="fill:#fff"/><path d="M38,31.87l1,.38c0-.16,0-.32,0-.48a2.71,2.71,0,0,0,0-.29l-1-.38C38,31.36,38,31.61,38,31.87Z" style="fill:#fff"/><path d="M12.35,41.91a68.09,68.09,0,0,0,1.76-14.25c0-.41,0-.83,0-1.27l-1-.29c-.13,3.37,0,6.94-.72,10.21-.77,3.67-1.09,6.32-1.22,7.51a5.93,5.93,0,0,0,1.11,1.91A7.9,7.9,0,0,1,12.35,41.91Z" style="fill:#fff"/><path d="M37.23,36.35c-2.15,7.52-8.92,12-18.2,11.71.38,0,.77,0,1.18.06A33.53,33.53,0,0,0,30,46.72a16.26,16.26,0,0,0,9-14.47l-1-.38A19.85,19.85,0,0,1,37.23,36.35Z" style="fill:#fff"/><path d="M12.28,45.73a2.11,2.11,0,0,0,1.48,1.65,29.63,29.63,0,0,0,5.27.68C15.75,47.83,13.61,47.23,12.28,45.73Z" style="fill:#fff"/><path d="M34.75,30.9c1.19.3,2.26.63,3.22,1,0-.26,0-.51,0-.77a81.77,81.77,0,0,0-12.81-3.33c-5.18-1-8.6-1.67-11-2.26,0,.3,0,.59,0,.88,2.36.61,5.24,1.18,8.7,1.75C26.93,28.81,30.75,29.88,34.75,30.9Z" style="fill:#fff"/><path d="M49.37,16.49h4.46c3,0,4.81,1.39,4.81,4.1s-1.91,4.21-4.79,4.21h-2.8l0,5.08A.13.13,0,0,1,51,30H49.37a.13.13,0,0,1-.14-.13l.06-6.8-.06-6.45A.14.14,0,0,1,49.37,16.49Zm1.66,7H54c1.74,0,2.9-.77,2.9-2.82,0-1.89-1.08-2.78-3-2.78H51.07l0,5.26Z" style="fill:#fff"/><path d="M61.13,29.88A.13.13,0,0,1,61,30H59.49a.12.12,0,0,1-.13-.13l0-4.95,0-4.73a.13.13,0,0,1,.13-.14H61a.13.13,0,0,1,.13.14l-.07,1.72a3.78,3.78,0,0,1,3.38-2,2.48,2.48,0,0,1,.63.07c.08,0,.12.06.12.14v1.08a.11.11,0,0,1-.15.12,4.75,4.75,0,0,0-.56,0,3.23,3.23,0,0,0-3.37,3.24Z" style="fill:#fff"/><path d="M72.2,26.67a.12.12,0,0,1,.14-.11h1.43c.08,0,.15.05.13.13a4,4,0,0,1-4.36,3.56c-3.09,0-4.75-2.15-4.75-5.18s1.75-5.24,4.65-5.24,4.6,2,4.64,5.3a.13.13,0,0,1-.14.13H66.56c.06,2.45,1,3.75,3,3.75A2.51,2.51,0,0,0,72.2,26.67Zm-5.58-2.61h5.55c-.06-1.64-1-3-2.71-3S66.85,22.15,66.62,24.06Z" style="fill:#fff"/><path d="M88.88,29.88a.13.13,0,0,1-.14.13H87.22a.13.13,0,0,1-.14-.13l0-3.79V23.85c0-1.91-.75-2.68-1.91-2.68s-1.93,1-2.36,2.58v2.34l0,3.79a.13.13,0,0,1-.14.13H81.21a.13.13,0,0,1-.14-.13l0-3.79V23.85c0-1.91-.73-2.68-1.89-2.68s-2.09,1.12-2.46,3v1.93l0,3.79a.12.12,0,0,1-.13.13H75.1a.13.13,0,0,1-.13-.13L75,26.09l0-5.89a.13.13,0,0,1,.13-.14h1.47a.14.14,0,0,1,.14.14l-.06,1.6a3.47,3.47,0,0,1,3.07-2,2.76,2.76,0,0,1,2.88,2.09,3.43,3.43,0,0,1,3.13-2.09c2,0,3.11,1.24,3.11,4v2.3Z" style="fill:#fff"/><path d="M91.89,29.88a.12.12,0,0,1-.13.13H90.21a.13.13,0,0,1-.13-.13l0-5,0-4.67a.13.13,0,0,1,.13-.14h1.55a.13.13,0,0,1,.13.14l0,4.67Zm0-12.66v1.61a.13.13,0,0,1-.13.13H90.23a.13.13,0,0,1-.13-.13V17.22a.13.13,0,0,1,.13-.13h1.53A.13.13,0,0,1,91.89,17.22Z" style="fill:#fff"/><path d="M92.86,25.07c0-3.15,1.72-5.24,4.73-5.24s4.72,2.07,4.72,5.2-1.68,5.22-4.72,5.22S92.86,28.2,92.86,25.07Zm7.63,0c0-2.51-1-4-2.9-4s-2.91,1.49-2.91,4,1,3.94,2.91,3.94S100.49,27.58,100.49,25.07Z" style="fill:#fff"/><path d="M102.77,26.69c0-.1.06-.13.14-.13h1.45a.12.12,0,0,1,.13.13c.06,1.64,1,2.38,2.78,2.38,1.47,0,2.44-.64,2.44-1.78,0-2.69-6.71-.54-6.71-4.54,0-1.89,1.59-2.9,4-2.9s4,1,4.13,3.07a.14.14,0,0,1-.14.14h-1.37a.12.12,0,0,1-.13-.14c-.12-1.31-1.06-1.93-2.51-1.93s-2.24.52-2.24,1.66c0,2.51,6.72.35,6.72,4.52,0,1.94-1.82,3.06-4.21,3.06C104.53,30.23,102.83,29.05,102.77,26.69Z" style="fill:#fff"/><path d="M51.42,49.07a.16.16,0,0,1-.17.16H49.54a.16.16,0,0,1-.16-.16l.07-7.89L49.4,33a.16.16,0,0,1,.16-.16h2.66a.16.16,0,0,1,.18.14l5.24,13.52,5.12-13.52A.17.17,0,0,1,63,32.8h2.48a.16.16,0,0,1,.17.16l0,8.22.07,7.89a.16.16,0,0,1-.16.16H63.58a.16.16,0,0,1-.17-.16l0-7.26.07-6.08L58.44,49.09a.19.19,0,0,1-.19.14H56.77a.19.19,0,0,1-.19-.14L51.3,35.54l.1,6.27Z" style="fill:#fff"/><path d="M66.84,41c0-5.26,3.1-8.55,7.87-8.55s7.86,3.26,7.86,8.55-3.15,8.5-7.89,8.5S66.84,46.16,66.84,41Zm13.45,0c0-4.23-2.09-6.83-5.61-6.83S69.12,36.79,69.12,41s2.11,6.78,5.59,6.78S80.29,45.26,80.29,41Z" style="fill:#fff"/><path d="M85.88,49.07a.16.16,0,0,1-.16.16H84a.16.16,0,0,1-.17-.16l.07-8.2,0-7.91A.16.16,0,0,1,84,32.8h2.28a.18.18,0,0,1,.18.11L95,46.3,95,40.8,95,33a.16.16,0,0,1,.16-.16h1.76a.17.17,0,0,1,.17.16L97,40.87l.08,8.2a.17.17,0,0,1-.17.16H94.5a.19.19,0,0,1-.19-.12L85.81,35.9l0,5.47Z" style="fill:#fff"/><path d="M106.52,32.94,112.24,49c.05.1,0,.19-.14.19h-1.92a.2.2,0,0,1-.19-.14l-1.67-4.84h-6.71L100,49.09a.18.18,0,0,1-.19.14H97.92a.14.14,0,0,1-.14-.19l5.78-16.1a.17.17,0,0,1,.19-.14h2.58A.22.22,0,0,1,106.52,32.94Zm-1.58,1.41-2.74,8.14h5.54Z" style="fill:#fff"/><path d="M125.27,49c.07.1,0,.19-.11.19H123a.22.22,0,0,1-.21-.12l-1.6-2.63-2.55-4h-3.45l0,6.6a.16.16,0,0,1-.16.16h-1.9a.16.16,0,0,1-.17-.16l.07-8.31L113,33a.16.16,0,0,1,.17-.16h5.79c3.74,0,6,1.62,6,4.81a4.5,4.5,0,0,1-4,4.67ZM115.2,34.44l0,6.39h4c2.16,0,3.64-.94,3.64-3.2s-1.36-3.19-3.69-3.19Z" style="fill:#fff"/><path d="M125.67,41c0-5.19,2.94-8.5,7.68-8.5,3.29,0,6.1,1.5,6.88,5.78a.16.16,0,0,1-.17.18h-1.85c-.1,0-.14,0-.17-.14a4.46,4.46,0,0,0-4.74-4.1c-3.43,0-5.35,2.67-5.35,6.78,0,4.51,2,6.83,5.35,6.83,2.72,0,4.51-1.55,4.84-4.44a.18.18,0,0,1,.19-.16h1.85a.16.16,0,0,1,.16.21c-.63,4.16-3.26,6.11-7,6.11C128.54,49.54,125.67,46.32,125.67,41Z" style="fill:#fff"/><path d="M148.58,32.94,154.31,49c.05.1,0,.19-.14.19h-1.92a.2.2,0,0,1-.19-.14l-1.67-4.84h-6.71l-1.62,4.84a.19.19,0,0,1-.19.14H140c-.11,0-.19-.09-.14-.19l5.78-16.1a.16.16,0,0,1,.18-.14h2.59A.19.19,0,0,1,148.58,32.94ZM147,34.35l-2.75,8.14h5.55Z" style="fill:#fff"/><path d="M74.11,8.11a.07.07,0,0,1-.07.08h-.88a.07.07,0,0,1-.08-.08V1.65a4.3,4.3,0,0,1-1.55.87s-.08,0-.08-.06V1.81a.09.09,0,0,1,.06-.09A3.51,3.51,0,0,0,73.1.55.12.12,0,0,1,73.19.5H74a.08.08,0,0,1,.07.08V8.11Z" style="fill:#fff"/><path d="M75,4.39c0-2.57,1.08-4,2.83-4A2,2,0,0,1,80,2.26a.07.07,0,0,1-.07.08h-.86s-.07,0-.08-.08a1.19,1.19,0,0,0-1.27-1.15C76.65,1.11,76,2.23,76,4a2,2,0,0,1,1.88-1,2.28,2.28,0,0,1,2.38,2.48,2.63,2.63,0,0,1-2.58,2.8C76,8.33,75,7.07,75,4.39Zm4.25,1.25c0-1.11-.53-1.83-1.52-1.83s-1.6.67-1.6,1.79.57,2,1.56,2S79.21,6.83,79.21,5.64Z" style="fill:#fff"/><path d="M82.31,4.54h-.63s-.05,0-.05,0L80.45,1.29s0-.05,0-.05H81a.07.07,0,0,1,0,0L82,4,83,1.28a.07.07,0,0,1,.06,0h.47s.05,0,0,.05L82.36,4.5A.05.05,0,0,1,82.31,4.54Z" style="fill:#fff"/><path d="M85.83,1.28a0,0,0,0,1,0,0h.49a0,0,0,0,1,0,0V4.49a0,0,0,0,1,0,0h-.49a0,0,0,0,1,0,0V4a1.16,1.16,0,0,1-1.06.6c-.89,0-1.36-.75-1.36-1.7s.51-1.72,1.38-1.72a1.11,1.11,0,0,1,1,.56Zm0,1.64c0-.85-.32-1.34-.91-1.34S84,2.1,84,2.85s.29,1.35.91,1.34S85.86,3.76,85.86,2.92Z" style="fill:#fff"/><path d="M93.75,7.49v.62a.07.07,0,0,1-.08.08H88.9a.08.08,0,0,1-.08-.08l0-3.89,0-3.64A.09.09,0,0,1,88.9.5h4.69a.08.08,0,0,1,.07.08v.63a.07.07,0,0,1-.07.07H89.86l0,2.42h3.48a.07.07,0,0,1,.08.08V4.4a.07.07,0,0,1-.08.08H89.84l0,2.93h3.81A.07.07,0,0,1,93.75,7.49Z" style="fill:#fff"/><path d="M98.05.58A.08.08,0,0,1,98.13.5H99a.08.08,0,0,1,.08.08l0,3.31,0,4.22a.07.07,0,0,1-.08.08h-.85a.07.07,0,0,1-.08-.08l0-.81a2,2,0,0,1-1.8,1c-1.52,0-2.33-1.27-2.33-2.92s.86-2.95,2.36-2.95a2,2,0,0,1,1.76.94Zm.06,4.83c0-1.45-.56-2.3-1.56-2.3S95,4,95,5.3s.5,2.32,1.57,2.31S98.1,6.87,98.11,5.41Z" style="fill:#fff"/><path d="M100.82,8.11a.08.08,0,0,1-.08.08h-.88a.08.08,0,0,1-.08-.08l0-2.84,0-2.66a.08.08,0,0,1,.08-.07h.88a.08.08,0,0,1,.08.07l0,2.66Zm0-7.19v.91a.08.08,0,0,1-.08.08h-.87a.08.08,0,0,1-.08-.08V.92a.08.08,0,0,1,.08-.07h.87A.08.08,0,0,1,100.82.92Z" style="fill:#fff"/><path d="M101.36,5.38c0-1.78,1-3,2.67-3a2.17,2.17,0,0,1,2.38,2,.06.06,0,0,1-.06.08h-.78a.08.08,0,0,1-.09-.08A1.4,1.4,0,0,0,104,3.11c-1.11,0-1.63.84-1.63,2.26s.52,2.25,1.63,2.25a1.45,1.45,0,0,0,1.52-1.47c0-.06,0-.08.07-.08h.79s.08,0,.08.07A2.31,2.31,0,0,1,104,8.32C102.32,8.32,101.36,7.16,101.36,5.38Z" style="fill:#fff"/><path d="M108,8.11a.07.07,0,0,1-.07.08h-.88a.07.07,0,0,1-.08-.08l0-2.84,0-2.66a.07.07,0,0,1,.08-.07h.88a.07.07,0,0,1,.07.07l0,2.66Zm0-7.19v.91a.07.07,0,0,1-.07.08h-.87a.08.08,0,0,1-.08-.08V.92a.08.08,0,0,1,.08-.07h.87A.07.07,0,0,1,108,.92Z" style="fill:#fff"/><path d="M108.56,5.38c0-1.79,1-3,2.69-3s2.68,1.18,2.68,3-1,3-2.68,3S108.56,7.16,108.56,5.38Zm4.34,0c0-1.43-.55-2.27-1.65-2.27s-1.66.84-1.66,2.27.55,2.24,1.66,2.24S112.9,6.81,112.9,5.38ZM112.62.45l.23.61a.08.08,0,0,1,0,.1L110.33,2c-.06,0-.08,0-.1,0l-.14-.36c0-.06,0-.08,0-.1l2.4-1.13A.06.06,0,0,1,112.62.45Z" style="fill:#fff"/><path d="M115.46,8.11a.07.07,0,0,1-.07.08h-.88a.07.07,0,0,1-.08-.08l0-2.49,0-3a.08.08,0,0,1,.08-.07h.83a.07.07,0,0,1,.08.07l0,.91a2.2,2.2,0,0,1,1.89-1.12c1.16,0,1.89.77,1.89,2.25V5.77l0,2.34a.08.08,0,0,1-.08.08h-.87a.08.08,0,0,1-.08-.08l0-2.34V4.69c0-1.06-.49-1.53-1.19-1.53s-1.34.61-1.56,1.7V8.11Z" style="fill:#fff"/></g></g></svg>