<svg xmlns="http://www.w3.org/2000/svg" viewBox="0 0 441.67 81.54"><title>Asset 2</title><g id="Layer_2" data-name="Layer 2"><g id="Layer_3" data-name="Layer 3"><path d="M105.65,29.91V46.55h.51V29.91h-.51Zm-62-18.54a29,29,0,0,0-17.72,26.3V38.8a29,29,0,0,0,29,28.58h51.26V9.09H54.9A28.65,28.65,0,0,0,43.61,11.37Zm62-1.77V66.87H54.9A28.45,28.45,0,0,1,44.21,64.8l-.4-.17-.21-.09A28.46,28.46,0,0,1,32,55.34l-.31-.42a28.58,28.58,0,0,1-4.74-11c0-.17-.07-.34-.1-.51a28.85,28.85,0,0,1-.44-4.66V37.67A29,29,0,0,1,26.84,33c0-.17.06-.34.1-.5a28.53,28.53,0,0,1,4.74-11c.1-.14.2-.28.31-.41A28.31,28.31,0,0,1,43.6,11.92l.21-.09.4-.17A28.44,28.44,0,0,1,54.9,9.6Zm0,20.31V46.55h.51V29.91h-.51Zm0,0V46.55h.51V29.91h-.51Z" style="fill:#dcae7e"/><path d="M43.58,11.92l3.55,1.84c-.5.17-1,.36-1.47.56a26.34,26.34,0,0,0-8.37,5.56,26,26,0,0,0-2.41,2.74L32,21.13a28.35,28.35,0,0,1,11.6-9.21Z" style="fill:#1b2645"/><path d="M54.86,9.6H65.11l3.48,2.68H55.9a26.57,26.57,0,0,0-8.1,1.25l-3.61-1.87A28.34,28.34,0,0,1,54.86,9.6Z" style="fill:#e8dfd8"/><polygon points="65.94 9.6 78.15 9.6 79.23 12.28 69.42 12.28 65.94 9.6" style="fill:#1b2645"/><polygon points="78.7 9.6 83.69 9.6 86.38 12.28 79.78 12.28 78.7 9.6" style="fill:#1b2645"/><path d="M84.41,9.6h21.14v2.53q-1.3,0-2.58.15H87.09Z" style="fill:#1b2645"/><path d="M87.12,64.18h16c.86.09,1.73.14,2.6.15v2.54H84.41Z" style="fill:#e8dfd8"/><polygon points="79.78 64.18 86.38 64.18 83.69 66.87 78.7 66.87 79.78 64.18" style="fill:#1b2645"/><polygon points="69.42 64.18 79.23 64.18 78.15 66.87 65.94 66.87 69.42 64.18" style="fill:#0096d6"/><path d="M47.8,62.93a26.57,26.57,0,0,0,8.1,1.25H68.59l-3.48,2.69H54.86A28.35,28.35,0,0,1,44.19,64.8Z" style="fill:#1b2645"/><path d="M34.88,53.85a26.33,26.33,0,0,0,10.78,8.29q.72.31,1.47.57l-3.55,1.83A28.5,28.5,0,0,1,32,55.34Z" style="fill:#0096d6"/><path d="M30,42.83a25.61,25.61,0,0,0,1.66,5.5,26.09,26.09,0,0,0,2.92,5.11l-2.89,1.48a28.17,28.17,0,0,1-4.74-11Z" style="fill:#1b2645"/><path d="M31.68,21.54,34.57,23a26,26,0,0,0-2.92,5.1A25.52,25.52,0,0,0,30,33.64l-3-1.14a28.13,28.13,0,0,1,4.74-11Z" style="fill:#0096d6"/><path d="M26.84,33l3.07,1.15a24.11,24.11,0,0,0-.32,3.52H26.4A29,29,0,0,1,26.84,33Z" style="fill:#e8dfd8"/><path d="M26.4,38.8h3.19a24.24,24.24,0,0,0,.32,3.52l-3.07,1.14A28.85,28.85,0,0,1,26.4,38.8Z" style="fill:#0096d6"/><path d="M105.55,27.58h-.1v21.3h.1V46.55h.5V29.91h-.5Zm-57.75-14-.67.23h0c-.5.17-1,.36-1.47.56a26.34,26.34,0,0,0-8.37,5.56,26,26,0,0,0-2.41,2.74c-.11.13-.21.27-.31.41a26,26,0,0,0-2.92,5.1A25.52,25.52,0,0,0,30,33.64c0,.17-.06.34-.08.51a24.11,24.11,0,0,0-.32,3.52c0,.18,0,.37,0,.56s0,.38,0,.57a24.24,24.24,0,0,0,.32,3.52c0,.17.05.34.08.51a25.61,25.61,0,0,0,1.66,5.5,26.09,26.09,0,0,0,2.92,5.11l.31.41a26.33,26.33,0,0,0,10.78,8.29q.72.31,1.47.57h0l.67.22a26.57,26.57,0,0,0,8.1,1.25h50.26V12.28H55.9A26.57,26.57,0,0,0,47.8,13.53ZM105.45,13V63.47H55.9a25.87,25.87,0,0,1-7.2-1L48,62.25h0c-.7-.22-1.4-.47-2.08-.76a25.47,25.47,0,0,1-8.14-5.41,24.89,24.89,0,0,1-2.27-2.56l-.31-.41a25.17,25.17,0,0,1-2.91-5.06,24.57,24.57,0,0,1-1.63-5.47h0c0-.16-.06-.33-.08-.5a23.79,23.79,0,0,1-.29-3.27c0-.19,0-.38,0-.57s0-.38,0-.56a23.52,23.52,0,0,1,.29-3.27c0-.17.05-.34.08-.51h0a24.76,24.76,0,0,1,4.54-10.53c.1-.14.2-.28.31-.41a23.88,23.88,0,0,1,2.27-2.56A25.66,25.66,0,0,1,45.93,15c.68-.28,1.38-.54,2.08-.76h0L48.7,14a25.87,25.87,0,0,1,7.2-1Zm.1,14.59h-.1v21.3h.1V46.55h.5V29.91h-.5Zm0,0h-.1v21.3h.1V46.55h.5V29.91h-.5Z" style="fill:#dcae7e"/><path d="M99.05,25l2.84,2.84a10.88,10.88,0,0,0-3,1.71L95.07,28A14.48,14.48,0,0,1,99.05,25Z" style="fill:#e8dfd8"/><path d="M84.67,24.46l5.21,2.05,11.69,4.59a8.18,8.18,0,0,0-2.5,2.4l-17-4c.14-.35.28-.71.44-1.06a24.36,24.36,0,0,1,2.09-3.86l.24.19Z" style="fill:#0096d6"/><path d="M91.58,17.49l3.59,3.58A20,20,0,0,0,89.89,26l-5-1.95a25.89,25.89,0,0,1,3-3.54A25.15,25.15,0,0,1,91.58,17.49Z" style="fill:#e8dfd8"/><path d="M80.06,13h7l3.76,3.77a27,27,0,0,0-3.62,3,26.1,26.1,0,0,0-3,3.56Z" style="fill:#0096d6"/><path d="M63.71,25.74l17.15,4a26,26,0,0,0-1.29,5.44L63.71,33.9Z" style="fill:#e8dfd8"/><path d="M48,14.21h0l15.2,7.87v3L45.27,20.9V28l-9.75-5a23.88,23.88,0,0,1,2.27-2.56A25.66,25.66,0,0,1,45.93,15C46.61,14.69,47.31,14.43,48,14.21Z" style="fill:#0096d6"/><polygon points="45.78 21.54 48.49 22.17 48.49 32.65 45.78 32.43 45.78 21.54" style="fill:#e8dfd8"/><path d="M105.45,30.43v1.82a5.78,5.78,0,0,0-5.4,5.42H98.2A7.62,7.62,0,0,1,105.45,30.43Z" style="fill:#e8dfd8"/><path d="M104.79,46.49q.31,0,.66.06v2.33a10.4,10.4,0,0,1-2.62-.43Z" style="fill:#e8dfd8"/><path d="M100.56,38.8h4.89v4.91A5.26,5.26,0,0,1,100.56,38.8Z" style="fill:#0096d6"/><path d="M80.38,38.8H97.7a3.71,3.71,0,0,0,0,.47l-11.48.94-5.73.47C80.45,40.06,80.4,39.43,80.38,38.8Z" style="fill:#0096d6"/><path d="M95.61,55.66c.35.21.71.41,1.07.6a19.92,19.92,0,0,0,8.77,2.22v4.84a25.49,25.49,0,0,1-9.46-2,25.92,25.92,0,0,1-4-2.1Z" style="fill:#0096d6"/><path d="M84.21,53.16a26,26,0,0,0,3,3.55,27,27,0,0,0,3.62,3l-3.76,3.77h-7Z" style="fill:#0096d6"/><path d="M82.65,53.34,69.51,63.47H55.9a25.87,25.87,0,0,1-7.2-1L63.21,55v6Z" style="fill:#e8dfd8"/><polygon points="48.49 43.81 48.49 54.29 45.78 54.93 45.78 44.04 48.49 43.81" style="fill:#0096d6"/><path d="M34,45l11.29-.93v3.85L35.21,53.11a25.17,25.17,0,0,1-2.91-5.06,24.57,24.57,0,0,1-1.63-5.47h0L34,41.34Z" style="fill:#e8dfd8"/><path d="M30.59,34.4,34,35.66v2H30.3A23.52,23.52,0,0,1,30.59,34.4Z" style="fill:#0096d6"/><rect y="37.67" width="106.16" height="1.13" style="fill:#dcae7e"/><path d="M99.13,46.47l.33.27a10.35,10.35,0,0,0,2.83,1.53,4.27,4.27,0,0,0,.54.18,10.4,10.4,0,0,0,2.62.43h.71v.51h-.71a11,11,0,0,1-3-.54c-.18-.05-.35-.12-.53-.18a10.91,10.91,0,0,1-3-1.72l-.12-.09Z" style="fill:#dcae7e"/><path d="M105.8,27.07h.36v.5h-.71a10.87,10.87,0,0,0-2.62.43l-.54.18a10.39,10.39,0,0,0-2.83,1.54,3.92,3.92,0,0,0-.33.27l-.33-.39.12-.1a10.88,10.88,0,0,1,3-1.71l.53-.19a10.65,10.65,0,0,1,3-.53h.35Z" style="fill:#dcae7e"/><path d="M93,48.91l.22.26A16.36,16.36,0,0,0,105.45,55h.71v.51h-.71a16.89,16.89,0,0,1-12.69-6.13,1.71,1.71,0,0,0-.11-.14Z" style="fill:#dcae7e"/><path d="M105.8,21h.36v.5h-.71a16.39,16.39,0,0,0-12.19,5.82l-.22.27-.39-.32.11-.14A16.89,16.89,0,0,1,105.45,21h.35Z" style="fill:#dcae7e"/><path d="M90.18,50l.2.27a19.68,19.68,0,0,0,6.53,5.5A19.33,19.33,0,0,0,105.45,58h.71v.51h-.71a19.92,19.92,0,0,1-8.77-2.22c-.36-.19-.72-.39-1.07-.6-.15-.08-.3-.18-.44-.27a20,20,0,0,1-5.28-4.89l-.12-.16Z" style="fill:#dcae7e"/><path d="M105.8,18h.36v.5h-.71a19.31,19.31,0,0,0-15.07,7.67l-.2.26-.41-.3.12-.15a20,20,0,0,1,5.28-4.9l.44-.27c.35-.21.71-.41,1.07-.6A19.92,19.92,0,0,1,105.45,18h.35Z" style="fill:#dcae7e"/><path d="M94.76,48.13l.31.33a14.52,14.52,0,0,0,4,3l.48.24a14.63,14.63,0,0,0,5.92,1.41h.71v1h-.71a15.66,15.66,0,0,1-11.39-5.31L94,48.79Z" style="fill:#dcae7e"/><path d="M105.8,22.29h.36v1h-.71a14.63,14.63,0,0,0-5.92,1.41q-.24.11-.48.24a14.48,14.48,0,0,0-4,3c-.11.11-.21.22-.31.34L94,27.67l.06-.07a15.66,15.66,0,0,1,11.39-5.31h.35Z" style="fill:#dcae7e"/><path d="M105.55,29.91h-.1l-.66,0-.62.1a8.21,8.21,0,0,0-2,.71h0c-.2.1-.39.21-.58.32a8.18,8.18,0,0,0-2.5,2.4c-.1.15-.2.3-.29.46a8,8,0,0,0-1,2.73c0,.17,0,.34-.07.51a3.59,3.59,0,0,0,0,.47c0,.11,0,.23,0,.35v.42c0,.12,0,.24,0,.36a3.71,3.71,0,0,0,0,.47c0,.17,0,.33.07.5a8.17,8.17,0,0,0,1,2.74c.09.15.19.3.29.45a8.18,8.18,0,0,0,2.5,2.4,6.55,6.55,0,0,0,.58.32h0a8.21,8.21,0,0,0,2,.71l.62.1q.31,0,.66.06h.71V46h-.71A7.62,7.62,0,0,1,98.2,38.8v-.56h0v-.56a7.62,7.62,0,0,1,7.25-7.24h.71v-.51h-.61Z" style="fill:#dcae7e"/><path d="M105.55,32.25h-.1a5.78,5.78,0,0,0-5.4,5.42c0,.1,0,.22,0,.33a.76.76,0,0,0,0,.15v.16a.86.86,0,0,0,0,.16c0,.11,0,.22,0,.33a5.77,5.77,0,0,0,5.4,5.41h.71v-.5h-.71a5.26,5.26,0,0,1-4.89-4.91c0-.11,0-.22,0-.33V38c0-.11,0-.23,0-.33a5.25,5.25,0,0,1,4.89-4.91h.71v-.51h-.61Z" style="fill:#dcae7e"/><polygon points="33.98 38.23 34.48 38.23 34.48 44.45 35.55 44.37 36.56 44.28 45.5 43.55 63.44 42.08 79.51 40.76 80.52 40.68 86.25 40.21 97.73 39.27 97.99 39.25 98.03 39.75 97.8 39.77 86.3 40.71 80.58 41.18 79.56 41.27 63.71 42.57 63.48 42.59 63.21 42.61 49.5 43.73 48.49 43.81 45.78 44.04 45.55 44.06 45.27 44.08 33.98 45.01 33.98 38.23" style="fill:#dcae7e"/><polygon points="33.98 31.46 45.27 32.38 45.78 32.43 48.49 32.65 49.5 32.73 63.21 33.86 63.71 33.9 79.56 35.2 80.58 35.28 97.8 36.69 98.03 36.71 97.99 37.22 97.73 37.2 80.52 35.78 79.51 35.7 63.44 34.38 45.5 32.91 36.56 32.18 35.55 32.1 34.48 32.01 34.48 38.23 33.98 38.23 33.98 31.46" style="fill:#dcae7e"/><polygon points="99.12 42.43 99.23 42.92 99.07 42.96 87.47 45.68 82.03 46.95 81.04 47.19 68.38 50.15 67.36 50.39 63.71 51.24 63.52 51.29 63.21 51.36 45.27 55.57 45.27 43.8 45.78 43.8 45.78 54.93 48.49 54.29 49.5 54.05 63.21 50.84 63.4 50.8 63.71 50.72 80.86 46.7 81.86 46.47 87.35 45.18 98.78 42.51 99.12 42.43" style="fill:#dcae7e"/><polygon points="45.27 20.9 63.21 25.1 63.71 25.22 67.36 26.07 68.38 26.31 81.04 29.28 82.03 29.51 99.07 33.51 99.23 33.54 99.12 34.04 98.78 33.96 87.35 31.28 81.86 29.99 80.86 29.76 63.71 25.74 63.4 25.67 63.21 25.62 49.5 22.41 48.49 22.17 45.78 21.54 45.78 32.66 45.27 32.66 45.27 20.9" style="fill:#dcae7e"/><polygon points="63.21 42.33 63.71 42.33 63.71 60.23 67.36 58.8 68.38 58.4 83.69 52.39 84.09 52.23 84.09 52.23 84.65 52.01 84.67 52 89.88 49.96 101.58 45.36 102.06 45.17 102.25 45.64 102.15 45.68 102.15 45.68 99.46 46.74 98.92 46.95 95.07 48.46 94.06 48.86 93.26 49.17 92.77 49.37 90.38 50.3 90.07 50.43 89.89 50.5 84.94 52.44 84.41 52.65 83.97 52.82 82.65 53.34 82.65 53.34 63.21 60.98 63.21 42.33" style="fill:#dcae7e"/><polygon points="63.21 15.48 82.65 23.12 82.65 23.12 83.97 23.64 84.41 23.81 84.94 24.02 89.89 25.97 90.38 26.16 92.77 27.09 93.26 27.29 94.06 27.6 95.07 28 98.92 29.51 99.46 29.73 102.15 30.78 102.15 30.78 102.25 30.82 102.06 31.29 101.58 31.1 89.88 26.51 84.67 24.46 84.65 24.45 84.09 24.23 84.09 24.23 83.69 24.07 68.38 18.06 67.36 17.66 63.71 16.23 63.71 34.13 63.21 34.13 63.21 15.48" style="fill:#dcae7e"/><polygon points="95.39 55.17 95.75 55.52 87.09 64.18 84.41 66.87 83.9 67.38 83.18 67.38 87.09 63.47 90.85 59.7 91.58 58.98 95.17 55.39 95.39 55.17" style="fill:#dcae7e"/><polygon points="84.8 51.69 84.67 52 84.66 52.03 84.41 52.65 84.21 53.16 80.06 63.47 79.78 64.18 78.7 66.87 78.5 67.38 77.95 67.38 78.15 66.87 79.23 64.18 79.52 63.47 83.63 53.22 70.34 63.47 69.42 64.18 65.94 66.87 65.28 67.38 64.45 67.38 65.11 66.87 68.59 64.18 69.52 63.47 82.65 53.34 82.65 53.34 83.75 52.49 84.09 52.23 84.09 52.23 84.56 51.87 84.8 51.69" style="fill:#dcae7e"/><polygon points="70.34 12.99 83.63 23.24 79.52 12.99 79.23 12.28 78.15 9.6 77.95 9.09 78.5 9.09 78.7 9.6 79.78 12.28 80.06 12.99 84.21 23.31 84.41 23.81 84.66 24.44 84.67 24.46 84.8 24.78 84.56 24.59 84.09 24.23 84.09 24.23 83.75 23.97 82.65 23.12 82.65 23.12 69.52 12.99 68.59 12.28 65.11 9.6 64.45 9.09 65.28 9.09 65.94 9.6 69.42 12.28 70.34 12.99" style="fill:#dcae7e"/><polygon points="83.18 9.09 83.9 9.09 95.75 20.94 95.39 21.3 95.17 21.07 91.58 17.49 90.85 16.76 87.09 12.99 83.18 9.09" style="fill:#dcae7e"/><polygon points="104.44 46.12 104.8 46.48 99.09 52.19 98.73 51.83 99.05 51.51 101.89 48.67 102.29 48.27 104.17 46.39 104.44 46.12" style="fill:#dcae7e"/><polygon points="99.09 24.28 99.53 24.72 102.42 27.61 104.8 29.98 104.44 30.34 104.17 30.07 102.29 28.19 101.89 27.8 99.05 24.96 98.73 24.64 99.09 24.28" style="fill:#dcae7e"/><polygon points="34.14 40.74 34.32 41.21 33.98 41.34 30.67 42.58 30.67 42.58 29.99 42.83 26.94 43.97 26.74 44.04 26.56 43.57 26.84 43.46 29.91 42.32 30.59 42.06 33.98 40.8 34.14 40.74" style="fill:#dcae7e"/><polygon points="26.74 32.42 26.94 32.5 29.99 33.64 30.67 33.89 30.67 33.89 33.98 35.12 34.32 35.25 34.14 35.73 33.98 35.66 30.59 34.4 29.91 34.15 26.84 33 26.56 32.9 26.74 32.42" style="fill:#dcae7e"/><polygon points="45.41 47.86 45.64 48.31 45.27 48.5 35.52 53.52 34.88 53.85 31.98 55.34 31.72 55.47 31.48 55.02 31.68 54.92 34.57 53.44 35.21 53.11 45.27 47.93 45.41 47.86" style="fill:#dcae7e"/><polygon points="31.72 20.99 31.98 21.13 34.88 22.62 35.52 22.95 45.27 27.96 45.64 28.15 45.41 28.6 45.27 28.53 35.21 23.36 34.57 23.03 31.68 21.54 31.48 21.44 31.72 20.99" style="fill:#dcae7e"/><polygon points="63.34 54.31 63.58 54.77 63.21 54.96 48.7 62.47 47.8 62.93 44.19 64.8 43.71 65.05 43.48 64.6 43.58 64.55 47.13 62.71 47.13 62.71 48.01 62.25 48.01 62.25 63.21 54.39 63.34 54.31" style="fill:#dcae7e"/><polygon points="43.71 11.41 44.19 11.66 47.8 13.53 48.7 14 63.21 21.51 63.58 21.7 63.34 22.15 63.21 22.08 48.01 14.21 48.01 14.21 47.13 13.76 47.13 13.76 43.58 11.92 43.48 11.86 43.71 11.41" style="fill:#dcae7e"/><rect x="35.55" y="38.47" width="1.01" height="6.11" style="fill:#dcae7e"/><rect x="35.55" y="31.88" width="1.01" height="6.11" style="fill:#dcae7e"/><rect x="48.49" y="43.52" width="1.01" height="10.92" style="fill:#dcae7e"/><rect x="48.49" y="22.03" width="1.01" height="10.92" style="fill:#dcae7e"/><rect x="67.36" y="50.01" width="1.01" height="8.86" style="fill:#dcae7e"/><rect x="67.36" y="17.59" width="1.01" height="8.86" style="fill:#dcae7e"/><path d="M105.83,12.13v1h-.38A25.35,25.35,0,0,0,92,17.2l-.44.29a25.15,25.15,0,0,0-3.64,3,25.89,25.89,0,0,0-3,3.54l-.28.42h0l-.09.14a24.36,24.36,0,0,0-2.09,3.86c-.16.35-.3.71-.44,1.06l-.18.48a25.19,25.19,0,0,0-1.27,5.29,4.53,4.53,0,0,0-.06.5c-.07.63-.12,1.25-.14,1.89,0,.18,0,.37,0,.56s0,.38,0,.57c0,.63.07,1.26.14,1.88a4,4,0,0,0,.06.5,25.19,25.19,0,0,0,1.27,5.29L82,47c.14.36.28.71.44,1.06a24.36,24.36,0,0,0,2.09,3.86l.09.14v0l.28.41A25.82,25.82,0,0,0,91.58,59l.44.28a25.92,25.92,0,0,0,4,2.1,25.49,25.49,0,0,0,9.46,2h.38v1h-.28q-1.3,0-2.58-.15a25.34,25.34,0,0,1-3.87-.71A26.2,26.2,0,0,1,91.28,60l-.43-.29a27,27,0,0,1-3.62-3,26,26,0,0,1-3-3.55L84,52.82l-.22-.33a.61.61,0,0,0-.07-.1,26.6,26.6,0,0,1-2.14-4c-.18-.41-.35-.82-.5-1.24l-.18-.48a26,26,0,0,1-1.29-5.43,4.43,4.43,0,0,1-.06-.51c-.08-.65-.12-1.3-.14-2,0-.19,0-.37,0-.56v0c0-.18,0-.37,0-.55,0-.66.06-1.32.14-2a4.26,4.26,0,0,1,.06-.5,26,26,0,0,1,1.29-5.44l.18-.48c.15-.41.32-.83.5-1.23a26.71,26.71,0,0,1,2.14-4,.61.61,0,0,0,.07-.1l.22-.33.24-.33a26.1,26.1,0,0,1,3-3.56,27,27,0,0,1,3.62-3l.43-.29a27.48,27.48,0,0,1,4.32-2.3A27.17,27.17,0,0,1,99.1,13a26.62,26.62,0,0,1,3.87-.71q1.27-.13,2.58-.15Z" style="fill:#dcae7e"/><path d="M336,46.55V29.91h-.51V46.55H336Zm62,18.55a29,29,0,0,0,17.72-26.3V37.67a29,29,0,0,0-29-28.58H335.51V67.38h51.26A28.9,28.9,0,0,0,398.06,65.1Zm-62,1.77V9.6h50.75a28.39,28.39,0,0,1,10.68,2.06l.41.17.2.09a28.31,28.31,0,0,1,8.86,6,27.77,27.77,0,0,1,2.76,3.2l.3.41a28.35,28.35,0,0,1,4.75,11l.09.5a27.88,27.88,0,0,1,.45,4.67V38.8a27.77,27.77,0,0,1-.45,4.66l-.09.51a28.4,28.4,0,0,1-4.75,11l-.3.42a27.67,27.67,0,0,1-2.76,3.19,28.14,28.14,0,0,1-8.86,6l-.2.09-.41.17a28.4,28.4,0,0,1-10.68,2.07Zm0-20.32V29.91h-.51V46.55H336Zm0,0V29.91h-.51V46.55H336Z" style="fill:#dcae7e"/><path d="M398.08,64.54l-3.54-1.83q.73-.26,1.47-.57a26.59,26.59,0,0,0,10.78-8.29l2.9,1.49a28.68,28.68,0,0,1-2.76,3.19A28.21,28.21,0,0,1,398.08,64.54Z" style="fill:#1b2645"/><path d="M386.8,66.87H376.55l-3.48-2.69h12.7a26.57,26.57,0,0,0,8.1-1.25l3.61,1.87A28.4,28.4,0,0,1,386.8,66.87Z" style="fill:#e8dfd8"/><polygon points="375.72 66.87 363.51 66.87 362.43 64.18 372.24 64.18 375.72 66.87" style="fill:#1b2645"/><polygon points="362.97 66.87 357.98 66.87 355.29 64.18 361.89 64.18 362.97 66.87" style="fill:#1b2645"/><path d="M357.26,66.87H336.12V64.33q1.31,0,2.58-.15h15.87Z" style="fill:#1b2645"/><path d="M354.55,12.28h-16c-.86-.09-1.73-.14-2.6-.15V9.6h21.34Z" style="fill:#e8dfd8"/><polygon points="361.89 12.28 355.29 12.28 357.98 9.6 362.97 9.6 361.89 12.28" style="fill:#1b2645"/><polygon points="372.24 12.28 362.43 12.28 363.51 9.6 375.72 9.6 372.24 12.28" style="fill:#0096d6"/><path d="M393.87,13.53a26.57,26.57,0,0,0-8.1-1.25h-12.7l3.48-2.68H386.8a28.39,28.39,0,0,1,10.68,2.06Z" style="fill:#1b2645"/><path d="M406.79,22.62A26.42,26.42,0,0,0,396,14.32c-.49-.2-1-.39-1.47-.56l3.54-1.84a28.38,28.38,0,0,1,8.85,6,28.78,28.78,0,0,1,2.76,3.2Z" style="fill:#0096d6"/><path d="M411.67,33.64A25.5,25.5,0,0,0,410,28.13,26,26,0,0,0,407.1,23L410,21.54a28.53,28.53,0,0,1,4.74,11Z" style="fill:#1b2645"/><path d="M410,54.92l-2.89-1.48A26.09,26.09,0,0,0,410,48.33a25.58,25.58,0,0,0,1.65-5.5L414.73,44a28.58,28.58,0,0,1-4.74,11Z" style="fill:#0096d6"/><path d="M414.82,43.46l-3.06-1.14a25.73,25.73,0,0,0,.32-3.52h3.19A27.77,27.77,0,0,1,414.82,43.46Z" style="fill:#e8dfd8"/><path d="M415.27,37.67h-3.19a25.58,25.58,0,0,0-.32-3.52L414.82,33A27.88,27.88,0,0,1,415.27,37.67Z" style="fill:#0096d6"/><path d="M336.12,48.88h.1V27.58h-.1v2.33h-.51V46.55h.51Zm57.75,14,.67-.22h0q.73-.26,1.47-.57a26.59,26.59,0,0,0,10.78-8.29l.31-.41A26.09,26.09,0,0,0,410,48.33a25.58,25.58,0,0,0,1.65-5.5l.09-.51a25.73,25.73,0,0,0,.32-3.52V37.67a25.58,25.58,0,0,0-.32-3.52l-.09-.51A25.5,25.5,0,0,0,410,28.13,26,26,0,0,0,407.1,23l-.31-.41A26.42,26.42,0,0,0,396,14.32c-.49-.2-1-.39-1.47-.56h0l-.67-.23a26.57,26.57,0,0,0-8.1-1.25H335.51v51.9h50.26A26.57,26.57,0,0,0,393.87,62.93Zm-57.65.54V13h49.55A25.86,25.86,0,0,1,393,14l.7.21h0c.7.22,1.39.48,2.08.76a25.78,25.78,0,0,1,8.14,5.42A25,25,0,0,1,406.15,23l.31.41A25.1,25.1,0,0,1,411,33.89h0c0,.17.06.34.08.51a25.15,25.15,0,0,1,.29,3.27V38.8a25.46,25.46,0,0,1-.29,3.27c0,.17-.05.34-.08.5h0a24.59,24.59,0,0,1-1.64,5.47,25.13,25.13,0,0,1-2.9,5.06l-.31.41a26.13,26.13,0,0,1-2.27,2.56,25.58,25.58,0,0,1-8.14,5.41c-.69.29-1.38.54-2.08.76h0c-.23.08-.46.15-.7.21a25.86,25.86,0,0,1-7.19,1Zm-.1-14.59h.1V27.58h-.1v2.33h-.51V46.55h.51Zm0,0h.1V27.58h-.1v2.33h-.51V46.55h.51Z" style="fill:#dcae7e"/><path d="M342.62,51.51l-2.85-2.84a11,11,0,0,0,3-1.72l3.85,1.51A14.82,14.82,0,0,1,342.62,51.51Z" style="fill:#e8dfd8"/><path d="M357,52l-5.22-2-11.69-4.6A8.1,8.1,0,0,0,342.6,43l17,4c-.13.36-.28.71-.43,1.06a26.09,26.09,0,0,1-2.09,3.86l-.24-.18Z" style="fill:#0096d6"/><path d="M350.08,59l-3.58-3.59a20.15,20.15,0,0,0,5.28-4.89l4.94,1.94A25.4,25.4,0,0,1,350.08,59Z" style="fill:#e8dfd8"/><path d="M361.6,63.47h-7l-3.77-3.77a26.45,26.45,0,0,0,3.63-3,26.75,26.75,0,0,0,3-3.55Z" style="fill:#0096d6"/><path d="M378,50.72l-17.14-4a26.66,26.66,0,0,0,1.29-5.43L378,42.57Z" style="fill:#e8dfd8"/><path d="M393.66,62.25h0l-15.2-7.86v-3l17.94,4.21V48.5l9.75,5a26.13,26.13,0,0,1-2.27,2.56,25.58,25.58,0,0,1-8.14,5.41C395.05,61.78,394.36,62,393.66,62.25Z" style="fill:#0096d6"/><polygon points="395.89 54.93 393.18 54.29 393.18 43.81 395.89 44.04 395.89 54.93" style="fill:#e8dfd8"/><path d="M336.22,46V44.21a5.75,5.75,0,0,0,5.39-5.41h1.85A7.61,7.61,0,0,1,336.22,46Z" style="fill:#e8dfd8"/><path d="M336.88,30l-.66,0V27.58a11,11,0,0,1,2.62.43Z" style="fill:#e8dfd8"/><path d="M341.11,37.67h-4.89V32.76A5.26,5.26,0,0,1,341.11,37.67Z" style="fill:#0096d6"/><path d="M361.29,37.67H344l0-.47,11.47-1,5.74-.47C361.22,36.41,361.26,37,361.29,37.67Z" style="fill:#0096d6"/><path d="M346.05,20.8c-.34-.21-.7-.41-1.06-.6A20,20,0,0,0,336.22,18V13.15a25.46,25.46,0,0,1,13.43,4Z" style="fill:#0096d6"/><path d="M357.46,23.31a26.83,26.83,0,0,0-3-3.56,26.45,26.45,0,0,0-3.63-3L354.58,13h7Z" style="fill:#0096d6"/><path d="M359,23.12,372.15,13h13.62A25.86,25.86,0,0,1,393,14l-14.5,7.51v-6Z" style="fill:#e8dfd8"/><polygon points="393.18 32.65 393.18 22.17 395.89 21.54 395.89 32.43 393.18 32.65" style="fill:#0096d6"/><path d="M407.69,31.46l-11.29.93V28.53l10.06-5.17A25.1,25.1,0,0,1,411,33.89h0l-3.31,1.23Z" style="fill:#e8dfd8"/><path d="M411.08,42.07l-3.39-1.27v-2h3.68A25.46,25.46,0,0,1,411.08,42.07Z" style="fill:#0096d6"/><rect x="335.51" y="37.67" width="106.16" height="1.13" style="fill:#dcae7e"/><path d="M342.54,30a2.88,2.88,0,0,0-.34-.27,10.33,10.33,0,0,0-2.82-1.54l-.54-.18a11,11,0,0,0-2.62-.43h-.71v-.5h.71a10.77,10.77,0,0,1,3,.53l.53.19a11,11,0,0,1,3,1.71l.12.1Z" style="fill:#dcae7e"/><path d="M335.87,49.39h-.36v-.51h.71a10.55,10.55,0,0,0,2.62-.43l.54-.18a10.3,10.3,0,0,0,2.82-1.53l.34-.27.33.39-.12.09a11,11,0,0,1-3,1.72l-.52.18a11.15,11.15,0,0,1-3,.54h-.35Z" style="fill:#dcae7e"/><path d="M348.63,27.56l-.23-.27a16.37,16.37,0,0,0-12.18-5.82h-.71V21h.71A16.87,16.87,0,0,1,348.9,27.1l.12.14Z" style="fill:#dcae7e"/><path d="M335.87,55.5h-.36V55h.71a16.34,16.34,0,0,0,12.18-5.82l.23-.26.39.32-.12.14a16.87,16.87,0,0,1-12.68,6.13h-.35Z" style="fill:#dcae7e"/><path d="M351.49,26.42c-.07-.09-.14-.17-.2-.26a19.35,19.35,0,0,0-15.07-7.67h-.71V18h.71A20,20,0,0,1,345,20.2c.36.19.72.39,1.06.6l.45.27a20.19,20.19,0,0,1,5.28,4.9l.11.15Z" style="fill:#dcae7e"/><path d="M335.87,58.48h-.36V58h.71a19.29,19.29,0,0,0,8.53-2.16,19.61,19.61,0,0,0,6.54-5.5l.2-.27.4.3-.11.16a20.15,20.15,0,0,1-5.28,4.89l-.44.27c-.35.21-.71.41-1.07.6a20,20,0,0,1-8.77,2.22h-.35Z" style="fill:#dcae7e"/><path d="M346.9,28.34l-.3-.34a14.78,14.78,0,0,0-4-3q-.24-.13-.48-.24a14.67,14.67,0,0,0-5.92-1.41h-.71v-1h.71a15.66,15.66,0,0,1,11.39,5.31l.06.07Z" style="fill:#dcae7e"/><path d="M335.87,54.18h-.36v-1h.71a14.67,14.67,0,0,0,5.92-1.41l.48-.24a14.82,14.82,0,0,0,4-3l.3-.33.77.66-.06.07a15.66,15.66,0,0,1-11.39,5.31h-.35Z" style="fill:#dcae7e"/><path d="M336.12,46.55h.1q.33,0,.66-.06l.62-.1a8.21,8.21,0,0,0,2-.71h0a5.24,5.24,0,0,0,.57-.32A8.1,8.1,0,0,0,342.6,43c.1-.15.2-.3.28-.45a8,8,0,0,0,1-2.74c0-.17.05-.33.07-.5l0-.47c0-.12,0-.24,0-.36V38c0-.12,0-.24,0-.35l0-.47c0-.17,0-.34-.07-.51a7.85,7.85,0,0,0-1-2.73,4.34,4.34,0,0,0-.28-.46,8.1,8.1,0,0,0-2.51-2.4c-.18-.11-.37-.22-.57-.32h0a8.21,8.21,0,0,0-2-.71l-.62-.1-.66,0h-.71v.51h.71a7.61,7.61,0,0,1,7.24,7.24c0,.11,0,.23,0,.35v.21h0v.2c0,.12,0,.24,0,.36A7.61,7.61,0,0,1,336.22,46h-.71v.51h.61Z" style="fill:#dcae7e"/><path d="M336.12,44.22h.1a5.75,5.75,0,0,0,5.39-5.41c0-.11,0-.22,0-.33V38c0-.11,0-.23,0-.33a5.76,5.76,0,0,0-5.39-5.42h-.71v.51h.71a5.26,5.26,0,0,1,4.89,4.91c0,.1,0,.22,0,.33a.71.71,0,0,1,0,.14v.19a.61.61,0,0,1,0,.14c0,.11,0,.22,0,.33a5.28,5.28,0,0,1-4.89,4.91h-.71v.5h.61Z" style="fill:#dcae7e"/><polygon points="407.69 38.23 407.18 38.23 407.18 32.01 406.12 32.1 405.11 32.18 396.16 32.91 378.23 34.38 362.16 35.7 361.15 35.78 355.41 36.26 343.94 37.2 343.67 37.22 343.63 36.71 343.87 36.69 355.37 35.75 361.09 35.28 362.1 35.2 377.95 33.9 378.19 33.88 378.46 33.86 392.16 32.73 393.18 32.65 395.89 32.43 396.12 32.41 396.39 32.38 407.69 31.46 407.69 38.23" style="fill:#dcae7e"/><polygon points="407.69 45.01 396.39 44.08 395.89 44.04 393.18 43.81 392.16 43.73 378.46 42.61 377.95 42.57 362.1 41.27 361.09 41.18 343.87 39.77 343.63 39.75 343.67 39.25 343.94 39.27 361.15 40.68 362.16 40.76 378.23 42.08 396.16 43.55 405.11 44.28 406.12 44.37 407.18 44.45 407.18 38.23 407.69 38.23 407.69 45.01" style="fill:#dcae7e"/><polygon points="342.55 34.04 342.43 33.54 342.6 33.51 354.2 30.79 359.63 29.51 360.63 29.28 373.29 26.31 374.3 26.07 377.95 25.22 378.15 25.17 378.46 25.1 396.39 20.9 396.39 32.66 395.89 32.66 395.89 21.54 393.18 22.17 392.16 22.41 378.46 25.62 378.26 25.67 377.95 25.74 360.81 29.76 359.81 29.99 354.31 31.28 342.88 33.96 342.55 34.04" style="fill:#dcae7e"/><polygon points="396.39 55.57 378.46 51.36 377.95 51.24 374.3 50.39 373.29 50.15 360.63 47.19 359.63 46.95 342.6 42.96 342.43 42.92 342.55 42.43 342.88 42.51 354.31 45.18 359.81 46.47 360.81 46.7 377.95 50.72 378.26 50.8 378.46 50.84 392.16 54.05 393.18 54.29 395.89 54.93 395.89 43.8 396.39 43.8 396.39 55.57" style="fill:#dcae7e"/><polygon points="378.46 34.13 377.95 34.13 377.95 16.23 374.3 17.66 373.29 18.06 357.98 24.07 357.58 24.23 357.58 24.23 357.02 24.45 357 24.46 351.78 26.51 340.09 31.1 339.6 31.29 339.42 30.82 339.52 30.78 339.52 30.78 342.2 29.73 342.75 29.51 346.6 28 347.61 27.6 348.4 27.29 348.9 27.1 351.29 26.16 351.6 26.04 351.78 25.97 356.72 24.02 357.26 23.81 357.69 23.64 359.02 23.12 359.02 23.12 378.46 15.48 378.46 34.13" style="fill:#dcae7e"/><polygon points="378.46 60.98 359.02 53.34 359.02 53.34 357.69 52.82 357.26 52.65 356.72 52.44 351.78 50.5 351.29 50.31 348.9 49.37 348.4 49.17 347.61 48.86 346.6 48.46 342.75 46.95 342.2 46.74 339.52 45.68 339.52 45.68 339.42 45.64 339.6 45.17 340.09 45.36 351.78 49.96 357 52 357.02 52.01 357.58 52.23 357.58 52.23 357.98 52.39 373.29 58.4 374.3 58.8 377.95 60.23 377.95 42.33 378.46 42.33 378.46 60.98" style="fill:#dcae7e"/><polygon points="346.27 21.3 345.92 20.94 354.57 12.28 357.26 9.6 357.77 9.09 358.48 9.09 354.58 12.99 350.81 16.76 350.08 17.49 346.5 21.07 346.27 21.3" style="fill:#dcae7e"/><polygon points="356.87 24.78 357 24.46 357.01 24.44 357.26 23.81 357.46 23.31 361.6 12.99 361.89 12.28 362.97 9.6 363.17 9.09 363.72 9.09 363.51 9.6 362.43 12.28 362.15 12.99 358.03 23.24 371.32 12.99 372.24 12.28 375.72 9.6 376.38 9.09 377.21 9.09 376.55 9.6 373.07 12.28 372.15 12.99 359.02 23.12 359.02 23.12 357.92 23.97 357.58 24.23 357.58 24.23 357.11 24.59 356.87 24.78" style="fill:#dcae7e"/><polygon points="371.32 63.47 358.03 53.22 362.15 63.47 362.43 64.18 363.51 66.87 363.72 67.38 363.17 67.38 362.97 66.87 361.89 64.18 361.6 63.47 357.46 53.16 357.26 52.65 357.01 52.03 357 52 356.87 51.69 357.11 51.87 357.58 52.23 357.58 52.23 357.92 52.49 359.02 53.34 359.02 53.34 372.15 63.47 373.07 64.18 376.55 66.87 377.21 67.38 376.38 67.38 375.72 66.87 372.24 64.18 371.32 63.47" style="fill:#dcae7e"/><polygon points="358.48 67.38 357.77 67.38 345.92 55.52 346.27 55.17 346.5 55.39 350.08 58.98 350.81 59.7 354.58 63.47 358.48 67.38" style="fill:#dcae7e"/><polygon points="337.23 30.34 336.87 29.98 342.58 24.28 342.94 24.64 342.62 24.96 339.77 27.8 339.38 28.19 337.5 30.07 337.23 30.34" style="fill:#dcae7e"/><polygon points="342.58 52.19 342.14 51.75 339.25 48.85 336.87 46.48 337.23 46.12 337.5 46.39 339.38 48.27 339.77 48.67 342.62 51.51 342.94 51.83 342.58 52.19" style="fill:#dcae7e"/><polygon points="407.52 35.73 407.35 35.25 407.69 35.12 411 33.89 411 33.89 411.67 33.64 414.73 32.5 414.93 32.42 415.11 32.9 414.82 33 411.76 34.15 411.08 34.4 407.69 35.66 407.52 35.73" style="fill:#dcae7e"/><polygon points="414.93 44.04 414.73 43.97 411.67 42.83 411 42.58 411 42.58 407.69 41.34 407.35 41.21 407.52 40.74 407.69 40.8 411.08 42.06 411.76 42.32 414.82 43.46 415.11 43.57 414.93 44.04" style="fill:#dcae7e"/><polygon points="396.26 28.6 396.03 28.15 396.39 27.96 406.15 22.95 406.79 22.62 409.69 21.13 409.95 20.99 410.18 21.44 409.99 21.54 407.1 23.03 406.46 23.36 396.39 28.53 396.26 28.6" style="fill:#dcae7e"/><polygon points="409.95 55.47 409.69 55.34 406.79 53.85 406.15 53.52 396.39 48.5 396.03 48.31 396.26 47.86 396.39 47.93 406.46 53.11 407.1 53.44 409.99 54.92 410.18 55.02 409.95 55.47" style="fill:#dcae7e"/><polygon points="378.32 22.15 378.09 21.7 378.46 21.51 392.96 14 393.87 13.53 397.48 11.66 397.96 11.41 398.19 11.86 398.08 11.92 394.54 13.76 394.54 13.76 393.66 14.21 393.66 14.21 378.46 22.08 378.32 22.15" style="fill:#dcae7e"/><polygon points="397.96 65.05 397.48 64.8 393.87 62.93 392.96 62.47 378.46 54.96 378.09 54.77 378.32 54.31 378.46 54.39 393.66 62.25 393.66 62.25 394.54 62.71 394.54 62.71 398.08 64.55 398.19 64.6 397.96 65.05" style="fill:#dcae7e"/><rect x="405.11" y="31.88" width="1.01" height="6.11" style="fill:#dcae7e"/><rect x="405.11" y="38.47" width="1.01" height="6.11" style="fill:#dcae7e"/><rect x="392.16" y="22.03" width="1.01" height="10.92" style="fill:#dcae7e"/><rect x="392.16" y="43.52" width="1.01" height="10.92" style="fill:#dcae7e"/><rect x="373.29" y="17.59" width="1.01" height="8.86" style="fill:#dcae7e"/><rect x="373.29" y="50.01" width="1.01" height="8.86" style="fill:#dcae7e"/><path d="M335.83,64.33v-1h.39a25.44,25.44,0,0,0,9.45-2,26,26,0,0,0,4-2.1l.43-.28a25.4,25.4,0,0,0,6.64-6.54L357,52v0l.09-.14A26.09,26.09,0,0,0,359.2,48c.15-.35.3-.7.43-1.06.07-.16.12-.32.18-.48a24.6,24.6,0,0,0,1.28-5.29l.06-.5c.07-.62.11-1.25.14-1.88,0-.19,0-.38,0-.57s0-.38,0-.56c0-.64-.07-1.26-.14-1.89l-.06-.5A24.6,24.6,0,0,0,359.81,30c-.06-.16-.11-.32-.18-.48-.13-.35-.28-.71-.43-1.06a26.09,26.09,0,0,0-2.09-3.86l-.09-.14h0l-.29-.42a25.13,25.13,0,0,0-3-3.54,24.7,24.7,0,0,0-3.65-3l-.43-.29a25.46,25.46,0,0,0-13.43-4h-.39v-1h.29q1.31,0,2.58.15a26.62,26.62,0,0,1,3.87.71,26.31,26.31,0,0,1,7.81,3.48l.43.29a26.45,26.45,0,0,1,3.63,3,26.83,26.83,0,0,1,3,3.56l.23.33.22.33.07.1a25.87,25.87,0,0,1,2.15,4c.18.4.34.82.5,1.23.06.16.12.32.17.48a26,26,0,0,1,1.3,5.44l.06.5c.07.65.12,1.31.14,2,0,.18,0,.37,0,.55v0c0,.19,0,.37,0,.56,0,.66-.07,1.31-.14,2l-.06.51a26.66,26.66,0,0,1-1.29,5.43l-.18.48c-.16.42-.32.83-.5,1.24a25.32,25.32,0,0,1-2.15,4,.36.36,0,0,1-.07.1l-.22.33-.23.34a26.75,26.75,0,0,1-3,3.55,26.45,26.45,0,0,1-3.63,3c-.14.1-.28.2-.43.29a26.35,26.35,0,0,1-11.68,4.19q-1.27.13-2.58.15Z" style="fill:#dcae7e"/><rect x="227.3" y="62.13" width="2.56" height="2.56" style="fill:#fff"/><path d="M229.8,75.47V66.25h-2.43v9.22Zm16.11.1V73.31a8.68,8.68,0,0,1-.88-.06,1,1,0,0,1-.57-.25,1,1,0,0,1-.26-.56,6.8,6.8,0,0,1,0-.89V68.33h1.76V66.25h-1.76v-3.6h-2.43v8.92a7.9,7.9,0,0,0,.19,1.9,2.69,2.69,0,0,0,.65,1.23,2.53,2.53,0,0,0,1.18.66,7,7,0,0,0,1.86.21Zm13.92-.1V61.94H257.4V75.47Zm-20.46-8.31a3.65,3.65,0,0,0-2.82-1.1,3.55,3.55,0,0,0-1.6.36,3.38,3.38,0,0,0-1.21,1l-.13.17V66.25h-2.4v9.22h2.42V70.73a2.75,2.75,0,0,1,.65-1.91,2.09,2.09,0,0,1,1.54-.65,2,2,0,0,1,1.59.63,2.75,2.75,0,0,1,.53,1.77h0v0h0v4.88h2.45V70.24A4.35,4.35,0,0,0,239.37,67.16Zm16.77,3.68a5,5,0,0,0-.35-1.86,5.07,5.07,0,0,0-1-1.53,4.64,4.64,0,0,0-1.5-1,5.1,5.1,0,0,0-1.93-.37,4.71,4.71,0,0,0-1.88.38,5,5,0,0,0-1.52,1A4.91,4.91,0,0,0,247,69a4.69,4.69,0,0,0-.37,1.87,5,5,0,0,0,.36,1.88,4.51,4.51,0,0,0,2.53,2.54,5.14,5.14,0,0,0,2,.38,5.19,5.19,0,0,0,4.1-1.81l-1.74-1.33a3.22,3.22,0,0,1-2.34,1,2.81,2.81,0,0,1-1.68-.47,2.42,2.42,0,0,1-.88-1.28l0-.09h7.25ZM248.91,70a2.55,2.55,0,0,1,4.9,0Z" style="fill:#fff"/><path d="M262.6,74.31a.92.92,0,0,0-.19-.28.84.84,0,0,0-.29-.2.81.81,0,0,0-.35-.07.84.84,0,0,0-.35.07.9.9,0,0,0-.28.2.77.77,0,0,0-.19.28.81.81,0,0,0,0,.7.91.91,0,0,0,.19.29,1.07,1.07,0,0,0,.28.19.84.84,0,0,0,.35.07.81.81,0,0,0,.35-.07,1,1,0,0,0,.29-.19,1.12,1.12,0,0,0,.19-.29.91.91,0,0,0,0-.7Zm-.14.64a.79.79,0,0,1-.16.23.78.78,0,0,1-.24.16.68.68,0,0,1-.29.06.67.67,0,0,1-.28-.06.78.78,0,0,1-.24-.16.63.63,0,0,1-.16-.23.73.73,0,0,1,0-.58.63.63,0,0,1,.16-.23.78.78,0,0,1,.24-.16.67.67,0,0,1,.28-.06.68.68,0,0,1,.29.06.78.78,0,0,1,.24.16.79.79,0,0,1,.16.23.87.87,0,0,1,0,.58Zm-.52-.22a.25.25,0,0,0,.18-.08.28.28,0,0,0,.07-.2.29.29,0,0,0-.09-.23.43.43,0,0,0-.28-.08h-.39v1h.19v-.42h.13l.26.42h.2Zm-.1-.15h-.22V74.3h.22l.08,0,.06,0a.19.19,0,0,1,0,.08.15.15,0,0,1,0,.08l-.06,0Z" style="fill:#fff"/><g id="_Group_" data-name="&lt;Group&gt;"><path id="_Compound_Path_" data-name="&lt;Compound Path&gt;" d="M204.61,81.54h-.38l2.61-7.17h3.59A1.74,1.74,0,0,0,212,73.3l2.83-7.77a1.61,1.61,0,0,0-1.62-2.31h-5L204,74.69h0l-2.37,6.51a12.76,12.76,0,0,1-.48-24.7l-2.44,6.72h0l-4.07,11.15h2.71l3.45-9.48h2l-3.45,9.48h2.7l3.22-8.84a1.61,1.61,0,0,0-1.62-2.31h-2.27L204,56.05l.57,0a12.76,12.76,0,1,1,0,25.51Zm7.72-16.65h-2l-2.84,7.8h2Z" style="fill:#fff"/></g><path d="M182.1,31.9a2.71,2.71,0,0,1,0,.29c0,.16,0,.32,0,.48,6.62,2.69,7.31,6.33,5,8.5-1.75,1.65-7.84,4.47-14.11,6.18a13.57,13.57,0,0,1-6.81,1.74c-4.64-.41-9.47,1.38-12.56-3.67l.27-.31s0-.25.06-.71c-.64-1.75-.83-4.2-.75-7.61.25-9.7-2.66-12.72-2.66-12.72a16.7,16.7,0,0,0,5.37,2.38c0-.3,0-.59,0-.88-4-1.13-4.5-2.08-6.67-4.57-3.47-4,0-11.27,0-11.27-8.8,1.77-8,9.21-2.62,12s5.59,10.26,5.54,18.76,6.64,10.86,18.71,8,18.51-6,18.41-9.8C189.26,36.33,187.4,34,182.1,31.9Z" style="fill:#fff"/><path d="M164.63,7.51a88.36,88.36,0,0,1,9.61,8.58c3.41,3.62,6.89,8.9,6.89,15.43.34.12.66.25,1,.38-.19-12.26-9.87-19.68-15.28-23.85s-5.28-8-5.28-8c-5.09,6.71-4,16.36-5,21.06a27.72,27.72,0,0,0-.53,4.51l1.07.28C157.4,19.88,158.92,12,164.63,7.51Z" style="fill:#fff"/><path d="M157,26.74c0-.29,0-.59.05-.89L156,25.57c0,.29,0,.58,0,.88Z" style="fill:#fff"/><path d="M163.12,48.77l-1.19-.07a30.54,30.54,0,0,1-5.35-.69,2.13,2.13,0,0,1-1.49-1.67A6.12,6.12,0,0,1,154,44.4c0,.46-.06.71-.06.71l-.27.31c3.09,5,7.92,3.26,12.56,3.67A13.57,13.57,0,0,0,173,47.35,34.48,34.48,0,0,1,163.12,48.77Z" style="fill:#fff"/><path d="M181.11,32.3c.35.12.68.25,1,.37,0-.16,0-.32,0-.48a2.71,2.71,0,0,0,0-.29c-.31-.13-.63-.26-1-.38C181.13,31.77,181.12,32,181.11,32.3Z" style="fill:#fff"/><path d="M155.15,42.47A68.47,68.47,0,0,0,156.94,28c0-.42,0-.85,0-1.29l-1.06-.29c-.12,3.41,0,7-.72,10.34-.78,3.72-1.11,6.41-1.24,7.61a6.12,6.12,0,0,0,1.13,1.94A7.94,7.94,0,0,1,155.15,42.47Z" style="fill:#fff"/><path d="M180.37,36.84c-2.18,7.61-9,12.2-18.44,11.86l1.19.07A34.48,34.48,0,0,0,173,47.35a16.49,16.49,0,0,0,9.1-14.68c-.31-.12-.64-.25-1-.37A19.34,19.34,0,0,1,180.37,36.84Z" style="fill:#fff"/><path d="M155.09,46.34A2.13,2.13,0,0,0,156.58,48a30.54,30.54,0,0,0,5.35.69C158.61,48.46,156.43,47.86,155.09,46.34Z" style="fill:#fff"/><path d="M177.86,31.31c1.2.31,2.28.64,3.25,1,0-.27,0-.53,0-.78a82.16,82.16,0,0,0-13-3.38c-5.25-1-8.72-1.69-11.12-2.29,0,.3,0,.6-.05.89,2.39.62,5.31,1.2,8.82,1.77C169.93,29.19,173.8,30.28,177.86,31.31Z" style="fill:#fff"/><path d="M192.67,16.71h4.52c3,0,4.87,1.41,4.87,4.15s-1.94,4.27-4.85,4.27h-2.84l0,5.15a.13.13,0,0,1-.14.13h-1.6a.13.13,0,0,1-.14-.13l.06-6.89-.06-6.54A.14.14,0,0,1,192.67,16.71Zm1.68,7.05h3c1.77,0,2.94-.79,2.94-2.86,0-1.92-1.1-2.82-3-2.82h-2.86l0,5.32Z" style="fill:#fff"/><path d="M204.59,30.28a.13.13,0,0,1-.14.13h-1.52a.13.13,0,0,1-.14-.13l.06-5-.06-4.79a.14.14,0,0,1,.14-.14h1.52a.14.14,0,0,1,.14.14l-.08,1.74a3.86,3.86,0,0,1,3.43-2,2.16,2.16,0,0,1,.64.08c.08,0,.12.06.12.14v1.1c0,.09-.06.13-.16.11a4.6,4.6,0,0,0-.56,0,3.27,3.27,0,0,0-3.41,3.29Z" style="fill:#fff"/><path d="M215.81,27c0-.08.06-.12.13-.12h1.45c.08,0,.16.06.14.14a4.1,4.1,0,0,1-4.42,3.6c-3.14,0-4.82-2.17-4.82-5.25s1.78-5.3,4.72-5.3,4.66,2,4.7,5.36a.14.14,0,0,1-.14.14h-7.48c.06,2.48,1.06,3.8,3,3.8A2.56,2.56,0,0,0,215.81,27Zm-5.66-2.65h5.62c-.06-1.66-1-3.05-2.74-3.05S210.38,22.45,210.15,24.38Z" style="fill:#fff"/><path d="M232.7,30.28a.13.13,0,0,1-.13.13H231a.13.13,0,0,1-.14-.13l0-3.84V24.17c0-1.94-.76-2.72-1.94-2.72s-1.95,1-2.38,2.62v2.37l0,3.84a.13.13,0,0,1-.13.13h-1.57a.13.13,0,0,1-.14-.13l0-3.84V24.17c0-1.94-.74-2.72-1.91-2.72s-2.12,1.13-2.49,3v2l0,3.84a.13.13,0,0,1-.14.13h-1.58a.13.13,0,0,1-.14-.13l.06-3.84,0-6a.13.13,0,0,1,.13-.14h1.49a.14.14,0,0,1,.14.14l-.06,1.62a3.53,3.53,0,0,1,3.11-2,2.79,2.79,0,0,1,2.92,2.11,3.49,3.49,0,0,1,3.17-2.11c2,0,3.15,1.25,3.15,4v2.33Z" style="fill:#fff"/><path d="M235.76,30.28a.13.13,0,0,1-.14.13h-1.56a.13.13,0,0,1-.14-.13l0-5.07,0-4.74a.14.14,0,0,1,.14-.14h1.56a.14.14,0,0,1,.14.14l0,4.74Zm0-12.83v1.63a.14.14,0,0,1-.14.14h-1.54a.14.14,0,0,1-.14-.14V17.45a.13.13,0,0,1,.14-.13h1.54A.13.13,0,0,1,235.76,17.45Z" style="fill:#fff"/><path d="M236.74,25.4c0-3.19,1.74-5.3,4.79-5.3s4.78,2.09,4.78,5.26-1.7,5.29-4.78,5.29S236.74,28.57,236.74,25.4Zm7.73,0c0-2.54-1-4-2.94-4s-2.95,1.51-2.95,4,1,4,2.95,4S244.47,28,244.47,25.4Z" style="fill:#fff"/><path d="M246.78,27.05a.13.13,0,0,1,.14-.14h1.47a.13.13,0,0,1,.14.14c.05,1.66,1,2.4,2.81,2.4,1.49,0,2.47-.64,2.47-1.8,0-2.72-6.79-.55-6.79-4.6,0-1.92,1.6-2.93,4-2.93s4.07,1,4.19,3.11a.14.14,0,0,1-.14.14h-1.39a.12.12,0,0,1-.13-.14c-.12-1.33-1.08-2-2.55-2s-2.27.53-2.27,1.68c0,2.55,6.81.36,6.81,4.59,0,1.95-1.84,3.09-4.26,3.09C248.56,30.63,246.84,29.43,246.78,27.05Z" style="fill:#fff"/><path d="M194.75,49.72a.18.18,0,0,1-.17.17h-1.74a.17.17,0,0,1-.16-.17l.07-8-.05-8.33a.17.17,0,0,1,.17-.17h2.68a.18.18,0,0,1,.19.15l5.31,13.7,5.19-13.7a.18.18,0,0,1,.19-.15H209a.17.17,0,0,1,.16.17l0,8.33.07,8a.17.17,0,0,1-.17.17h-1.9a.17.17,0,0,1-.17-.17l0-7.35.07-6.16-5.14,13.53a.19.19,0,0,1-.19.15h-1.5a.18.18,0,0,1-.19-.15L194.63,36l.09,6.35Z" style="fill:#fff"/><path d="M210.37,41.58c0-5.32,3.14-8.65,8-8.65s8,3.3,8,8.65-3.19,8.62-8,8.62S210.37,46.77,210.37,41.58Zm13.64,0c0-4.28-2.12-6.92-5.69-6.92s-5.64,2.62-5.64,6.92,2.14,6.88,5.66,6.88S224,45.87,224,41.58Z" style="fill:#fff"/><path d="M229.67,49.72a.17.17,0,0,1-.17.17h-1.78a.17.17,0,0,1-.17-.17l.07-8.3-.05-8a.17.17,0,0,1,.17-.17h2.31a.21.21,0,0,1,.19.12l8.7,13.56,0-5.56,0-8a.17.17,0,0,1,.17-.17h1.78a.17.17,0,0,1,.17.17l-.07,8,.07,8.3a.17.17,0,0,1-.17.17H238.4a.2.2,0,0,1-.19-.12l-8.61-13.4,0,5.55Z" style="fill:#fff"/><path d="M250.58,33.38l5.8,16.32c.05.09,0,.19-.14.19h-2a.21.21,0,0,1-.19-.15l-1.69-4.9H245.6L244,49.74a.18.18,0,0,1-.19.15h-1.9c-.12,0-.19-.1-.14-.19l5.85-16.32a.18.18,0,0,1,.19-.15h2.62A.23.23,0,0,1,250.58,33.38ZM249,34.8l-2.78,8.26h5.61Z" style="fill:#fff"/><path d="M269.58,49.7c.08.09,0,.19-.12.19h-2.21a.24.24,0,0,1-.21-.12l-1.62-2.67L262.83,43h-3.5l.05,6.68a.17.17,0,0,1-.17.17h-1.93a.17.17,0,0,1-.16-.17l.07-8.42-.07-7.9a.17.17,0,0,1,.16-.17h5.88c3.78,0,6.11,1.65,6.11,4.88a4.55,4.55,0,0,1-4.06,4.73Zm-10.2-14.8-.05,6.47h4.07c2.19,0,3.69-.95,3.69-3.24s-1.38-3.23-3.74-3.23Z" style="fill:#fff"/><path d="M270,41.54c0-5.26,3-8.61,7.78-8.61,3.33,0,6.18,1.52,7,5.85a.16.16,0,0,1-.17.19h-1.88c-.09,0-.14,0-.17-.15a4.52,4.52,0,0,0-4.8-4.16c-3.47,0-5.42,2.71-5.42,6.88,0,4.56,2,6.92,5.42,6.92,2.76,0,4.57-1.57,4.9-4.5a.18.18,0,0,1,.19-.16h1.88a.17.17,0,0,1,.17.21c-.65,4.21-3.31,6.19-7.09,6.19C272.89,50.2,270,46.94,270,41.54Z" style="fill:#fff"/><path d="M293.21,33.38,299,49.7c.05.09,0,.19-.14.19h-1.95a.21.21,0,0,1-.19-.15L295,44.84h-6.81l-1.64,4.9a.18.18,0,0,1-.19.15h-1.9c-.12,0-.19-.1-.14-.19l5.85-16.32a.18.18,0,0,1,.19-.15H293A.23.23,0,0,1,293.21,33.38Zm-1.6,1.42-2.78,8.26h5.61Z" style="fill:#fff"/><path d="M217.74,8.22a.07.07,0,0,1-.08.08h-.89a.07.07,0,0,1-.07-.08V1.67a4.42,4.42,0,0,1-1.57.89c-.06,0-.09,0-.09-.07V1.84a.08.08,0,0,1,.07-.09A3.66,3.66,0,0,0,216.72.56a.09.09,0,0,1,.09-.05h.85a.07.07,0,0,1,.08.08V8.22Z" style="fill:#fff"/><path d="M218.6,4.45c0-2.6,1.1-4.08,2.87-4.08a2,2,0,0,1,2.23,1.92.06.06,0,0,1-.06.08h-.87a.08.08,0,0,1-.09-.08,1.21,1.21,0,0,0-1.28-1.17c-1.09,0-1.72,1.14-1.74,3a2.09,2.09,0,0,1,1.91-1A2.31,2.31,0,0,1,224,5.61a2.66,2.66,0,0,1-2.61,2.83C219.63,8.44,218.6,7.16,218.6,4.45Zm4.3,1.27c0-1.13-.53-1.86-1.53-1.86a1.59,1.59,0,0,0-1.63,1.81c0,1.13.58,2,1.58,2S222.9,6.92,222.9,5.72Z" style="fill:#fff"/><path d="M226,4.6h-.63s0,0,0,0l-1.2-3.25s0-.05,0-.05h.55a.09.09,0,0,1,.05,0l.95,2.79,1-2.79a.09.09,0,0,1,0,0h.48s.06,0,0,.05L226.1,4.56A.05.05,0,0,1,226,4.6Z" style="fill:#fff"/><path d="M229.62,1.3a0,0,0,0,1,0,0h.51a0,0,0,0,1,0,0V4.55a0,0,0,0,1,0,0h-.5a0,0,0,0,1,0,0l0-.49a1.21,1.21,0,0,1-1.07.6c-.91,0-1.39-.76-1.39-1.72s.52-1.75,1.4-1.75a1.15,1.15,0,0,1,1,.57Zm0,1.65c0-.85-.33-1.34-.92-1.35s-.94.53-.94,1.29.3,1.36.92,1.36S229.64,3.81,229.65,3Z" style="fill:#fff"/><path d="M237.64,7.59v.63a.07.07,0,0,1-.08.08h-4.84a.07.07,0,0,1-.07-.08l0-4,0-3.68a.07.07,0,0,1,.07-.08h4.75a.07.07,0,0,1,.08.08v.63a.07.07,0,0,1-.08.08H233.7l0,2.45h3.53a.08.08,0,0,1,.08.08v.63a.08.08,0,0,1-.08.08h-3.53l0,3h3.86A.07.07,0,0,1,237.64,7.59Z" style="fill:#fff"/><path d="M242,.59a.07.07,0,0,1,.08-.08H243a.07.07,0,0,1,.07.08l0,3.35,0,4.28a.07.07,0,0,1-.07.08h-.87a.07.07,0,0,1-.08-.08l0-.82a2,2,0,0,1-1.82,1c-1.55,0-2.37-1.29-2.37-3s.88-3,2.39-3a2,2,0,0,1,1.79,1Zm.06,4.89c0-1.46-.57-2.33-1.58-2.33s-1.62.92-1.62,2.22.51,2.35,1.59,2.34S242,7,242.06,5.48Z" style="fill:#fff"/><path d="M244.8,8.22a.07.07,0,0,1-.08.08h-.89a.08.08,0,0,1-.08-.08l0-2.88,0-2.69a.08.08,0,0,1,.08-.08h.89a.07.07,0,0,1,.08.08l0,2.69Zm0-7.29v.93a.08.08,0,0,1-.08.08h-.88a.08.08,0,0,1-.07-.08V.93a.07.07,0,0,1,.07-.07h.88A.07.07,0,0,1,244.8.93Z" style="fill:#fff"/><path d="M245.36,5.45c0-1.8,1-3,2.7-3a2.2,2.2,0,0,1,2.41,2,.06.06,0,0,1-.06.08h-.79a.08.08,0,0,1-.09-.08,1.43,1.43,0,0,0-1.47-1.32c-1.12,0-1.66.85-1.66,2.29s.54,2.28,1.66,2.28a1.46,1.46,0,0,0,1.53-1.49.07.07,0,0,1,.08-.08h.8c.05,0,.08,0,.08.07A2.34,2.34,0,0,1,248,8.43C246.32,8.43,245.36,7.25,245.36,5.45Z" style="fill:#fff"/><path d="M252.09,8.22a.07.07,0,0,1-.07.08h-.89a.07.07,0,0,1-.08-.08l0-2.88,0-2.69a.07.07,0,0,1,.08-.08H252a.07.07,0,0,1,.07.08l0,2.69Zm0-7.29v.93a.08.08,0,0,1-.07.08h-.88a.08.08,0,0,1-.08-.08V.93a.07.07,0,0,1,.08-.07H252A.07.07,0,0,1,252.09.93Z" style="fill:#fff"/><path d="M252.65,5.45c0-1.81,1-3,2.72-3s2.72,1.19,2.72,3-1,3-2.72,3S252.65,7.25,252.65,5.45Zm4.39,0c0-1.45-.55-2.3-1.67-2.3s-1.68.85-1.68,2.3.56,2.27,1.68,2.27S257,6.9,257,5.45Zm-.28-5,.24.62a.08.08,0,0,1-.06.1l-2.5.89c-.06,0-.08,0-.1,0l-.14-.36c0-.06,0-.08,0-.1L256.66.41A.07.07,0,0,1,256.76.46Z" style="fill:#fff"/><path d="M259.64,8.22a.07.07,0,0,1-.07.08h-.89a.07.07,0,0,1-.08-.08l0-2.52,0-3.05a.07.07,0,0,1,.08-.08h.84a.07.07,0,0,1,.08.08l0,.92a2.21,2.21,0,0,1,1.91-1.13c1.18,0,1.92.77,1.92,2.28V5.85l0,2.37a.08.08,0,0,1-.08.08h-.88a.07.07,0,0,1-.08-.08l0-2.37V4.75c0-1.07-.49-1.55-1.2-1.55s-1.36.62-1.58,1.73V8.22Z" style="fill:#fff"/></g></g></svg>