<svg xmlns="http://www.w3.org/2000/svg" viewBox="0 0 236.52 55.25"><defs><style>.cls-1{fill:#fff;}</style></defs><g id="Layer_2" data-name="Layer 2"><g id="Layer_3" data-name="Layer 3"><path class="cls-1" d="M43,35v.84c7.2,2.93,7.95,6.9,5.45,9.26-1.9,1.8-8.54,4.87-15.37,6.73a14.67,14.67,0,0,1-7.42,1.89c-5.06-.44-10.32,1.51-13.68-4l.29-.34s0-.27.07-.77c-.7-1.91-.91-4.58-.81-8.29C11.79,29.79,8.61,26.5,8.61,26.5a18.22,18.22,0,0,0,5.86,2.59c0-.32,0-.64,0-1-4.4-1.23-4.9-2.26-7.27-5-3.78-4.33,0-12.27,0-12.27C-2.35,12.8-1.47,20.91,4.39,24s6.08,11.18,6,20.44,7.23,11.83,20.38,8.71S51,46.61,50.85,42.44C50.79,39.86,48.76,37.36,43,35Z"/><path class="cls-1" d="M24,8.46a97,97,0,0,1,10.47,9.35c3.71,4,7.5,9.7,7.5,16.8L43,35c-.22-13.35-10.76-21.44-16.65-26S20.59.28,20.59.28C15,7.59,16.21,18.11,15.09,23.22a29.21,29.21,0,0,0-.58,4.91l1.16.31C16.07,21.94,17.73,13.34,24,8.46Z"/><path class="cls-1" d="M15.62,29.41c0-.32,0-.64.05-1l-1.16-.31c0,.32,0,.64,0,1Z"/><path class="cls-1" d="M22.31,53.4,21,53.33a33.39,33.39,0,0,1-5.83-.75,2.32,2.32,0,0,1-1.62-1.82,6.31,6.31,0,0,1-1.23-2.11c-.05.5-.07.77-.07.77l-.29.34c3.36,5.5,8.62,3.55,13.68,4a14.67,14.67,0,0,0,7.42-1.89A37.32,37.32,0,0,1,22.31,53.4Z"/><path class="cls-1" d="M41.91,35.46l1.08.41V35l-1.07-.42C41.92,34.89,41.92,35.18,41.91,35.46Z"/><path class="cls-1" d="M13.63,46.54a74.54,74.54,0,0,0,1.94-15.72c0-.46,0-.93,0-1.41l-1.15-.32c-.14,3.72,0,7.67-.79,11.27-.85,4-1.21,7-1.35,8.29a6.31,6.31,0,0,0,1.23,2.11A8.63,8.63,0,0,1,13.63,46.54Z"/><path class="cls-1" d="M41.09,40.41C38.72,48.7,31.25,53.7,21,53.33l1.3.07a37.32,37.32,0,0,0,10.76-1.54,18,18,0,0,0,9.92-16l-1.08-.41A21.32,21.32,0,0,1,41.09,40.41Z"/><path class="cls-1" d="M13.56,50.76a2.32,2.32,0,0,0,1.62,1.82,33.39,33.39,0,0,0,5.83.75C17.39,53.07,15,52.41,13.56,50.76Z"/><path class="cls-1" d="M38.36,34.39c1.31.33,2.49.69,3.55,1.07,0-.28,0-.57,0-.85a89.12,89.12,0,0,0-14.13-3.67c-5.73-1.1-9.5-1.85-12.12-2.5,0,.33,0,.65-.05,1,2.6.68,5.79,1.3,9.6,1.93C29.72,32.08,33.94,33.27,38.36,34.39Z"/><path class="cls-1" d="M61,0h7.46c4.94,0,8,2.33,8,6.85,0,4.71-3.2,7-8,7H63.84l.06,8.5a.22.22,0,0,1-.22.22H61a.22.22,0,0,1-.23-.22L60.9,11,60.8.23A.23.23,0,0,1,61,0Zm2.78,11.63h4.91c2.9,0,4.84-1.29,4.84-4.72,0-3.16-1.81-4.65-5-4.65H63.87l-.06,8.79Z"/><path class="cls-1" d="M80.7,22.39a.22.22,0,0,1-.22.22H78a.22.22,0,0,1-.23-.22l.1-8.27-.1-7.92A.22.22,0,0,1,78,6h2.52a.22.22,0,0,1,.22.22l-.13,2.88a6.36,6.36,0,0,1,5.66-3.27,4,4,0,0,1,1.06.13c.13,0,.19.1.19.23V8c0,.16-.09.22-.25.19a8.75,8.75,0,0,0-.94-.06c-2.84,0-5.33,1.71-5.62,5.42Z"/><path class="cls-1" d="M99.21,17a.21.21,0,0,1,.23-.19h2.39c.13,0,.26.1.22.23-.51,3.45-3,5.94-7.3,5.94-5.16,0-7.94-3.59-7.94-8.66s2.94-8.75,7.78-8.75,7.69,3.33,7.76,8.85a.23.23,0,0,1-.23.23H89.78c.1,4.1,1.74,6.26,5,6.26C97.27,20.93,98.76,19.54,99.21,17Zm-9.33-4.36h9.27c-.1-2.74-1.59-5-4.53-5C91.88,7.62,90.26,9.46,89.88,12.66Z"/><path class="cls-1" d="M127.09,22.39a.22.22,0,0,1-.23.22h-2.55a.22.22,0,0,1-.22-.22l.06-6.34V12.31c0-3.2-1.26-4.49-3.2-4.49-1.77,0-3.23,1.61-3.94,4.33v3.9l.07,6.34a.22.22,0,0,1-.23.22h-2.58a.22.22,0,0,1-.23-.22l.06-6.34V12.31c0-3.2-1.22-4.49-3.16-4.49s-3.49,1.87-4.1,5v3.23l.06,6.34a.22.22,0,0,1-.22.22h-2.62a.22.22,0,0,1-.23-.22l.1-6.34-.07-9.85a.22.22,0,0,1,.23-.22h2.46a.21.21,0,0,1,.22.22l-.09,2.68a5.78,5.78,0,0,1,5.13-3.29,4.6,4.6,0,0,1,4.81,3.49c1.17-2.2,2.88-3.49,5.24-3.49,3.26,0,5.2,2.07,5.2,6.62v3.84Z"/><path class="cls-1" d="M132.13,22.39a.22.22,0,0,1-.22.22h-2.59a.22.22,0,0,1-.22-.22l.06-8.37L129.1,6.2a.21.21,0,0,1,.22-.22h2.59a.21.21,0,0,1,.22.22L132.07,14Zm0-21.16V3.91a.21.21,0,0,1-.22.22h-2.56a.22.22,0,0,1-.22-.22V1.23a.22.22,0,0,1,.22-.23h2.56A.22.22,0,0,1,132.13,1.23Z"/><path class="cls-1" d="M133.75,14.34c0-5.26,2.87-8.75,7.91-8.75s7.88,3.46,7.88,8.69S146.73,23,141.66,23,133.75,19.57,133.75,14.34Zm12.76,0c0-4.2-1.62-6.68-4.85-6.68s-4.88,2.48-4.88,6.68,1.62,6.59,4.88,6.59S146.51,18.54,146.51,14.34Z"/><path class="cls-1" d="M150.32,17.06a.21.21,0,0,1,.23-.23H153a.21.21,0,0,1,.23.23c.09,2.74,1.68,4,4.65,4,2.45,0,4.07-1.07,4.07-3,0-4.49-11.21-.91-11.21-7.59,0-3.17,2.65-4.85,6.59-4.85s6.72,1.65,6.91,5.14A.22.22,0,0,1,164,11h-2.29a.2.2,0,0,1-.22-.22c-.2-2.2-1.78-3.23-4.2-3.23s-3.75.87-3.75,2.77c0,4.2,11.24.59,11.24,7.56,0,3.23-3,5.11-7,5.11C153.26,23,150.42,21,150.32,17.06Z"/><path class="cls-1" d="M64.46,54.47a.27.27,0,0,1-.28.27H61.32a.27.27,0,0,1-.28-.27l.12-13.19-.08-13.74a.27.27,0,0,1,.28-.27h4.43a.3.3,0,0,1,.32.23l8.75,22.61L83.42,27.5a.29.29,0,0,1,.31-.23h4.16a.27.27,0,0,1,.28.27l-.08,13.74.12,13.19a.27.27,0,0,1-.28.27H84.79a.26.26,0,0,1-.27-.27l0-12.13.11-10.17L76.2,54.51a.31.31,0,0,1-.32.23H73.41a.31.31,0,0,1-.32-.23L64.26,31.86l.16,10.48Z"/><path class="cls-1" d="M90.25,41c0-8.79,5.18-14.28,13.15-14.28S116.55,32.21,116.55,41c0,8.6-5.26,14.21-13.19,14.21S90.25,49.6,90.25,41Zm22.49,0c0-7.06-3.5-11.42-9.38-11.42S94.05,33.94,94.05,41s3.54,11.35,9.35,11.35S112.74,48.11,112.74,41Z"/><path class="cls-1" d="M122.08,54.47a.27.27,0,0,1-.28.27h-2.94a.26.26,0,0,1-.27-.27l.11-13.7-.07-13.23a.26.26,0,0,1,.27-.27h3.81a.32.32,0,0,1,.31.19l14.37,22.37-.08-9.18,0-13.11a.26.26,0,0,1,.27-.27h3a.26.26,0,0,1,.27.27l-.12,13.23.12,13.7a.27.27,0,0,1-.27.27h-4a.33.33,0,0,1-.31-.2L122,32.45l.08,9.14Z"/><path class="cls-1" d="M156.58,27.5l9.58,26.93c.08.15,0,.31-.24.31H162.7a.35.35,0,0,1-.31-.23l-2.79-8.09H148.38l-2.71,8.09a.31.31,0,0,1-.32.23h-3.14c-.19,0-.31-.16-.23-.31l9.65-26.93a.3.3,0,0,1,.32-.23h4.32A.34.34,0,0,1,156.58,27.5ZM154,29.86l-4.59,13.62h9.26Z"/><path class="cls-1" d="M187.94,54.43c.12.15,0,.31-.2.31h-3.65a.38.38,0,0,1-.35-.2l-2.67-4.39-4.28-6.71H171l.08,11a.27.27,0,0,1-.27.27h-3.18a.27.27,0,0,1-.28-.27l.12-13.9-.12-13a.27.27,0,0,1,.28-.27h9.69c6.24,0,10.09,2.7,10.09,8,0,4.36-2.59,7-6.71,7.81ZM171.1,30,171,40.69h6.72c3.61,0,6.08-1.57,6.08-5.34,0-3.53-2.28-5.34-6.16-5.34Z"/><path class="cls-1" d="M188.61,41c0-8.67,4.9-14.2,12.83-14.2,5.5,0,10.21,2.51,11.5,9.65a.25.25,0,0,1-.27.31h-3.1a.26.26,0,0,1-.28-.23c-.82-4.75-3.84-6.87-7.92-6.87-5.74,0-9,4.48-9,11.34,0,7.54,3.37,11.43,9,11.43,4.55,0,7.53-2.59,8.08-7.42a.3.3,0,0,1,.32-.28h3.1a.28.28,0,0,1,.27.36c-1.06,6.94-5.46,10.2-11.7,10.2C193.4,55.25,188.61,49.87,188.61,41Z"/><path class="cls-1" d="M226.92,27.5l9.57,26.93c.08.15,0,.31-.23.31H233a.34.34,0,0,1-.31-.23l-2.79-8.09H218.71L216,54.51a.31.31,0,0,1-.32.23h-3.14c-.19,0-.31-.16-.23-.31L222,27.5a.3.3,0,0,1,.32-.23h4.31A.34.34,0,0,1,226.92,27.5Zm-2.63,2.36-4.6,13.62H229Z"/></g></g></svg>