<svg xmlns="http://www.w3.org/2000/svg" viewBox="0 0 154.75 55.75"><title>Asset 6</title><g id="Layer_2" data-name="Layer 2"><g id="Layer_3" data-name="Layer 3"><rect x="77.45" y="13.33" width="5.6" height="5.6" style="fill:#fff"/><path d="M82.91,42.49V22.33H77.6V42.49Zm35.2.2V37.75a13.65,13.65,0,0,1-1.92-.13,2.17,2.17,0,0,1-1.25-.55,2.1,2.1,0,0,1-.55-1.2,11.55,11.55,0,0,1-.13-1.95v-7h3.85V22.33h-3.85V14.47H109V34a17.49,17.49,0,0,0,.43,4.16,5.75,5.75,0,0,0,1.41,2.67,5.65,5.65,0,0,0,2.6,1.45,15.35,15.35,0,0,0,4,.45Zm30.43-.2V12.92h-5.31V42.49ZM103.83,24.31a8,8,0,0,0-6.17-2.39,7.9,7.9,0,0,0-3.49.77,7.66,7.66,0,0,0-2.64,2.15l-.29.38V22.33H86V42.49h5.28V32.13A6.09,6.09,0,0,1,92.69,28a4.6,4.6,0,0,1,3.37-1.44,4.29,4.29,0,0,1,3.48,1.4,5.89,5.89,0,0,1,1.15,3.86h0v0h0V42.49h5.36V31A9.55,9.55,0,0,0,103.83,24.31Zm36.64,8.05a10.8,10.8,0,0,0-.77-4.07A10.45,10.45,0,0,0,137.56,25a9.81,9.81,0,0,0-3.28-2.24,10.9,10.9,0,0,0-4.22-.8,10.37,10.37,0,0,0-4.09.82,10.45,10.45,0,0,0-5.57,5.57,10.25,10.25,0,0,0-.83,4.1,10.76,10.76,0,0,0,.79,4.09,10,10,0,0,0,5.54,5.57,11.15,11.15,0,0,0,4.32.82,11.43,11.43,0,0,0,9-4L135.37,36a7.05,7.05,0,0,1-5.11,2.25,6.1,6.1,0,0,1-3.66-1,5.16,5.16,0,0,1-1.92-2.8l-.05-.19h15.84Zm-15.8-1.84c0-1.48,1.7-4.06,5.35-4.06s5.35,2.57,5.35,4.05Z" style="fill:#fff"/><path d="M154.59,39.94a2,2,0,0,0-1-1,1.83,1.83,0,0,0-.77-.16,2,2,0,0,0-1.38.58,2.22,2.22,0,0,0-.43.62,2,2,0,0,0-.15.77,1.94,1.94,0,0,0,.15.76A2,2,0,0,0,152,42.52a1.94,1.94,0,0,0,.76.15,2,2,0,0,0,.77-.15,2.42,2.42,0,0,0,.62-.42,1.93,1.93,0,0,0,.42-.63,1.79,1.79,0,0,0,.16-.76A1.83,1.83,0,0,0,154.59,39.94Zm-.32,1.4a1.63,1.63,0,0,1-.34.51,1.61,1.61,0,0,1-1.78.35,1.69,1.69,0,0,1-.86-.86,1.71,1.71,0,0,1,0-1.26,1.7,1.7,0,0,1,.35-.52,1.63,1.63,0,0,1,.51-.34,1.59,1.59,0,0,1,1.26,0,1.52,1.52,0,0,1,.86.86,1.59,1.59,0,0,1,0,1.26Zm-1.12-.47a.62.62,0,0,0,.38-.18.55.55,0,0,0,.16-.44.63.63,0,0,0-.2-.5.84.84,0,0,0-.6-.18H152v2.25h.41V40.9h.3l.56.92h.43Zm-.22-.33h-.49v-.63h.49a.47.47,0,0,1,.17,0,.32.32,0,0,1,.13.1.29.29,0,0,1,0,.17.32.32,0,0,1,0,.18.3.3,0,0,1-.13.09A.47.47,0,0,1,152.93,40.54Z" style="fill:#fff"/><g id="_Group_" data-name="&lt;Group&gt;"><path id="_Compound_Path_" data-name="&lt;Compound Path&gt;" d="M27.87,55.75h-.82l5.69-15.66h7.84a3.85,3.85,0,0,0,3.36-2.35l6.18-17c1-2.78-.58-5.05-3.54-5.05H35.7L26.58,40.78h0L21.4,55a27.88,27.88,0,0,1-1-54L15,15.7h0L6.13,40.08H12l7.55-20.72H24L16.48,40.08h5.91l7-19.33c1-2.78-.58-5.05-3.54-5.05h-5L26.62,0c.42,0,.83,0,1.25,0a27.88,27.88,0,1,1,0,55.75Zm16.87-36.4H40.3l-6.21,17h4.43Z" style="fill:#fff"/></g></g></g></svg>