<svg xmlns="http://www.w3.org/2000/svg" viewBox="0 0 413.94 656.5"><defs><style>.cls-1{fill:#dcae7e;}.cls-2{fill:#1b2645;}.cls-3{fill:#e8dfd8;}.cls-4{fill:#0096d6;}.cls-5{fill:none;}</style></defs><title>Asset 8</title><g id="Layer_2" data-name="Layer 2"><g id="Layer_4" data-name="Layer 4"><path class="cls-1" d="M266,652.18H147.9q0,.9,0,1.8t0,1.8H266q0-.9,0-1.8T266,652.18Zm131.73-440A205.59,205.59,0,0,0,211,86.48l-2.84,0h-2.38l-2.83,0A205.6,205.6,0,0,0,0,292.25V655.78H413.94V292.25A204.52,204.52,0,0,0,397.77,212.14Zm12.57,440H3.6V292.25a200.89,200.89,0,0,1,14.69-75.8c.39-1,.79-1.94,1.2-2.9.2-.48.4-1,.61-1.43a201.4,201.4,0,0,1,42.72-62.84,203.51,203.51,0,0,1,22.66-19.57c1-.73,2-1.44,3-2.15a201.88,201.88,0,0,1,77.81-33.65c1.19-.24,2.39-.46,3.59-.68A203.61,203.61,0,0,1,203,90.08l2.83,0h2.38l2.84,0a203.59,203.59,0,0,1,33.11,3.15c1.2.22,2.4.44,3.59.68a201.88,201.88,0,0,1,77.81,33.65c1,.71,2,1.42,2.95,2.15a203.51,203.51,0,0,1,22.66,19.57,201.23,201.23,0,0,1,42.72,62.84c.21.47.41.95.61,1.43.41,1,.81,1.93,1.2,2.9a200.85,200.85,0,0,1,14.69,75.8Zm-144.3,0H147.9q0,.9,0,1.8t0,1.8H266q0-.9,0-1.8T266,652.18Zm0,0H147.9q0,.9,0,1.8t0,1.8H266q0-.9,0-1.8T266,652.18Z"/><path class="cls-2" d="M393.84,212.12l-13,25.19q-1.85-5.28-4-10.46a187.32,187.32,0,0,0-58.93-76.55l10.59-20.59a203.51,203.51,0,0,1,22.66,19.57A201.23,201.23,0,0,1,393.84,212.12Z"/><path class="cls-3" d="M410.34,292.25V365l-19.07,24.74V299.57a188.67,188.67,0,0,0-8.88-57.5l13.26-25.62A200.85,200.85,0,0,1,410.34,292.25Z"/><polygon class="cls-2" points="410.34 370.92 410.34 457.64 391.26 465.3 391.26 395.65 410.34 370.92"/><polygon class="cls-2" points="410.34 461.53 410.34 496.96 391.26 516.04 391.26 469.19 410.34 461.53"/><path class="cls-2" d="M410.34,502.05V652.18h-18q-.09-9.23-1.06-18.31V521.13Z"/><path class="cls-3" d="M22.68,521.13V633.87q-1,9.07-1.07,18.31H3.6V502.05Z"/><polygon class="cls-2" points="22.68 469.19 22.68 516.04 3.6 496.96 3.6 461.53 22.68 469.19"/><polygon class="cls-4" points="22.68 395.65 22.68 465.3 3.6 457.64 3.6 370.92 22.68 395.65"/><path class="cls-2" d="M31.55,242.07a188.67,188.67,0,0,0-8.87,57.5v90.19L3.6,365V292.25a200.89,200.89,0,0,1,14.69-75.8Z"/><path class="cls-4" d="M96.07,150.3a187.23,187.23,0,0,0-58.92,76.55q-2.16,5.19-4,10.46l-13-25.19a201.4,201.4,0,0,1,42.72-62.84,203.51,203.51,0,0,1,22.66-19.57Z"/><path class="cls-2" d="M174.34,115.61a180.84,180.84,0,0,0-39.11,11.78A182.92,182.92,0,0,0,99,148.1L88.43,127.56a201.88,201.88,0,0,1,77.81-33.65Z"/><path class="cls-4" d="M325.51,127.56,315,148.1a182.92,182.92,0,0,0-36.24-20.71,180.84,180.84,0,0,0-39.11-11.78l8.1-21.7a201.88,201.88,0,0,1,77.81,33.65Z"/><path class="cls-3" d="M244.11,93.23,236,115a182,182,0,0,0-25-2.25V90.08A203.59,203.59,0,0,1,244.11,93.23Z"/><path class="cls-4" d="M203,90.08v22.67A182,182,0,0,0,178,115l-8.12-21.77A203.61,203.61,0,0,1,203,90.08Z"/><path class="cls-1" d="M282.61,652.18c0-.24,0-.48,0-.72H131.36c0,.24,0,.48,0,.72H147.9q0,.9,0,1.8t0,1.8H266q0-.9,0-1.8t0-1.8Zm99.78-410.11q-.76-2.38-1.59-4.76h0q-1.85-5.28-4-10.46a187.32,187.32,0,0,0-58.93-76.55c-1-.75-1.94-1.48-2.92-2.2a182.92,182.92,0,0,0-36.24-20.71,180.84,180.84,0,0,0-39.11-11.78c-1.2-.22-2.4-.42-3.61-.61a182,182,0,0,0-25-2.25c-1.34,0-2.69,0-4,0s-2.68,0-4,0A182,182,0,0,0,178,115c-1.21.19-2.41.39-3.61.61a180.84,180.84,0,0,0-39.11,11.78A182.92,182.92,0,0,0,99,148.1c-1,.72-1.95,1.45-2.92,2.2a187.23,187.23,0,0,0-58.92,76.55q-2.16,5.19-4,10.46h0q-.82,2.37-1.59,4.76a188.67,188.67,0,0,0-8.87,57.5V656.5H391.27V299.57A188.67,188.67,0,0,0,382.39,242.07Zm3.84,409.39H27.72V299.57a183.72,183.72,0,0,1,7.16-51.09q.7-2.47,1.49-4.93h0q2.39-7.47,5.43-14.75a182.48,182.48,0,0,1,56.61-73.94c1-.75,1.94-1.48,2.92-2.2a177.34,177.34,0,0,1,74.8-32.24h0c1.2-.21,2.41-.41,3.62-.59a177,177,0,0,1,23.2-2c1.34,0,2.68,0,4,0s2.69,0,4,0a176.81,176.81,0,0,1,23.19,2c1.21.18,2.42.38,3.62.59h0A175.54,175.54,0,0,1,276.73,132a177.52,177.52,0,0,1,35.89,20.63c1,.72,1.95,1.45,2.91,2.2a182.48,182.48,0,0,1,56.61,73.94q3,7.28,5.43,14.75h0q.78,2.46,1.5,4.93a183.72,183.72,0,0,1,7.16,51.09Zm-103.62.72c0-.24,0-.48,0-.72H131.36c0,.24,0,.48,0,.72H147.9q0,.9,0,1.8t0,1.8H266q0-.9,0-1.8t0-1.8Zm0,0c0-.24,0-.48,0-.72H131.36c0,.24,0,.48,0,.72H147.9q0,.9,0,1.8t0,1.8H266q0-.9,0-1.8t0-1.8Z"/><path class="cls-3" d="M301.25,606.05l-20.17,20.17A77.44,77.44,0,0,0,268.9,605.1l10.74-27.34A104.2,104.2,0,0,1,301.25,606.05Z"/><path class="cls-4" d="M304.78,503.91l-14.55,37-32.61,83a58,58,0,0,0-17.08-17.82l28.36-121c2.52,1,5,2,7.53,3.07a180.12,180.12,0,0,1,27.41,14.85l-1.32,1.71Z"/><path class="cls-3" d="M354.28,553l-25.45,25.45A142.93,142.93,0,0,0,294.08,541l13.8-35.12A182,182,0,0,1,354.28,553Z"/><path class="cls-4" d="M386.23,471.21v49.87l-26.77,26.76A189.69,189.69,0,0,0,313,500.63Z"/><path class="cls-3" d="M295.69,355.09,267.14,476.87a185.52,185.52,0,0,0-38.62-9.2l9.23-112.58Z"/><path class="cls-4" d="M377.57,243.54h0L321.69,351.49H300.23l29.85-127.37H279.92l35.61-69.27a182.48,182.48,0,0,1,56.61,73.94Q375.19,236.07,377.57,243.54Z"/><polygon class="cls-3" points="325.54 227.72 321.03 246.97 246.62 246.97 248.2 227.72 325.54 227.72"/><path class="cls-3" d="M262.41,651.46h-13A40.94,40.94,0,0,0,211,613.16V600A54.08,54.08,0,0,1,262.41,651.46Z"/><path class="cls-3" d="M148.32,646.77c-.19,1.55-.33,3.11-.39,4.69H131.36a74,74,0,0,1,3-18.61Z"/><path class="cls-4" d="M203,616.77v34.69H168.1A37.33,37.33,0,0,1,203,616.77Z"/><path class="cls-4" d="M203,473.45v123q-1.68.08-3.33.24l-6.69-81.5-3.34-40.75Q196.22,473.69,203,473.45Z"/><path class="cls-4" d="M83.17,581.62c-1.49,2.48-2.91,5-4.24,7.58a141.22,141.22,0,0,0-15.75,62.26H28.82a180.52,180.52,0,0,1,28.81-95.38Z"/><path class="cls-4" d="M101,500.63a189.51,189.51,0,0,0-46.51,47.21L27.72,521.08V471.21Z"/><path class="cls-3" d="M99.66,489.57,27.72,396.29V299.57a183.72,183.72,0,0,1,7.16-51.09l53.32,103H45.43Z"/><polygon class="cls-4" points="167.32 246.97 92.91 246.97 88.4 227.72 165.75 227.72 167.32 246.97"/><path class="cls-3" d="M158.87,143.91l6.58,80.21H138.07l-36.74-71.47a177.34,177.34,0,0,1,74.8-32.24h0l8.77,23.5Z"/><path class="cls-4" d="M234.19,119.82l-9,24.09H211V117.79A176.81,176.81,0,0,1,234.19,119.82Z"/><rect class="cls-1" x="202.95" y="82.03" width="8.05" height="574.47"/><path class="cls-1" d="M148.49,606.57c-.66.8-1.3,1.6-1.92,2.41a74.4,74.4,0,0,0-10.91,20c-.45,1.26-.87,2.55-1.26,3.83a74,74,0,0,0-3,18.61c0,.24,0,.48,0,.72q0,.9,0,1.8t0,1.8c0,.24,0,.48,0,.72h-3.6c0-.24,0-.48,0-.72q0-.9,0-1.8t0-1.8c0-.24,0-.48,0-.72A77.26,77.26,0,0,1,131.53,630c.41-1.26.86-2.52,1.33-3.76a77.73,77.73,0,0,1,12.19-21.12c.22-.28.44-.56.67-.83Z"/><path class="cls-1" d="M286.23,654c0,.6,0,1.2,0,1.8,0,.24,0,.48,0,.72h-3.6c0-.24,0-.48,0-.72,0-.6,0-1.2,0-1.8s0-1.2,0-1.8c0-.24,0-.48,0-.72a74,74,0,0,0-3-18.61c-.38-1.28-.81-2.57-1.26-3.83a74.13,74.13,0,0,0-10.91-20c-.61-.81-1.26-1.61-1.91-2.41l2.76-2.3c.23.27.46.55.68.83a77.44,77.44,0,0,1,12.18,21.12c.48,1.25.92,2.5,1.33,3.76a77.64,77.64,0,0,1,3.78,21.48c0,.24,0,.48,0,.72C286.22,652.78,286.23,653.38,286.23,654Z"/><path class="cls-1" d="M131.17,563.36c-.64.52-1.27,1-1.9,1.58A116.23,116.23,0,0,0,88,651.46c0,.24,0,.48,0,.72,0,.6,0,1.2,0,1.8s0,1.2,0,1.8c0,.24,0,.48,0,.72h-3.6c0-.24,0-.48,0-.72,0-.6,0-1.2,0-1.8s0-1.2,0-1.8c0-.24,0-.48,0-.72a119.89,119.89,0,0,1,43.52-90.06l1-.83Z"/><path class="cls-1" d="M329.61,654c0,.6,0,1.2,0,1.8,0,.24,0,.48,0,.72H326c0-.24,0-.48,0-.72,0-.6,0-1.2,0-1.8s0-1.2,0-1.8c0-.24,0-.48,0-.72a116.27,116.27,0,0,0-41.32-86.52c-.62-.54-1.26-1.06-1.89-1.58l2.26-2.79c.35.27.68.55,1,.83a119.87,119.87,0,0,1,43.52,90.06c0,.24,0,.48,0,.72C329.61,652.78,329.61,653.38,329.61,654Z"/><path class="cls-1" d="M123.1,543.06c-.63.46-1.25.93-1.87,1.4a139,139,0,0,0-39.11,46.4,137.48,137.48,0,0,0-15.34,60.6c0,.24,0,.48,0,.72,0,.6,0,1.2,0,1.8s0,1.2,0,1.8c0,.24,0,.48,0,.72h-3.6c0-.24,0-.48,0-.72,0-.6,0-1.2,0-1.8s0-1.2,0-1.8v-.72A141.22,141.22,0,0,1,78.93,589.2c1.33-2.57,2.75-5.1,4.24-7.58.63-1,1.28-2.11,1.94-3.15A143.27,143.27,0,0,1,119.86,541l1.11-.82Z"/><path class="cls-1" d="M350.79,654c0,.6,0,1.2,0,1.8,0,.24,0,.48,0,.72h-3.6c0-.24,0-.48,0-.72,0-.6,0-1.2,0-1.8s0-1.2,0-1.8c0-.24,0-.48,0-.72a137.48,137.48,0,0,0-15.34-60.6,139.06,139.06,0,0,0-39.1-46.4l-1.88-1.4,2.13-2.9c.37.27.75.54,1.11.82a142.93,142.93,0,0,1,34.75,37.49c.66,1,1.31,2.09,1.94,3.15q2.25,3.72,4.24,7.58a141.05,141.05,0,0,1,15.75,62.26v.72C350.78,652.78,350.79,653.38,350.79,654Z"/><path class="cls-1" d="M136.69,575.61c-.81.7-1.6,1.42-2.39,2.15a104.2,104.2,0,0,0-21.61,28.29c-.58,1.12-1.15,2.26-1.69,3.4a103.65,103.65,0,0,0-10,42c0,.24,0,.48,0,.72,0,.6,0,1.2,0,1.8s0,1.2,0,1.8c0,.24,0,.48,0,.72h-7.2c0-.24,0-.48,0-.72,0-.6,0-1.2,0-1.8s0-1.2,0-1.8c0-.24,0-.48,0-.72a111.15,111.15,0,0,1,37.72-80.87l.47-.41Z"/><path class="cls-1" d="M320.2,654c0,.6,0,1.2,0,1.8,0,.24,0,.48,0,.72H313c0-.24,0-.48,0-.72,0-.6,0-1.2,0-1.8s0-1.2,0-1.8c0-.24,0-.48,0-.72a103.61,103.61,0,0,0-10-42c-.54-1.15-1.1-2.28-1.69-3.4a104.2,104.2,0,0,0-21.61-28.29c-.78-.73-1.58-1.45-2.39-2.15l4.73-5.43.47.41a111.11,111.11,0,0,1,37.72,80.87c0,.24,0,.48,0,.72C320.2,652.78,320.2,653.38,320.2,654Z"/><path class="cls-1" d="M266,652.18q0-.36,0-.72c-.06-1.58-.19-3.14-.39-4.69s-.42-2.93-.72-4.37a57.47,57.47,0,0,0-5-14.37h0c-.7-1.38-1.46-2.74-2.27-4.06a58,58,0,0,0-17.08-17.82c-1-.7-2.12-1.38-3.22-2a57.32,57.32,0,0,0-19.42-7c-1.18-.19-2.37-.35-3.57-.47s-2.22-.19-3.33-.24c-.84,0-1.69-.06-2.53-.06l-1.5,0-1.49,0c-.85,0-1.69,0-2.53.06q-1.68.08-3.33.24c-1.2.12-2.4.28-3.57.47a57.3,57.3,0,0,0-19.43,7c-1.09.63-2.17,1.31-3.22,2A58.21,58.21,0,0,0,156.32,624c-.81,1.32-1.57,2.68-2.27,4.06h0a57.26,57.26,0,0,0-5,14.36c-.29,1.44-.54,2.9-.72,4.37s-.33,3.11-.39,4.69c0,.24,0,.48,0,.72q0,.9,0,1.8t0,1.8c0,.24,0,.48,0,.72h3.6l0-.72q0-.9,0-1.8t0-1.8l0-.72A54.09,54.09,0,0,1,203,600c.84,0,1.68-.06,2.53-.06l1.44,0h.1l1.45,0c.84,0,1.69,0,2.53.06a54.08,54.08,0,0,1,51.41,51.43q0,.36,0,.72,0,.9,0,1.8t0,1.8q0,.36,0,.72H266q0-.36,0-.72,0-.9,0-1.8T266,652.18Z"/><path class="cls-1" d="M249.49,652.18c0-.24,0-.48,0-.72A40.94,40.94,0,0,0,211,613.16c-.78,0-1.57-.07-2.35-.07l-1.1,0-.58,0-.57,0-1.1,0c-.79,0-1.58,0-2.35.07a41,41,0,0,0-38.46,38.3c0,.24,0,.48,0,.72,0,.6-.05,1.2-.05,1.8s0,1.2.05,1.8c0,.24,0,.48,0,.72h3.61c0-.24,0-.48,0-.72,0-.59-.05-1.2-.05-1.8s0-1.21.05-1.8c0-.24,0-.48,0-.72A37.33,37.33,0,0,1,203,616.77c.77,0,1.56-.08,2.35-.08l1,0,.67,0,.67,0,1,0c.78,0,1.57,0,2.35.08a37.34,37.34,0,0,1,34.85,34.69c0,.24,0,.48,0,.72,0,.59,0,1.2,0,1.8s0,1.21,0,1.8c0,.24,0,.48,0,.72h3.6c0-.24,0-.48,0-.72,0-.6,0-1.2,0-1.8S249.52,652.78,249.49,652.18Z"/><polygon class="cls-1" points="206.97 143.91 206.97 147.51 162.78 147.51 163.4 155.04 163.99 162.24 169.19 225.77 179.64 353.14 189 467.25 189.59 474.42 192.93 515.17 199.62 596.67 199.77 598.53 196.18 598.83 196.05 597.14 189.34 515.46 186.01 474.85 185.43 467.67 176.19 355.09 176.06 353.44 175.9 351.49 167.91 254.17 167.32 246.97 165.75 227.72 165.61 226.06 165.45 224.12 158.87 143.91 206.97 143.91"/><polygon class="cls-1" points="255.07 143.91 248.5 224.12 248.2 227.72 246.62 246.97 246.03 254.17 238.05 351.49 237.75 355.09 228.52 467.67 227.93 474.85 217.9 597.14 217.76 598.83 214.17 598.53 214.32 596.67 224.35 474.42 224.94 467.25 234.3 353.14 244.75 225.77 249.96 162.24 250.55 155.04 251.16 147.51 206.97 147.51 206.97 143.91 255.07 143.91"/><polygon class="cls-1" points="177.19 606.53 173.68 607.35 173.4 606.15 154.09 523.79 145.05 485.19 143.39 478.11 122.32 388.2 120.63 381 114.55 355.09 114.23 353.7 113.71 351.49 83.86 224.12 167.4 224.12 167.4 227.72 88.4 227.72 92.91 246.97 94.6 254.17 117.41 351.49 117.74 352.88 118.25 355.09 146.8 476.87 148.45 483.93 157.6 522.97 176.62 604.14 177.19 606.53"/><polygon class="cls-1" points="330.08 224.12 300.23 351.49 299.39 355.09 293.31 381 291.63 388.2 270.55 478.12 268.9 485.19 240.54 606.15 240.26 607.35 236.76 606.53 237.32 604.14 256.34 522.97 265.49 483.93 267.14 476.87 295.69 355.09 296.21 352.88 296.53 351.49 319.34 254.17 321.03 246.97 325.54 227.72 246.54 227.72 246.54 224.12 330.08 224.12"/><polygon class="cls-1" points="177.85 351.49 177.85 355.09 50.71 355.09 60.89 381 63.72 388.2 106.42 496.92 107.54 499.79 107.55 499.79 109.11 503.77 109.16 503.91 123.71 540.95 156.32 623.97 157.69 627.46 154.34 628.77 154.05 628.03 154.05 628.03 146.57 608.98 145.05 605.1 134.31 577.76 131.49 570.59 129.27 564.94 127.88 561.4 121.23 544.46 120.36 542.27 119.86 540.99 106.06 505.86 104.57 502.07 103.36 498.97 99.67 489.57 99.66 489.57 45.43 351.49 177.85 351.49"/><polygon class="cls-1" points="368.52 351.49 314.28 489.57 314.28 489.57 310.59 498.97 309.37 502.07 307.88 505.86 294.08 540.99 292.72 544.46 286.06 561.4 284.67 564.94 282.45 570.59 279.64 577.76 268.9 605.1 267.37 608.98 259.89 628.03 259.89 628.03 259.6 628.77 256.25 627.46 257.62 623.97 290.23 540.95 304.78 503.91 304.83 503.77 306.4 499.79 306.4 499.79 307.53 496.92 350.22 388.2 353.05 381 363.23 355.09 236.09 355.09 236.09 351.49 368.52 351.49"/><polygon class="cls-1" points="86.71 580.07 84.16 582.62 22.68 521.13 3.6 502.05 0 498.45 0 493.36 27.72 521.08 54.48 547.84 59.66 553.02 85.11 578.47 86.71 580.07"/><polygon class="cls-1" points="111.42 504.82 109.16 503.91 109 503.85 104.57 502.07 100.99 500.63 27.72 471.21 22.68 469.19 3.6 461.53 0 460.08 0 456.2 3.6 457.64 22.68 465.3 27.72 467.33 100.5 496.55 27.72 402.18 22.68 395.65 3.6 370.92 0 366.25 0 360.36 3.6 365.02 22.68 389.76 27.72 396.29 99.66 489.57 99.67 489.57 105.7 497.39 107.54 499.79 107.55 499.79 110.11 503.11 111.42 504.82"/><polygon class="cls-1" points="386.23 402.18 313.44 496.55 386.23 467.33 391.26 465.3 410.34 457.64 413.94 456.2 413.94 460.08 410.34 461.53 391.26 469.19 386.23 471.21 312.96 500.63 309.37 502.07 304.94 503.85 304.78 503.91 302.52 504.82 303.84 503.11 306.4 499.79 306.4 499.79 308.25 497.39 314.28 489.57 314.28 489.57 386.23 396.29 391.26 389.75 410.34 365.02 413.94 360.36 413.94 366.25 410.34 370.92 391.26 395.65 386.23 402.18"/><polygon class="cls-1" points="413.94 493.36 413.94 498.45 329.77 582.62 327.23 580.07 328.83 578.47 354.28 553.02 359.46 547.84 386.23 521.08 413.94 493.36"/><polygon class="cls-1" points="150.94 644.3 148.4 646.85 107.86 606.32 110.41 603.77 112.69 606.05 132.87 626.22 135.66 629.02 149.04 642.4 150.94 644.3"/><polygon class="cls-1" points="306.08 606.32 302.94 609.45 282.41 629.98 265.55 646.85 263 644.3 264.9 642.4 278.28 629.02 281.08 626.22 301.25 606.05 303.53 603.77 306.08 606.32"/><polygon class="cls-1" points="189.18 145.08 185.8 146.34 184.9 143.91 176.13 120.41 176.13 120.41 174.34 115.61 166.24 93.91 165.71 92.5 169.09 91.24 169.83 93.23 177.95 115 179.75 119.82 188.74 143.91 189.18 145.08"/><polygon class="cls-1" points="248.23 92.5 247.7 93.91 239.6 115.61 237.81 120.41 237.81 120.41 229.05 143.91 228.14 146.34 224.77 145.08 225.2 143.91 234.19 119.82 235.99 115 244.11 93.23 244.85 91.24 248.23 92.5"/><polygon class="cls-1" points="138.57 225.09 135.37 226.74 134.02 224.12 98.41 154.85 96.07 150.3 85.48 129.71 84.53 127.85 87.73 126.2 88.43 127.56 98.99 148.1 101.33 152.65 138.07 224.12 138.57 225.09"/><polygon class="cls-1" points="329.42 127.85 328.46 129.71 317.88 150.3 315.53 154.85 279.92 224.12 278.57 226.74 275.37 225.09 275.87 224.12 312.62 152.65 314.95 148.1 325.51 127.56 326.21 126.2 329.42 127.85"/><polygon class="cls-1" points="92.75 352.46 89.56 354.12 88.2 351.49 34.88 248.48 31.55 242.07 18.29 216.45 16.51 213.02 19.71 211.36 20.1 212.12 33.14 237.31 33.14 237.31 36.37 243.54 36.37 243.55 92.25 351.49 92.75 352.46"/><polygon class="cls-1" points="397.43 213.02 395.65 216.45 382.39 242.07 379.07 248.48 325.74 351.49 324.38 354.12 321.19 352.46 321.69 351.49 377.57 243.55 377.57 243.54 380.8 237.31 380.8 237.31 393.84 212.12 394.23 211.36 397.43 213.02"/><rect class="cls-1" x="161.88" y="155.04" width="43.41" height="7.2"/><rect class="cls-1" x="208.64" y="155.04" width="43.41" height="7.2"/><rect class="cls-1" x="91.91" y="246.97" width="77.52" height="7.2"/><rect class="cls-1" x="244.52" y="246.97" width="77.52" height="7.2"/><rect class="cls-1" x="60.37" y="381.01" width="62.96" height="7.2"/><rect class="cls-1" x="290.62" y="381.01" width="62.96" height="7.2"/><path class="cls-1" d="M392.35,654.2h-7.2c0-.67,0-1.35,0-2,0-.24,0-.48,0-.72a180.26,180.26,0,0,0-28.81-95.38c-.67-1-1.34-2.05-2-3.06a182,182,0,0,0-46.4-47.16q-1.45-1-2.94-2l-.11-.08-1-.66a180.12,180.12,0,0,0-27.41-14.85c-2.49-1.08-5-2.11-7.53-3.07-1.13-.44-2.27-.86-3.41-1.26a178.06,178.06,0,0,0-37.56-9.08c-1.19-.16-2.38-.3-3.58-.43q-6.63-.74-13.35-1c-1.34-.05-2.69-.09-4-.11s-2.68.06-4,.11q-6.73.24-13.36,1c-1.2.13-2.39.27-3.58.43a178.21,178.21,0,0,0-37.56,9.08c-1.14.4-2.27.82-3.4,1.26-2.53,1-5,2-7.53,3.07a179.18,179.18,0,0,0-27.41,14.85l-1,.66-.11.08q-1.48,1-2.94,2A182.4,182.4,0,0,0,59.66,553c-.69,1-1.37,2-2,3.06a180.52,180.52,0,0,0-28.81,95.38c0,.24,0,.48,0,.72,0,.67,0,1.35,0,2H21.6c0-.67,0-1.35,0-2q.09-9.23,1.07-18.31a187.09,187.09,0,0,1,13.43-52.31,187.64,187.64,0,0,1,16.32-30.68c.67-1,1.35-2,2-3A189.51,189.51,0,0,1,101,500.63c.78-.56,1.57-1.11,2.37-1.66s1.55-1.06,2.34-1.57l.72-.48a188.42,188.42,0,0,1,28.22-15.26q4.35-1.89,8.75-3.55c1.13-.42,2.27-.84,3.41-1.24a185.52,185.52,0,0,1,38.62-9.2c1.19-.16,2.38-.3,3.58-.42q6.93-.76,13.95-1c1.32-.05,2.64-.08,4-.1h.1c1.33,0,2.65.05,4,.1,4.67.17,9.33.5,13.94,1,1.2.12,2.39.26,3.58.42a185.52,185.52,0,0,1,38.62,9.2c1.14.4,2.28.82,3.41,1.25q4.41,1.65,8.75,3.54a188,188,0,0,1,28.23,15.26l.72.47,2.34,1.58c.79.54,1.58,1.1,2.37,1.66a189.69,189.69,0,0,1,46.5,47.21c.7,1,1.38,2,2.05,3a187.11,187.11,0,0,1,29.76,83q1,9.07,1.06,18.31C392.34,652.85,392.35,653.53,392.35,654.2Z"/><rect class="cls-5" x="1.8" width="410.34" height="653.98"/></g></g></svg>