<svg xmlns="http://www.w3.org/2000/svg" viewBox="0 0 534.77 386.95"><defs><style>.cls-1{fill:none;}.cls-2{fill:#1b2645;}.cls-3{fill:#e8dfd8;}.cls-4{fill:#0096d6;}.cls-5{fill:#dcae7e;}</style></defs><g id="Capa_2" data-name="Capa 2"><g id="Layer_4" data-name="Layer 4"><path class="cls-1" d="M41.1,250.94,23,243.82h0A54.58,54.58,0,0,1,9.3,248.59L22,261.31A70.55,70.55,0,0,0,41.1,250.94Z"/><path class="cls-1" d="M5.14,249.27c-1.47.19-2.95.31-4.45.37v15.77a70.5,70.5,0,0,0,17.7-2.9h0L5.14,249.27Z"/><path class="cls-1" d="M52.81,200.47,169.11,210q.69-6.3.93-12.71H53C53,198.37,52.92,199.42,52.81,200.47Z"/><path class="cls-1" d="M45.7,222.34l77.23,18.1,37.14,8.71a170,170,0,0,0,8.63-35.74L52.36,203.87A54.19,54.19,0,0,1,45.7,222.34Z"/><rect class="cls-1" x="2.4" y="131.06" width="18.73" transform="translate(-89.23 46.71) rotate(-45)"/><path class="cls-1" d="M59.92,315.28a134.15,134.15,0,0,1-59.23,15V363A171,171,0,0,0,64.54,349.7a171.6,171.6,0,0,0,26.88-14.15l-24.29-24.3C64.77,312.67,62.36,314,59.92,315.28Z"/><path class="cls-1" d="M.69,310.12v16.72a130.8,130.8,0,0,0,57.65-14.59,132.38,132.38,0,0,0,44.14-37.2l-16.12-6.33A114,114,0,0,1,.69,310.12Z"/><path class="cls-1" d="M.69,268.83v25.48a98.49,98.49,0,0,0,40-9.53L21.12,265.24A73.23,73.23,0,0,1,.69,268.83Z"/><path class="cls-1" d="M.69,301.17v5.53A110.65,110.65,0,0,0,83,267.4l-5.38-2.12A105.75,105.75,0,0,1,.69,301.17Z"/><path class="cls-1" d="M.69,80.25v5.53a105.75,105.75,0,0,1,76.93,35.89L83,119.55A110.65,110.65,0,0,0,.69,80.25Z"/><path class="cls-1" d="M105.78,110.6,139.2,97.48a171.82,171.82,0,0,0-20.25-24A172.57,172.57,0,0,0,94.34,53.33L70.12,77.55A135.89,135.89,0,0,1,105.78,110.6Z"/><path class="cls-1" d="M141.05,100.43l-35.23,13.84-79,31a55.11,55.11,0,0,1,17,16.25l78.36-18.37,36.71-8.6c-.91-2.41-1.89-4.8-2.92-7.17a171.53,171.53,0,0,0-14.12-26.08l-1.63,1.26Z"/><path class="cls-1" d="M40.65,102.17a98.49,98.49,0,0,0-40-9.53v25.48a73.59,73.59,0,0,1,20.43,3.58h0l19.53-19.53Z"/><path class="cls-1" d="M37.12,189.65H49.61A51.44,51.44,0,0,0,.69,140.73v12.33A39,39,0,0,1,37.12,189.65Z"/><polygon class="cls-1" points="91.42 51.4 91.42 51.4 84.01 58.81 91.42 51.4"/><polygon class="cls-1" points="148.05 92.19 237.83 22.94 175.86 22.94 148.05 92.19"/><path class="cls-1" d="M44.79,134.56l26-10.22a99.35,99.35,0,0,0-26.91-20.56L24.7,123A74.08,74.08,0,0,1,44.79,134.56Z"/><path class="cls-1" d="M58.34,74.7A130.8,130.8,0,0,0,.69,60.11V76.83a114,114,0,0,1,85.67,41.41l16.12-6.34A132.38,132.38,0,0,0,58.34,74.7Z"/><path class="cls-1" d="M41.1,136A70.55,70.55,0,0,0,22,125.64L9.3,138.36A54.58,54.58,0,0,1,23,143.13h0Z"/><polygon class="cls-1" points="286.06 108.27 286.06 163.91 378.64 156.32 378.64 86.57 286.06 108.27"/><path class="cls-1" d="M251.13,57.19,147.71,97.82a178.82,178.82,0,0,1,14.51,26.85c1.2,2.75,2.32,5.52,3.38,8.32l85.53-20.05Z"/><path class="cls-1" d="M483.53,176.13v13.52h24.85a166.79,166.79,0,0,0-1.93-22.07Z"/><path class="cls-1" d="M282.63,109.08,166.78,136.23A176.74,176.74,0,0,1,175.53,173l107.1-8.79Z"/><path class="cls-1" d="M43.58,22.94a179.2,179.2,0,0,1,23.61,8A178.67,178.67,0,0,1,96.37,46.45h0l23.51-23.51Z"/><path class="cls-1" d="M67.19,356a179.2,179.2,0,0,1-23.61,8h76.3L96.37,340.49h0A178,178,0,0,1,67.19,356Z"/><polygon class="cls-1" points="472.94 234.93 480.11 235.52 480.11 197.3 472.94 197.3 472.94 234.93"/><polygon class="cls-1" points="257.98 54.5 257.98 111.33 282.63 105.56 282.63 44.82 257.98 54.5"/><path class="cls-1" d="M407.23,76.35v47.72l65.9-33.87a173.67,173.67,0,0,0-70.34-53.86q-6.93-2.9-14-5.16h0L286.06,84.34v20.41Z"/><path class="cls-1" d="M154.7,295.56,243.44,364h92a175,175,0,0,0,48.6-6.81l-98-50.73v40.69Z"/><path class="cls-1" d="M251.13,274l-85.54-20q-1.58,4.2-3.37,8.32a179.42,179.42,0,0,1-14.51,26.86l103.42,40.62Z"/><polygon class="cls-1" points="257.98 332.45 282.63 342.13 282.63 281.39 257.98 275.61 257.98 332.45"/><polygon class="cls-1" points="480.11 189.65 480.11 151.43 472.94 152.02 472.94 189.65 480.11 189.65"/><path class="cls-1" d="M407.23,233v26l68,35a168.9,168.9,0,0,0,19.63-34.15,166.82,166.82,0,0,0,11-37h0l-22.36-8.33v24.76Z"/><polygon class="cls-1" points="378.64 300.38 378.64 230.63 286.06 223.04 286.06 278.68 378.64 300.38"/><path class="cls-1" d="M466.1,152.58l-60.44,5-121.17,9.93-108.55,8.91q.72,6.59.95,13.27H466.1Z"/><path class="cls-1" d="M405.66,229.41l60.44,5V197.3H176.89q-.24,6.67-.95,13.27l108.55,8.91Z"/><path class="cls-1" d="M45.7,164.6a54.32,54.32,0,0,1,6.66,18.48l77.7-6.37,38.64-3.18a170.08,170.08,0,0,0-8.63-35.73l-37.14,8.71Z"/><path class="cls-1" d="M.69,230.46a35.53,35.53,0,0,0,33-33.16H.69Z"/><polygon class="cls-1" points="148.05 294.76 175.86 364.01 237.83 364.01 148.05 294.76"/><path class="cls-2" d="M461.14,317.46A177.17,177.17,0,0,1,404.63,355q-4.94,2.06-9.95,3.81l24,12.41a191.52,191.52,0,0,0,59.78-40.64A193.56,193.56,0,0,0,497,309.05L477.46,299A176.7,176.7,0,0,1,461.14,317.46Z"/><path class="cls-3" d="M335.45,368.8h-85.8L273.18,387h69.24a191.08,191.08,0,0,0,72.11-14l-24.38-12.61A179.57,179.57,0,0,1,335.45,368.8Z"/><polygon class="cls-2" points="177.78 368.8 185.07 386.95 267.58 386.95 244.05 368.8 177.78 368.8"/><polygon class="cls-2" points="129.52 368.8 147.67 386.95 181.38 386.95 174.09 368.8 129.52 368.8"/><path class="cls-2" d="M17.42,368.8q-8.64.93-17.42,1V387H142.83L124.68,368.8Z"/><path class="cls-3" d="M124.67,18.15,142.83,0H0V17.13q8.77.09,17.42,1Z"/><polygon class="cls-2" points="174.09 18.15 181.38 0 147.67 0 129.52 18.15 174.09 18.15"/><polygon class="cls-4" points="244.05 18.15 267.58 0 185.07 0 177.78 18.15 244.05 18.15"/><path class="cls-2" d="M335.45,18.15a179.26,179.26,0,0,1,54.7,8.44L414.53,14A191.26,191.26,0,0,0,342.42,0H273.18L249.65,18.15Z"/><path class="cls-4" d="M404.63,31.91A178.4,178.4,0,0,1,477.46,88L497,77.9a193.56,193.56,0,0,0-18.61-21.56A191.52,191.52,0,0,0,418.65,15.7l-24,12.41C398,29.27,401.34,30.55,404.63,31.91Z"/><path class="cls-2" d="M499.25,125.22a171.23,171.23,0,0,1,11.2,37.21l20.65-7.7a191.92,191.92,0,0,0-32-74l-19.54,10A174.39,174.39,0,0,1,499.25,125.22Z"/><path class="cls-4" d="M499.25,261.72a174.18,174.18,0,0,1-19.7,34.48l19.54,10a192,192,0,0,0,32-74l-20.65-7.7A171,171,0,0,1,499.25,261.72Z"/><path class="cls-3" d="M511,221.08l20.71,7.73a194.07,194.07,0,0,0,3-31.51H513.18A173.82,173.82,0,0,1,511,221.08Z"/><path class="cls-4" d="M513.18,189.65h21.57a194.07,194.07,0,0,0-3-31.51L511,165.87A173.82,173.82,0,0,1,513.18,189.65Z"/><polygon class="cls-5" points="129.52 368.8 174.09 368.8 172.16 364.01 124.72 364.01 129.52 368.8"/><path class="cls-5" d="M17.42,368.8H124.68l-4.8-4.79H43.58A177.63,177.63,0,0,1,17.42,368.8Z"/><path class="cls-5" d="M243.44,364l6.21,4.79h85.8a179.57,179.57,0,0,0,54.7-8.44l-6.1-3.16a175,175,0,0,1-48.6,6.81Z"/><polygon class="cls-5" points="237.83 364.01 175.86 364.01 177.78 368.8 244.05 368.8 237.83 364.01"/><path class="cls-5" d="M505.89,164.13l4.56-1.7a171.23,171.23,0,0,0-11.2-37.21,174.39,174.39,0,0,0-19.7-34.47L475.22,93a169.1,169.1,0,0,1,19.63,34.14A167.06,167.06,0,0,1,505.89,164.13Z"/><path class="cls-5" d="M511,221.08a173.82,173.82,0,0,0,2.14-23.78h-4.8a166.79,166.79,0,0,1-1.93,22.07Z"/><path class="cls-5" d="M384.05,29.75l6.1-3.16a179.26,179.26,0,0,0-54.7-8.44h-85.8l-6.21,4.79h92A175,175,0,0,1,384.05,29.75Z"/><polygon class="cls-5" points="174.09 18.15 129.52 18.15 124.72 22.94 172.16 22.94 174.09 18.15"/><path class="cls-5" d="M124.67,18.15H17.42a176.32,176.32,0,0,1,26.16,4.79h76.3Z"/><path class="cls-5" d="M457.77,72.9a174,174,0,0,1,15.36,17.3L477.46,88a178.4,178.4,0,0,0-72.83-56.06c-3.29-1.36-6.6-2.64-9.95-3.8h0l-5.93,3.07q7.11,2.26,14,5.16A172.59,172.59,0,0,1,457.77,72.9Z"/><polygon class="cls-5" points="175.86 22.94 237.83 22.94 244.05 18.15 177.78 18.15 175.86 22.94"/><path class="cls-5" d="M.69,301.17H0v5.53H.69Z"/><path class="cls-5" d="M506.45,167.58a166.79,166.79,0,0,1,1.93,22.07h4.8A173.82,173.82,0,0,0,511,165.87Z"/><path class="cls-5" d="M.69,92.64l-.69,0v25.47l.69,0Z"/><path class="cls-5" d="M.69,310.12H0v16.73l.69,0Z"/><path class="cls-5" d="M.69,140.73l-.69,0V153l.69,0Z"/><path class="cls-5" d="M.69,330.27H0V363H.69Z"/><path class="cls-5" d="M.69,24H0V56.67H.69Z"/><path class="cls-5" d="M.69,60.11l-.69,0V76.81l.69,0Z"/><path class="cls-5" d="M.69,233.89q-.34,0-.69,0v12.32l.69,0Z"/><path class="cls-5" d="M402.79,350.61q-6.93,2.89-14,5.16l5.93,3.07h0q5-1.75,9.95-3.81a178.3,178.3,0,0,0,72.83-56l-4.33-2.23a173.67,173.67,0,0,1-70.34,53.86Z"/><path class="cls-5" d="M.69,156.5,0,156.45v33.2H.69Z"/><path class="cls-5" d="M475.22,294l4.33,2.22a174.18,174.18,0,0,0,19.7-34.48,171,171,0,0,0,11.2-37.2l-4.56-1.7a166.82,166.82,0,0,1-11,37A168.9,168.9,0,0,1,475.22,294Z"/><path class="cls-5" d="M.69,268.83l-.69,0v25.48l.69,0Z"/><path class="cls-5" d="M.69,197.3H0v33.19l.69,0Z"/><path class="cls-5" d="M.69,249.64c-.23,0-.46,0-.69,0v15.76l.69,0Z"/><path class="cls-5" d="M.69,80.25H0v5.53H.69Z"/><path class="cls-5" d="M.69,121.54l-.69,0v15.76q.35,0,.69,0Z"/><path class="cls-3" d="M24.69,264l19.2,19.19A99,99,0,0,0,70.8,262.6l-26-10.21A74,74,0,0,1,24.69,264Z"/><path class="cls-4" d="M26.84,241.66l79,31,35.23,13.84-.86-2.15,1.63,1.26a171.53,171.53,0,0,0,14.12-26.08c1-2.37,2-4.76,2.92-7.16l-115.07-27A55.11,55.11,0,0,1,26.84,241.66Z"/><path class="cls-3" d="M70.12,309.4l24.22,24.22A172.57,172.57,0,0,0,119,313.43a171.82,171.82,0,0,0,20.25-24l-33.42-13.12A135.89,135.89,0,0,1,70.12,309.4Z"/><path class="cls-4" d="M99.26,338.55,124.72,364h47.45l-28-69.71a179.46,179.46,0,0,1-20.42,24A178.67,178.67,0,0,1,99.26,338.55Z"/><path class="cls-3" d="M282.63,222.76,175.53,214a176.74,176.74,0,0,1-8.75,36.75l115.85,27.15Z"/><path class="cls-4" d="M286.06,282.2v20.41l102.69,53.16h0q7.11-2.26,14-5.16a173.67,173.67,0,0,0,70.34-53.86l-65.9-33.87V310.6Z"/><polygon class="cls-3" points="403.81 306.27 403.81 232.7 385.49 231.19 385.49 301.98 403.81 306.27"/><path class="cls-3" d="M.69,233.89v12.33A51.45,51.45,0,0,0,49.61,197.3H37.12A39,39,0,0,1,.69,233.89Z"/><path class="cls-3" d="M.69,121.54v15.77c1.5.06,3,.18,4.45.37l13.25-13.24A70.5,70.5,0,0,0,.69,121.54Z"/><path class="cls-4" d="M33.69,189.65a35.52,35.52,0,0,0-33-33.15v33.15Z"/><path class="cls-4" d="M52.81,186.48c.11,1.05.18,2.1.23,3.17H170q-.24-6.41-.93-12.71l-38.77,3.18Z"/><path class="cls-4" d="M59.92,71.66q3.66,1.91,7.2,4L84,58.81l7.41-7.41A172,172,0,0,0,64.54,37.25,171,171,0,0,0,.69,24V56.68A134.28,134.28,0,0,1,59.92,71.66Z"/><path class="cls-4" d="M124.72,22.94,99.26,48.4a178.67,178.67,0,0,1,24.5,20.24,179.46,179.46,0,0,1,20.42,24l28-69.71Z"/><path class="cls-3" d="M286.06,80.48l98-50.73a175,175,0,0,0-48.6-6.81h-92L154.7,91.39l131.36-51.6Z"/><polygon class="cls-4" points="385.49 84.97 385.49 155.76 403.81 154.26 403.81 80.67 385.49 84.97"/><path class="cls-3" d="M483.53,147.71v24.76l22.36-8.34h0a167.06,167.06,0,0,0-11-37A169.1,169.1,0,0,0,475.22,93l-68,35v26Z"/><path class="cls-4" d="M506.45,219.37a166.79,166.79,0,0,0,1.93-22.07H483.53v13.52Z"/><path class="cls-5" d="M33.69,197.3c.05-.74.07-1.48.07-2.23,0-.32,0-.64,0-1l0-.64,0-.63c0-.32,0-.64,0-1,0-.75,0-1.49-.07-2.23H0v7.65H33.69Z"/><path class="cls-5" d="M466.1,195.07h6.84v2.23h7.17v-7.65h-7.17v2.23H466.1v-2.23H176.89q.08,1.88.09,3.78v.09q0,1.9-.09,3.78H466.1Z"/><path class="cls-5" d="M37.18,191.88c0,.35,0,.7,0,1.05l0,.54,0,.55c0,.35,0,.7,0,1,0,.75,0,1.49-.06,2.23H49.61c0-.79.06-1.6.06-2.4,0-.46,0-.92,0-1.38v-.09c0-.46,0-.92,0-1.38,0-.8,0-1.61-.06-2.4H37.12C37.16,190.39,37.18,191.13,37.18,191.88Z"/><path class="cls-5" d="M53.09,192.05c0,.48,0,.95,0,1.42s0,.95,0,1.43c0,.8,0,1.61-.05,2.4H170c0-1.27.08-2.55.09-3.83s0-2.55-.09-3.82H53C53.07,190.44,53.09,191.25,53.09,192.05Z"/><path class="cls-5" d="M534.77,192.34c0-.9,0-1.8,0-2.69H483.53v7.65h51.22c0-.89,0-1.79,0-2.7Z"/><path class="cls-5" d="M22,125.64A70.55,70.55,0,0,1,41.1,136l3.69-1.45A74.08,74.08,0,0,0,24.7,123Z"/><path class="cls-5" d="M18.39,124.44h0l2.73-2.74h0A73.59,73.59,0,0,0,.69,118.12l-.69,0v3.43l.69,0A70.5,70.5,0,0,1,18.39,124.44Z"/><path class="cls-5" d="M21.12,265.24l-2.73-2.73h0a70.5,70.5,0,0,1-17.7,2.9l-.69,0v3.42l.69,0A73.23,73.23,0,0,0,21.12,265.24Z"/><path class="cls-5" d="M24.69,264a74,74,0,0,0,20.1-11.58l-3.69-1.45A70.55,70.55,0,0,1,22,261.31Z"/><path class="cls-5" d="M83,119.55l3.36-1.31A114,114,0,0,0,.69,76.83l-.69,0v3.43H.69A110.65,110.65,0,0,1,83,119.55Z"/><path class="cls-5" d="M86.36,268.72,83,267.4A110.65,110.65,0,0,1,.69,306.7H0v3.42H.69A114,114,0,0,0,86.36,268.72Z"/><path class="cls-5" d="M58.34,74.7a132.38,132.38,0,0,1,44.14,37.2l2.09-.82,1.21-.48a135.89,135.89,0,0,0-35.66-33L68.6,79.07l-2.42-2.43.94-.94q-3.54-2.13-7.2-4a134.28,134.28,0,0,0-59.23-15H0v3.42l.69,0A130.8,130.8,0,0,1,58.34,74.7Z"/><path class="cls-5" d="M59.92,315.28c2.44-1.26,4.85-2.61,7.21-4l-.95-.95,2.42-2.42,1.52,1.52a135.89,135.89,0,0,0,35.66-33l-3.3-1.3a132.38,132.38,0,0,1-44.14,37.2A130.8,130.8,0,0,1,.69,326.84l-.69,0v3.42H.69A134.15,134.15,0,0,0,59.92,315.28Z"/><path class="cls-5" d="M40.65,102.17h0l3-3,2.43,2.42-2.17,2.17A99.35,99.35,0,0,1,70.8,124.34l6.82-2.67A105.75,105.75,0,0,0,.69,85.78H0v6.85l.69,0A98.49,98.49,0,0,1,40.65,102.17Z"/><path class="cls-5" d="M77.62,265.28,70.8,262.6a99,99,0,0,1-26.91,20.56l2.17,2.18-2.43,2.42-3-3a98.49,98.49,0,0,1-40,9.53l-.69,0v6.85H.69A105.75,105.75,0,0,0,77.62,265.28Z"/><path class="cls-5" d="M5.14,249.27h0l-.07-.07,2.42-2.42,1.81,1.81A54.58,54.58,0,0,0,23,243.82l-.7-.28,1.25-3.18,3.32,1.3a55.11,55.11,0,0,0,17-16.25l-1.14-.26.78-3.34,2.27.53a54.19,54.19,0,0,0,6.66-18.47l-1.6-.13.28-3.41,1.77.14c.11-1.05.18-2.1.23-3.17,0-.79.05-1.6.05-2.4,0-.48,0-1,0-1.43s0-.94,0-1.42c0-.8,0-1.61-.05-2.4,0-1.07-.12-2.12-.23-3.17l-1.77.14-.28-3.41,1.6-.13A54.32,54.32,0,0,0,45.7,164.6l-2.27.54-.78-3.34,1.14-.26a55.11,55.11,0,0,0-16.95-16.25l-3.32,1.3-1.25-3.18.7-.28A54.58,54.58,0,0,0,9.3,138.36l-1.81,1.81-2.42-2.42.07-.07h0c-1.47-.19-2.95-.31-4.45-.37q-.34,0-.69,0v3.43l.69,0a51.44,51.44,0,0,1,48.92,48.92c0,.79.06,1.6.06,2.4,0,.46,0,.92,0,1.38v.09c0,.46,0,.92,0,1.38,0,.8,0,1.61-.06,2.4A51.45,51.45,0,0,1,.69,246.22l-.69,0v3.43c.23,0,.46,0,.69,0C2.19,249.58,3.67,249.46,5.14,249.27Z"/><path class="cls-5" d="M37.12,197.3c0-.74.06-1.48.06-2.23,0-.35,0-.7,0-1l0-.55,0-.54c0-.35,0-.7,0-1.05,0-.75,0-1.49-.06-2.23A39,39,0,0,0,.69,153.06L0,153v3.42l.69.05a35.52,35.52,0,0,1,33,33.15c.05.74.07,1.48.07,2.23,0,.32,0,.64,0,1l0,.63,0,.64c0,.32,0,.64,0,1,0,.75,0,1.49-.07,2.23a35.53,35.53,0,0,1-33,33.16l-.69,0v3.43q.35,0,.69,0A39,39,0,0,0,37.12,197.3Z"/><path class="cls-5" d="M482.42,176.54l-1.2-3.2,2.31-.87V147.71L407.23,154v1.86h-3.42v-1.57l-18.32,1.5v2h-6.85v-1.44l-92.58,7.59v1.86h-3.43v-1.58L175.53,173c.15,1.13.29,2.26.41,3.4l108.55-8.91,121.17-9.93,60.44-5v-2h6.84V152l7.17-.59v42h3.42V176.13Z"/><path class="cls-5" d="M52.36,183.08l-1.6.13.28,3.41,1.77-.14,77.53-6.36,38.77-3.18c-.12-1.14-.26-2.28-.41-3.41l-38.64,3.18Z"/><path class="cls-5" d="M480.11,197.3v38.22l-7.17-.59v1.44H466.1v-2l-60.44-5-121.17-9.93-108.55-8.91c-.12,1.14-.26,2.27-.41,3.4l107.1,8.79v-1.58h3.43V223l92.58,7.59v-1.44h6.85v2l18.32,1.51v-1.58h3.42V233l76.3,6.26V214.48l-2.31-.87,1.2-3.21,1.11.42V193.47h-3.42Z"/><path class="cls-5" d="M51,200.33l-.28,3.41,1.6.13,116.34,9.54c.15-1.13.29-2.26.41-3.4l-116.3-9.54Z"/><path class="cls-5" d="M43.79,161.54l-1.14.26.78,3.34,2.27-.54,77.23-18.09,37.14-8.71c-.39-1.08-.79-2.16-1.21-3.23l-36.71,8.6Z"/><polygon class="cls-5" points="286.06 104.75 286.06 108.27 378.64 86.57 378.64 84.01 385.49 84.01 385.49 84.97 403.81 80.67 403.81 154.26 403.81 155.83 407.23 155.83 407.23 153.97 407.23 127.93 406.3 128.4 404.74 125.36 407.23 124.07 407.23 76.35 286.06 104.75"/><path class="cls-5" d="M282.63,105.55,258,111.34v2.56h-6.85v-1L165.6,133c.4,1.08.8,2.15,1.18,3.24l115.85-27.15Z"/><path class="cls-5" d="M45.7,222.34l-2.27-.53-.78,3.34,1.14.26,115.07,27c.42-1.08.82-2.16,1.21-3.24l-37.14-8.71Z"/><path class="cls-5" d="M251.13,273.05H258v2.56l24.65,5.78v-3.52L166.78,250.72c-.38,1.08-.78,2.16-1.19,3.24l85.54,20Z"/><polygon class="cls-5" points="407.23 231.12 403.81 231.12 403.81 232.7 403.81 306.27 385.49 301.98 385.49 302.94 378.64 302.94 378.64 300.38 286.06 278.68 286.06 282.19 407.23 310.6 407.23 262.88 404.74 261.59 406.3 258.55 407.23 259.02 407.23 232.98 407.23 231.12"/><path class="cls-5" d="M251.13,54H258v.49l24.65-9.68v121h3.43V84.34l-.93.48-1.57-3,2.5-1.3V39.79L154.7,91.39h0l-7.44,5.74.46.69L251.13,57.19Z"/><path class="cls-5" d="M104.57,111.08l-2.09.82-16.12,6.34L83,119.55l-5.38,2.12-6.82,2.67-26,10.22L41.1,136,23,143.13h0l-.7.28,1.25,3.18,3.32-1.3,79-31,35.23-13.84.07-.16q-.94-1.41-1.92-2.79L105.78,110.6Z"/><path class="cls-5" d="M105.82,272.68l-79-31-3.32-1.3-1.25,3.18.7.28h0l18.13,7.12,3.69,1.45,26,10.21,6.82,2.68L83,267.4l3.36,1.32,16.12,6.33,3.3,1.3,33.42,13.12q1-1.38,1.92-2.79l-.07-.16Z"/><path class="cls-5" d="M286.06,278.68v-57.5h-3.43v121L258,332.45v.49h-6.85v-3.18L147.71,289.14c-.15.23-.3.46-.46.68l7.44,5.74h0l131.36,51.6V306.47l-2.5-1.3,1.57-3,.93.48V278.68Z"/><path class="cls-5" d="M119.88,22.94,96.37,46.45c1,.64,1.94,1.29,2.89,1.95l25.46-25.46,4.8-4.79L147.67,0h-4.84L124.67,18.15Z"/><path class="cls-5" d="M67.12,75.7l-.94.94,2.42,2.43,1.52-1.52L94.34,53.33c-1-.65-1.94-1.3-2.92-1.93L84,58.81Z"/><path class="cls-5" d="M140.19,102.58l1.63-1.26-.63-.95-.07-.1-.07.16Z"/><path class="cls-5" d="M172.17,22.94l-28,69.71c.53.75,1.06,1.5,1.57,2.25s1,1.48,1.5,2.23l7.44-5.74h0l88.74-68.45,6.21-4.79L273.18,0h-5.6L244.05,18.15l-6.22,4.79L148.05,92.19l27.81-69.25,1.92-4.79L185.07,0h-3.69l-7.29,18.15Z"/><path class="cls-5" d="M141.05,286.52l.07.16.07-.1.63-.95-1.63-1.26Z"/><path class="cls-5" d="M243.44,364,154.7,295.56h0l-7.44-5.74c-.49.75-1,1.49-1.5,2.23s-1,1.5-1.57,2.25l28,69.71,1.92,4.79L181.38,387h3.69l-7.29-18.15L175.86,364l-27.81-69.25L237.83,364l6.22,4.79L267.58,387h5.6L249.65,368.8Z"/><path class="cls-5" d="M124.72,364,99.26,338.55c-1,.66-1.92,1.31-2.89,1.94L119.88,364l4.8,4.79L142.83,387h4.84L129.52,368.8Z"/><path class="cls-5" d="M68.6,307.88l-2.42,2.42.95.95,24.29,24.3,2.92-1.93L70.12,309.4Z"/><polygon class="cls-5" points="24.7 122.97 43.89 103.78 46.06 101.61 43.63 99.19 40.65 102.17 21.12 121.7 18.39 124.44 5.14 137.68 5.07 137.75 7.49 140.18 9.3 138.36 22.03 125.64 24.7 122.97"/><polygon class="cls-5" points="22.03 261.31 9.3 248.59 7.49 246.78 5.07 249.2 5.14 249.27 18.39 262.51 21.12 265.25 40.65 284.78 43.63 287.76 46.06 285.33 43.89 283.17 24.69 263.98 22.03 261.31"/><path class="cls-5" d="M505.89,164.13h0l-22.36,8.34-2.31.87,1.2,3.2,1.11-.41,22.92-8.55,4.59-1.71,20.71-7.73c-.21-1.14-.42-2.28-.65-3.41l-20.65,7.7Z"/><path class="cls-5" d="M506.45,219.37l-22.92-8.55-1.11-.42-1.2,3.21,2.31.87,22.36,8.33h0l4.56,1.7,20.65,7.7c.23-1.13.44-2.27.65-3.41L511,221.08Z"/><path class="cls-5" d="M473.13,90.2l-65.9,33.87-2.5,1.29,1.57,3,.93-.47,68-35,4.33-2.22,19.54-10c-.67-.94-1.35-1.87-2-2.8L477.46,88Z"/><path class="cls-5" d="M475.22,294l-68-35-.93-.47-1.57,3,2.5,1.29,65.9,33.87,4.33,2.23L497,309.05c.7-.93,1.38-1.86,2-2.81l-19.54-10Z"/><path class="cls-5" d="M384.05,29.75l-98,50.73-2.5,1.3,1.57,3,.93-.48L388.75,31.18h0l5.93-3.07h0l24-12.41-1.36-.59L414.53,14,390.15,26.59Z"/><path class="cls-5" d="M394.68,358.84l-5.93-3.07h0L286.06,302.61l-.93-.48-1.57,3,2.5,1.3,98,50.73,6.1,3.16L414.53,373q1.38-.56,2.76-1.14l1.36-.58-24-12.41Z"/><polygon class="cls-5" points="466.1 191.88 472.94 191.88 472.94 189.65 472.94 152.02 472.94 150.58 466.1 150.58 466.1 152.58 466.1 189.65 466.1 191.88"/><polygon class="cls-5" points="472.94 195.07 466.1 195.07 466.1 197.3 466.1 234.37 466.1 236.37 472.94 236.37 472.94 234.93 472.94 197.3 472.94 195.07"/><polygon class="cls-5" points="385.49 84.01 378.64 84.01 378.64 86.57 378.64 156.32 378.64 157.75 385.49 157.75 385.49 155.76 385.49 84.97 385.49 84.01"/><polygon class="cls-5" points="378.64 302.94 385.49 302.94 385.49 301.98 385.49 231.19 385.49 229.19 378.64 229.19 378.64 230.63 378.64 300.38 378.64 302.94"/><polygon class="cls-5" points="257.98 54.01 251.13 54.01 251.13 57.19 251.13 112.94 251.13 113.9 257.98 113.9 257.98 111.33 257.98 54.5 257.98 54.01"/><polygon class="cls-5" points="257.98 273.05 251.13 273.05 251.13 274.01 251.13 329.76 251.13 332.94 257.98 332.94 257.98 332.45 257.98 275.61 257.98 273.05"/><path class="cls-5" d="M43.58,364a179.2,179.2,0,0,0,23.61-8,178,178,0,0,0,29.18-15.53h0c1-.63,1.94-1.28,2.89-1.94a178.67,178.67,0,0,0,24.5-20.24,179.46,179.46,0,0,0,20.42-24c.53-.75,1.06-1.5,1.57-2.25s1-1.48,1.5-2.23c.16-.22.31-.45.46-.68a179.42,179.42,0,0,0,14.51-26.86q1.8-4.12,3.37-8.32c.41-1.08.81-2.16,1.19-3.24A176.74,176.74,0,0,0,175.53,214c.15-1.13.29-2.26.41-3.4q.72-6.58.95-13.27.08-1.87.09-3.78v-.09q0-1.91-.09-3.78-.24-6.69-.95-13.27c-.12-1.14-.26-2.27-.41-3.4a176.74,176.74,0,0,0-8.75-36.75c-.38-1.09-.78-2.16-1.18-3.24-1.06-2.8-2.18-5.57-3.38-8.32a178.82,178.82,0,0,0-14.51-26.85l-.46-.69c-.49-.75-1-1.49-1.5-2.23s-1-1.5-1.57-2.25a179.46,179.46,0,0,0-20.42-24A178.67,178.67,0,0,0,99.26,48.4c-1-.66-1.92-1.31-2.89-1.95h0A178.67,178.67,0,0,0,67.19,30.93a179.2,179.2,0,0,0-23.61-8,176.32,176.32,0,0,0-26.16-4.79q-8.64-.93-17.42-1V24H.69A171,171,0,0,1,64.54,37.25,172,172,0,0,1,91.42,51.4h0c1,.63,2,1.28,2.92,1.93A172.57,172.57,0,0,1,119,73.52a171.82,171.82,0,0,1,20.25,24q1,1.38,1.92,2.79l.07.1.63.95a171.53,171.53,0,0,1,14.12,26.08c1,2.37,2,4.76,2.92,7.17.42,1.07.82,2.15,1.21,3.23a170.08,170.08,0,0,1,8.63,35.73c.15,1.13.29,2.27.41,3.41q.69,6.3.93,12.71c0,1.27.08,2.55.09,3.82s0,2.56-.09,3.83q-.24,6.4-.93,12.71c-.12,1.14-.26,2.27-.41,3.4a170,170,0,0,1-8.63,35.74c-.39,1.08-.79,2.16-1.21,3.24-.91,2.4-1.89,4.79-2.92,7.16a171.53,171.53,0,0,1-14.12,26.08l-.63.95-.07.1q-.94,1.41-1.92,2.79a171.82,171.82,0,0,1-20.25,24,172.57,172.57,0,0,1-24.61,20.19l-2.92,1.93A171.6,171.6,0,0,1,64.54,349.7,171,171,0,0,1,.69,363H0v6.86q8.77-.09,17.42-1A177.63,177.63,0,0,0,43.58,364Z"/></g></g></svg>