<?xml version="1.0" encoding="utf-8"?>
<!-- Generator: Adobe Illustrator 26.0.2, SVG Export Plug-In . SVG Version: 6.00 Build 0)  -->
<svg version="1.1" id="Capa_1" xmlns="http://www.w3.org/2000/svg" xmlns:xlink="http://www.w3.org/1999/xlink" x="0px" y="0px"
	 viewBox="0 0 1493.4 471.6" style="enable-background:new 0 0 1493.4 471.6;" xml:space="preserve">
<style type="text/css">
	.st0{fill:#EFEFEF;}
</style>
<g id="Capa_2_00000103966398316283960960000000910471184476176310_">
	<g id="Capa_1-2">
		<g id="Layer_2">
			<g id="Layer_3">
				<path class="st0" d="M1394.9,231.2C1393.2,103,1288.7-0.1,1160.4,0H332.9C204.7-0.1,100.2,103,98.5,231.2H0v9.2h98.5
					c1.7,128.2,106.2,231.3,234.4,231.2h827.5c128.3,0.1,232.8-103,234.4-231.2h98.5v-9.2H1394.9z M1364.9,231.2
					c-0.2-9.5-1.1-19.1-2.6-28.5l24.8-9.2c2.2,12.5,3.4,25.1,3.6,37.7H1364.9z M1356.9,266.8l-27.4-10.2v-16.2h29.8
					C1359,249.2,1358.3,258.1,1356.9,266.8L1356.9,266.8z M1215.9,430.1L1215.9,430.1l-123-63.7V342l145.1,34v-57.1l79,40.6
					c-22,28.4-51.1,50.6-84.2,64.5C1227.3,426.3,1221.7,428.3,1215.9,430.1L1215.9,430.1z M260.6,424
					c-33.2-13.9-62.2-36.1-84.2-64.5l78.9-40.6V376l145.1-34v24.5l-123,63.7l0,0C271.8,428.3,266.2,426.3,260.6,424z M134.2,240.4
					H164v16.2l-27.5,10.2C135.2,258.1,134.4,249.2,134.2,240.4z M136.5,204.8L164,215v16.2h-29.8
					C134.4,222.3,135.2,213.5,136.5,204.8z M277.5,41.4L277.5,41.4l123,63.7v24.4l-145.1-34v57.2l-78.9-40.6
					c22-28.4,51.1-50.6,84.2-64.5C266.2,45.3,271.8,43.3,277.5,41.4L277.5,41.4z M1232.8,47.6c33.2,13.9,62.2,36.1,84.2,64.5
					l-78.9,40.6V95.5l-145.1,34v-24.4l123-63.7l0,0C1221.6,43.3,1227.2,45.3,1232.8,47.6L1232.8,47.6z M1356.3,200.6l-26.8,10V181
					l-91.4,7.5v-31.2l81.4-41.9c9.4,12.7,17.3,26.4,23.5,40.9C1349.2,170.5,1353.6,185.4,1356.3,200.6L1356.3,200.6z M1308.6,231.2
					H962.2c-0.2-5.3-0.6-10.6-1.1-15.9l130-10.7l145.1-11.9l72.4-5.9L1308.6,231.2z M1088.9,336.8l-138.8-32.5
					c5.1-14.2,8.6-29,10.5-44l128.2,10.5L1088.9,336.8z M920.3,346.1l-1.9-1.5l1,2.6l-42.2-16.6l-94.6-37.1c8.1-5,15-11.6,20.3-19.5
					l137.8,32.3c-1.1,2.9-2.3,5.7-3.5,8.6C932.4,325.8,926.8,336.2,920.3,346.1L920.3,346.1z M820.3,378c-21.4,11-45,17-69,17.5v-20
					c39.8-0.8,77.3-18.9,102.6-49.6l19.3,7.6C859,352,841,367.2,820.3,378z M742.2,395.5c-24-0.5-47.6-6.4-69-17.5
					c-20.7-10.8-38.7-26-52.8-44.5l19.3-7.6c25.3,30.7,62.8,48.8,102.6,49.6L742.2,395.5z M573.2,346.1
					c-6.5-9.9-12.2-20.4-16.9-31.2c-1.2-2.8-2.4-5.7-3.5-8.6l44-10.3l93.8-22c5.3,7.9,12.2,14.5,20.3,19.5l-94.6,37.1l-42.2,16.6
					l1-2.6L573.2,346.1z M404.5,336.9v-66l128.2-10.5c1.9,15,5.4,29.8,10.5,44L404.5,336.9z M539.4,240.4h140.1
					c0.1,1.3,0.2,2.5,0.3,3.8l-92.8,7.6l-46.4,3.8C539.9,250.5,539.6,245.5,539.4,240.4L539.4,240.4z M404.5,134.7l138.7,32.5
					c-5.1,14.2-8.6,29-10.5,44l-128.3-10.5V134.7z M573.2,125.4l1.9,1.5l-1-2.6l42.2,16.6l94.6,37.1c-8.1,5-15,11.6-20.3,19.4
					l-137.8-32.3c1.1-2.9,2.3-5.7,3.5-8.6C561,145.8,566.6,135.3,573.2,125.4L573.2,125.4z M673.2,93.6c21.4-11,45-17,69-17.5v20
					c-39.8,0.8-77.2,18.9-102.6,49.6l-19.3-7.6C634.4,119.5,652.4,104.3,673.2,93.6L673.2,93.6z M751.3,76.1
					c24,0.4,47.6,6.4,69,17.5c20.7,10.8,38.7,26,52.8,44.6l-19.3,7.6C828.5,115,791,96.9,751.2,96.1L751.3,76.1z M920.3,125.4
					c6.5,9.9,12.2,20.3,16.9,31.2c1.2,2.8,2.4,5.7,3.5,8.6l-44,10.3l-93.8,22c-5.3-7.9-12.2-14.5-20.3-19.4l94.6-37.1l42.2-16.6
					l-1,2.6L920.3,125.4z M1088.9,134.7v66l-128.3,10.5c-1.9-15-5.4-29.8-10.5-44L1088.9,134.7z M952.4,211.9l-46.3,3.8l-93.1,7.6
					c-1.3-7.8-4-15.3-8-22.1l92.5-21.7l44.5-10.4C947,183,950.5,197.3,952.4,211.9z M751.2,299v-14.8c23.5-1.5,42.3-20.3,43.6-43.8
					h15C808.3,272.1,782.9,297.5,751.2,299z M683.6,240.4h15c1.4,23.5,20.1,42.3,43.6,43.8V299C710.4,297.5,685.1,272.1,683.6,240.4
					L683.6,240.4z M742.2,172.7v14.8c-23.5,1.5-42.2,20.3-43.6,43.8h-14.9C685.1,199.5,710.4,174.2,742.2,172.7L742.2,172.7z
					 M777.9,175.5c-5.2-2.6-10.7-4.5-16.4-5.7l15.2-15.2c8.2,2.9,15.9,7.1,22.8,12.4L777.9,175.5L777.9,175.5z M756.6,302.6
					L756.6,302.6l15.9,15.9l0,0c-6.9,2.1-14,3.2-21.2,3.5V303C753,303,754.8,302.8,756.6,302.6z M736.8,302.6
					c1.8,0.2,3.5,0.4,5.3,0.5v18.9c-7.2-0.3-14.3-1.4-21.2-3.5l0,0L736.8,302.6L736.8,302.6z M736.8,169L736.8,169L721,153.1l0,0
					c6.9-2.1,14-3.2,21.2-3.5v18.9C740.4,168.6,738.6,168.8,736.8,169L736.8,169z M775.7,149.8c-7.9-2.6-16.2-4-24.5-4.3V115
					c16.6,0.4,32.9,4.3,47.9,11.4l0,0L775.7,149.8L775.7,149.8z M742.2,145.5c-8.3,0.3-16.6,1.7-24.5,4.3l-23.4-23.4
					c15-7.1,31.3-11,47.9-11.4L742.2,145.5z M742.2,231.2h-39.5c1.4-21.3,18.3-38.2,39.5-39.7V231.2z M742.2,240.4v39.7
					c-21.3-1.5-38.1-18.4-39.5-39.7L742.2,240.4z M717.7,321.7c7.9,2.6,16.2,4,24.5,4.3v30.5c-16.6-0.4-32.9-4.3-47.9-11.4l0,0
					L717.7,321.7z M751.2,326c8.3-0.3,16.6-1.7,24.5-4.3l23.4,23.4c-15,7.1-31.3,11-47.9,11.4V326z M751.2,240.4h39.5
					c-1.4,21.3-18.3,38.2-39.5,39.7V240.4z M751.2,231.2v-39.7c21.3,1.5,38.2,18.4,39.5,39.7L751.2,231.2z M751.2,149.6
					c7.2,0.2,14.3,1.4,21.2,3.5l0,0L756.6,169l0,0c-1.8-0.2-3.5-0.4-5.3-0.4L751.2,149.6z M804,165.2c-7.2-5.9-15.3-10.5-24-13.9
					l23-23c12.1,6.3,23,14.6,32.2,24.6L804,165.2z M843.3,149.8c-23.4-26.6-56.8-42.2-92.1-43v-6.6c38.1,0.8,74,17.9,98.6,47.1
					L843.3,149.8z M742.1,106.8c-35.4,0.8-68.8,16.4-92.1,43l-6.4-2.5c24.6-29.1,60.5-46.3,98.6-47.1V106.8z M690.4,128.4l23,23
					c-8.7,3.3-16.8,8-24.1,13.9L658.2,153C667.5,143,678.4,134.7,690.4,128.4L690.4,128.4z M716.6,154.5l15.2,15.2
					c-5.7,1.2-11.2,3.1-16.4,5.7l0,0l-21.7-8.5C700.7,161.7,708.4,157.5,716.6,154.5L716.6,154.5z M715.4,296
					c5.2,2.6,10.7,4.5,16.4,5.7L716.6,317c-8.2-2.9-15.9-7.1-22.8-12.4L715.4,296L715.4,296z M689.3,306.3
					c7.2,5.9,15.4,10.5,24.1,13.9l-23,23c-12.1-6.3-23-14.6-32.2-24.6L689.3,306.3z M650,321.8c23.4,26.6,56.8,42.2,92.1,43v6.6
					c-38.1-0.8-74-17.9-98.6-47.1L650,321.8z M751.2,364.8c35.4-0.8,68.8-16.4,92.1-43l6.4,2.5c-24.6,29.1-60.5,46.3-98.6,47.1
					V364.8z M803,343.2l-23-23c8.7-3.3,16.8-8,24-13.9l31.2,12.2C825.9,328.6,815,336.9,803,343.2z M776.8,317l-15.2-15.2
					c5.7-1.2,11.2-3.1,16.4-5.7l0,0l21.7,8.5C792.7,309.9,785,314.1,776.8,317z M794.9,231.2c-1.4-23.5-20.1-42.3-43.6-43.8v-14.7
					c31.7,1.5,57.1,26.9,58.6,58.6L794.9,231.2z M595.8,179.5l92.5,21.7c-4,6.8-6.7,14.3-8,22.1L541,211.9
					c1.9-14.6,5.4-28.9,10.3-42.8L595.8,179.5z M540.5,216l139.3,11.4c-0.1,1.2-0.2,2.5-0.3,3.8H539.4
					C539.5,226.1,539.9,221,540.5,216z M541,259.7l46.3-3.8l93-7.6c1.3,7.8,4,15.3,8,22.1L595.8,292l-44.5,10.5
					C546.3,288.6,542.9,274.3,541,259.7L541,259.7z M897.6,292l-92.5-21.7c4-6.8,6.7-14.3,8-22.1l139.3,11.4
					c-1.9,14.6-5.4,28.9-10.3,42.8L897.6,292z M952.9,255.6l-139.3-11.4c0.1-1.3,0.2-2.5,0.3-3.8H954
					C953.8,245.5,953.5,250.5,952.9,255.6L952.9,255.6z M813.9,231.2c-0.1-1.3-0.2-2.5-0.3-3.8l92.8-7.6l46.4-3.8
					c0.6,5,0.9,10.1,1.1,15.2L813.9,231.2z M1234,188.8l-21.9,1.8v-84.8l21.9-5.1V188.8z M1203.9,191.3l-110.9,9.1v-66.6l110.9-26
					L1203.9,191.3z M1088.9,130.5l-29.5,6.9V69.4l29.5-11.6V130.5z M1051.1,139.4l-102.4,24c-1.3-3.3-2.6-6.7-4-10
					c-4.9-11.2-10.7-21.9-17.4-32.2l123.8-48.7V139.4z M877.1,136.6c-11.7-15.6-26.2-29-42.7-39.6l29-29
					c21,14.2,39.2,32.1,53.7,52.9L877.1,136.6z M830.8,94.8L830.8,94.8c-2.8-1.7-5.7-3.3-8.6-4.8c-21.9-11.4-46.2-17.5-70.9-18V32.8
					c38.6,0.5,76.2,11.9,108.7,32.8l0,0L830.8,94.8z M742.2,72c-24.7,0.5-49,6.6-70.9,18c-2.9,1.5-5.8,3.1-8.6,4.8l0,0l-29.1-29.2
					l0,0c32.4-20.9,70.1-32.3,108.7-32.8V72z M659,97c-16.5,10.5-31,23.9-42.7,39.6l-40-15.7C590.8,100.1,609,82.2,630,68L659,97z
					 M566.1,121.3c-6.7,10.2-12.5,21-17.4,32.2c-1.4,3.3-2.8,6.7-4,10l-102.4-24V72.6L566.1,121.3z M434,137.5l-29.5-6.9V57.8
					L434,69.4V137.5z M400.4,200.4l-110.9-9.1v-83.6l110.9,26V200.4z M281.3,190.7l-21.9-1.8v-88.2l21.9,5.1V190.7z M257.1,192.8
					l145.1,11.9l130,10.7c-0.6,5.3-1,10.6-1.1,15.9H184.8v-44.4L257.1,192.8z M176.6,231.2h-8.6v-45.8l8.6,0.7V231.2z M168.1,240.4
					h8.6v45.1l-8.6,0.7V240.4z M184.8,240.4h346.3c0.2,5.3,0.6,10.6,1.1,15.9l-130,10.7l-145.1,11.9l-72.4,5.9L184.8,240.4z
					 M259.4,282.8l21.9-1.8v84.8l-21.9,5.1V282.8z M289.6,280.3l110.9-9.1v66.6l-110.9,26V280.3z M404.6,341.1l29.5-6.9v68.1
					l-29.5,11.6V341.1z M442.3,332.2l102.4-24c1.3,3.3,2.6,6.7,4,10c4.9,11.2,10.7,21.9,17.4,32.1L442.2,399L442.3,332.2z
					 M616.3,335c11.7,15.7,26.2,29.1,42.7,39.6l-29,29c-21-14.2-39.2-32.1-53.7-52.9L616.3,335z M662.6,376.8L662.6,376.8
					c2.8,1.7,5.7,3.3,8.6,4.8c22,11.3,46.2,17.5,70.9,17.9v39.1c-38.6-0.5-76.2-11.9-108.7-32.8l0,0L662.6,376.8z M751.2,399.6
					c24.7-0.5,49-6.6,70.9-17.9c2.9-1.5,5.8-3.1,8.6-4.8l0,0l29.1,29.1l0,0c-32.4,20.9-70.1,32.3-108.7,32.8L751.2,399.6z
					 M834.3,374.6c16.5-10.5,31-23.9,42.7-39.6l40,15.7c-14.5,20.7-32.7,38.7-53.7,52.9L834.3,374.6z M927.2,350.3
					c6.7-10.2,12.5-21,17.4-32.1c1.4-3.3,2.8-6.6,4-10l102.4,24V399L927.2,350.3z M1059.3,334.1l29.5,6.9v72.7l-29.5-11.6V334.1z
					 M1092.9,271.1l110.9,9.1v83.5l-110.9-26V271.1z M1212,281l21.9,1.8v88.1l-21.9-5.2V281z M1236.2,278.9L1091.1,267l-130-10.7
					c0.6-5.3,1-10.6,1.1-15.9h346.3v44.3L1236.2,278.9z M1316.7,240.4h8.6v45.8l-8.6-0.7V240.4z M1316.7,231.2v-45l8.6-0.7v45.7
					L1316.7,231.2z M1093,100.5V51.8l-157.3,61.8l106.3-82h110.2c19.7,0,39.3,2.7,58.2,8.2L1093,100.5z M927.7,114.5L961,31.6h74.2
					L927.7,114.5z M923.1,115c-14.7-20.7-32.9-38.6-53.8-53l30.5-30.5h56.8L923.1,115z M865.8,59.7L865.8,59.7
					c-19.4-12.8-40.8-22.3-63.2-28.2H894L865.8,59.7z M662.5,41.1c-12.2,5.1-23.9,11.3-35,18.6l0,0l-28.2-28.2h91.4
					C681.2,34.1,671.7,37.3,662.5,41.1z M624.1,62.1c-20.9,14.4-39.1,32.3-53.8,53l-33.5-83.5h56.8L624.1,62.1z M565.7,114.5
					L458.2,31.6h74.2L565.7,114.5z M557.7,113.5L400.4,51.8v48.7L283.1,39.7c18.9-5.4,38.5-8.2,58.2-8.2h110.2L557.7,113.5z
					 M255.3,157.3v31.2L164,181v29.6l-26.8-10l0,0c2.7-15.2,7.1-30.1,13.2-44.3c6.2-14.5,14.1-28.2,23.6-40.9L255.3,157.3z
					 M137.2,270.9l26.8-10v29.6l91.4-7.5v31.2l-81.4,41.9c-9.4-12.7-17.3-26.4-23.5-40.9C144.3,301,139.9,286.2,137.2,270.9
					L137.2,270.9z M400.4,371.1v48.7L557.7,358l-106.3,82H341.3c-19.7,0-39.3-2.7-58.2-8.2L400.4,371.1z M565.7,357.1L532.4,440
					h-74.2L565.7,357.1z M570.3,356.6c14.7,20.7,32.9,38.6,53.8,53L593.6,440h-56.8L570.3,356.6z M627.6,411.9L627.6,411.9
					c19.4,12.7,40.8,22.2,63.2,28.1h-91.4L627.6,411.9z M830.9,430.5c12.2-5.1,23.9-11.3,35-18.6l0,0L894,440h-91.4
					C812.2,437.5,821.7,434.3,830.9,430.5L830.9,430.5z M869.3,409.5c20.9-14.4,39.1-32.3,53.8-53l33.5,83.5h-56.8L869.3,409.5z
					 M927.7,357.1l107.5,82.9H961L927.7,357.1z M935.7,358.1l157.3,61.7v-48.7l117.3,60.7c-18.9,5.4-38.5,8.2-58.2,8.2h-110.2
					L935.7,358.1z M1238.1,314.3v-31.2l91.4,7.5v-29.6l26.8,10l0,0c-2.7,15.2-7.1,30.1-13.2,44.3c-6.2,14.5-14.1,28.2-23.5,40.9
					L1238.1,314.3z M1329.5,231.3V215l27.4-10.2c1.3,8.8,2.1,17.6,2.3,26.4L1329.5,231.3z M1386.5,189.4l-24.7,9.2
					c-2.8-15.3-7.3-30.3-13.4-44.6c-6.3-14.6-14.2-28.5-23.6-41.3l23.4-12C1367.1,127.3,1380.1,157.5,1386.5,189.4L1386.5,189.4z
					 M1345.7,97.4l-23.4,12c-22.7-29.6-52.8-52.8-87.2-67.1c-3.9-1.6-7.9-3.2-11.9-4.6l28.7-14.9c26.7,11.5,51,28,71.6,48.7
					C1331.4,79.6,1338.8,88.3,1345.7,97.4L1345.7,97.4z M1160.4,4.1c29.6-0.1,58.9,5.6,86.4,16.7L1217.6,36
					c-21.2-6.7-43.3-10.2-65.5-10.1h-102.7l28.2-21.8H1160.4z M1070.8,4.1l-28.2,21.7h-79.3L972,4.1H1070.8z M967.6,4.1l-8.7,21.7
					h-53.4l21.7-21.7H967.6z M750.4,4.1h171l-21.7,21.7H771.3c-6.9-0.7-13.8-1.1-20.9-1.2L750.4,4.1z M572,4.1h171v20.5
					c-7,0.1-14,0.5-20.8,1.2H593.7L572,4.1z M566.2,4.1l21.7,21.7h-53.4l-8.7-21.7H566.2z M521.4,4.1l8.7,21.7h-79.4L422.6,4.1
					H521.4z M333,4.1h82.9L444,25.8H341.3c-22.2,0-44.3,3.4-65.5,10.2l-29.2-15.2C274,9.7,303.3,4,333,4.1L333,4.1z M170.1,71.6
					c20.6-20.6,44.9-37.1,71.6-48.7l28.7,14.9c-4,1.4-8,2.9-11.9,4.6c-34.4,14.4-64.5,37.5-87.2,67.1l-23.5-12
					C154.6,88.3,162,79.6,170.1,71.6z M120.7,144.8c6.6-15.5,14.8-30.3,24.6-44l23.4,12c-9.4,12.8-17.3,26.7-23.6,41.3
					c-6.1,14.3-10.6,29.2-13.4,44.6l-24.7-9.2C110,174.1,114.6,159.1,120.7,144.8z M106.2,193.5l24.8,9.2
					c-1.5,9.4-2.4,18.9-2.6,28.5h-25.8C102.8,218.5,104,205.9,106.2,193.5z M128.4,240.4c0.2,9.5,1,19.1,2.6,28.5l-24.8,9.2
					c-2.2-12.5-3.4-25.1-3.6-37.7L128.4,240.4z M107,282.2l24.7-9.2c2.8,15.3,7.3,30.3,13.4,44.6c6.3,14.6,14.2,28.5,23.6,41.3
					l-23.4,12C126.4,344.3,113.3,314.1,107,282.2z M147.8,374.2l23.5-12.1c22.7,29.6,52.8,52.8,87.2,67.1c3.9,1.6,7.9,3.2,11.9,4.6
					l-28.7,14.9C204.4,432.5,172,406.8,147.8,374.2L147.8,374.2z M332.9,467.5c-29.6,0.1-58.9-5.6-86.4-16.7l29.2-15.1
					c21.2,6.7,43.3,10.2,65.5,10.1H444l-28.2,21.7H332.9z M422.6,467.5l28.2-21.7h79.4l-8.7,21.7H422.6z M525.8,467.5l8.7-21.7h53.4
					l-21.7,21.7H525.8z M743,467.5H572l21.7-21.7h128.4c6.9,0.7,13.8,1.2,20.9,1.3L743,467.5z M750.4,467.5V447
					c7-0.1,14-0.5,20.9-1.2h128.4l21.7,21.7L750.4,467.5z M927.2,467.5l-21.8-21.7h53.4l8.7,21.7H927.2z M972,467.5l-8.7-21.7h79.4
					l28.2,21.7H972z M1160.5,467.5h-82.9l-28.2-21.7h102.7c22.2,0,44.3-3.4,65.5-10.1l29.2,15.1
					C1219.4,461.8,1190.1,467.5,1160.5,467.5L1160.5,467.5z M1323.3,400c-20.6,20.6-44.9,37.1-71.6,48.7l-28.7-14.8
					c4-1.4,8-2.9,11.9-4.6c34.4-14.4,64.5-37.5,87.2-67.1l23.4,12.1C1338.8,383.3,1331.4,392,1323.3,400z M1372.7,326.8
					c-6.6,15.5-14.8,30.3-24.6,44l-23.4-12c18.7-25.4,31.3-54.8,37-85.8l24.7,9.2C1383.3,297.5,1378.7,312.5,1372.7,326.8
					L1372.7,326.8z M1387.2,278.1l-24.8-9.2c1.5-9.4,2.4-18.9,2.6-28.5h25.8C1390.6,253,1389.4,265.6,1387.2,278.1L1387.2,278.1z"/>
			</g>
		</g>
	</g>
</g>
</svg>
