<svg xmlns="http://www.w3.org/2000/svg" viewBox="0 0 1517.1 479.06"><title>Asset 1</title><g id="Layer_2" data-name="Layer 2"><g id="Layer_4" data-name="Layer 4"><path d="M754.78,171.17V307.9c.69,0,1.39,0,2.09,0s1.39,0,2.08,0V171.17c-.69,0-1.39,0-2.08,0S755.47,171.15,754.78,171.17ZM245.52,18.72A238,238,0,0,0,100.08,234.87c0,1.1,0,2.19,0,3.29v2.75c0,1.09,0,2.18,0,3.28A237.95,237.95,0,0,0,338.22,479.06H759V0H338.22A236.64,236.64,0,0,0,245.52,18.72ZM754.78,4.17V474.9H338.22a232.55,232.55,0,0,1-87.72-17l-3.36-1.39-1.65-.71a233.1,233.1,0,0,1-72.73-49.44,236,236,0,0,1-22.64-26.23c-.85-1.13-1.67-2.27-2.49-3.41a233.14,233.14,0,0,1-38.94-90.05c-.28-1.38-.54-2.77-.79-4.16a235.74,235.74,0,0,1-3.65-38.32c0-1.09,0-2.19,0-3.28v-2.75c0-1.1,0-2.19,0-3.29a235.85,235.85,0,0,1,3.65-38.32c.25-1.39.51-2.77.79-4.15a233.26,233.26,0,0,1,38.94-90.06c.82-1.14,1.64-2.28,2.49-3.41A236.9,236.9,0,0,1,172.76,72.7a232.9,232.9,0,0,1,72.73-49.43c.55-.25,1.1-.48,1.65-.72q1.68-.71,3.36-1.38a232.35,232.35,0,0,1,87.72-17Zm0,167V307.9c.69,0,1.39,0,2.09,0s1.39,0,2.08,0V171.17c-.69,0-1.39,0-2.08,0S755.47,171.15,754.78,171.17Zm0,0V307.9c.69,0,1.39,0,2.09,0s1.39,0,2.08,0V171.17c-.69,0-1.39,0-2.08,0S755.47,171.15,754.78,171.17Z" style="fill:#dcae7e"/><path d="M245.49,23.27l29.15,15.09q-6.11,2.13-12.1,4.63a216.88,216.88,0,0,0-88.6,68.19L150.12,98.93A236.9,236.9,0,0,1,172.76,72.7,232.9,232.9,0,0,1,245.49,23.27Z" style="fill:#1b2645"/><path d="M338.22,4.17h84.23l28.62,22.07H346.69a218,218,0,0,0-66.54,10.28L250.5,21.17A232.35,232.35,0,0,1,338.22,4.17Z" style="fill:#e8dfd8"/><polygon points="429.27 4.17 529.64 4.17 538.5 26.24 457.89 26.24 429.27 4.17" style="fill:#1b2645"/><polygon points="534.13 4.17 575.14 4.17 597.22 26.24 543 26.24 534.13 4.17" style="fill:#1b2645"/><path d="M581,4.17H754.78V25q-10.68.1-21.18,1.23H603.11Z" style="fill:#1b2645"/><path d="M603.11,452.82H733.6q10.5,1.13,21.18,1.24V474.9H581Z" style="fill:#e8dfd8"/><polygon points="543 452.82 597.22 452.82 575.14 474.9 534.13 474.9 543 452.82" style="fill:#1b2645"/><polygon points="457.89 452.82 538.5 452.82 529.64 474.9 429.27 474.9 457.89 452.82" style="fill:#0096d6"/><path d="M280.15,442.55a218.31,218.31,0,0,0,66.54,10.27H451.07L422.45,474.9H338.22a232.55,232.55,0,0,1-87.72-17Z" style="fill:#1b2645"/><path d="M173.94,367.88a216.88,216.88,0,0,0,88.6,68.19q6,2.51,12.1,4.64L245.49,455.8a233.1,233.1,0,0,1-72.73-49.44,236,236,0,0,1-22.64-26.23Z" style="fill:#0096d6"/><path d="M133.8,277.3a209.3,209.3,0,0,0,13.63,45.26,211.91,211.91,0,0,0,24,41.94l-23.77,12.22a233.14,233.14,0,0,1-38.94-90.05Z" style="fill:#1b2645"/><path d="M147.63,102.34l23.77,12.22a211.91,211.91,0,0,0-24,41.94,209.55,209.55,0,0,0-13.63,45.27l-25.11-9.37a233.26,233.26,0,0,1,38.94-90.06Z" style="fill:#0096d6"/><path d="M107.9,196.55l25.19,9.4a212,212,0,0,0-2.6,28.92H104.25A235.85,235.85,0,0,1,107.9,196.55Z" style="fill:#e8dfd8"/><path d="M104.25,244.19h26.24a212.3,212.3,0,0,0,2.6,28.93l-25.19,9.39A235.74,235.74,0,0,1,104.25,244.19Z" style="fill:#0096d6"/><path d="M754.78,152l-.83,0V327l.83,0V307.9c.69,0,1.39,0,2.09,0s1.39,0,2.08,0V171.17c-.69,0-1.39,0-2.08,0s-1.4,0-2.09,0ZM280.15,36.52c-1.84.59-3.68,1.2-5.5,1.84h0q-6.11,2.13-12.1,4.63a216.88,216.88,0,0,0-88.6,68.19c-.86,1.12-1.7,2.25-2.54,3.38a211.91,211.91,0,0,0-24,41.94,209.55,209.55,0,0,0-13.63,45.27c-.25,1.39-.49,2.78-.71,4.18a212,212,0,0,0-2.6,28.92c0,1.55-.05,3.11-.05,4.66s0,3.11.05,4.66a212.3,212.3,0,0,0,2.6,28.93c.22,1.4.46,2.79.71,4.18a209.3,209.3,0,0,0,13.63,45.26,211.91,211.91,0,0,0,24,41.94c.84,1.14,1.68,2.26,2.54,3.38a216.88,216.88,0,0,0,88.6,68.19q6,2.51,12.1,4.64h0c1.82.63,3.66,1.25,5.5,1.84a218.31,218.31,0,0,0,66.54,10.27H759.78V26.24H346.69A218,218,0,0,0,280.15,36.52ZM754,32.08V447H346.69a212.62,212.62,0,0,1-59.12-8.29q-2.86-.81-5.71-1.73h0q-8.66-2.76-17.08-6.28a211.27,211.27,0,0,1-85.57-65.52c-.86-1.11-1.71-2.24-2.55-3.37a205.49,205.49,0,0,1-23.87-41.54,202.36,202.36,0,0,1-13.43-45h0c-.25-1.39-.48-2.78-.69-4.18a204.76,204.76,0,0,1-2.35-26.85c0-1.55,0-3.1,0-4.66s0-3.11,0-4.66A204.61,204.61,0,0,1,138.67,208c.21-1.4.44-2.8.69-4.19h0a202.44,202.44,0,0,1,13.43-45,205.14,205.14,0,0,1,23.87-41.53c.84-1.14,1.69-2.26,2.55-3.38a211.54,211.54,0,0,1,85.57-65.52q8.43-3.51,17.08-6.27h0q2.85-.91,5.71-1.74a212.61,212.61,0,0,1,59.12-8.28ZM754.78,152l-.83,0V327l.83,0V307.9c.69,0,1.39,0,2.09,0s1.39,0,2.08,0V171.17c-.69,0-1.39,0-2.08,0s-1.4,0-2.09,0Zm0,0-.83,0V327l.83,0V307.9c.69,0,1.39,0,2.09,0s1.39,0,2.08,0V171.17c-.69,0-1.39,0-2.08,0s-1.4,0-2.09,0Z" style="fill:#dcae7e"/><path d="M701.39,130.42l23.35,23.35a89.74,89.74,0,0,0-24.45,14.09l-31.64-12.43A120.61,120.61,0,0,1,701.39,130.42Z" style="fill:#e8dfd8"/><path d="M583.19,126.34l42.86,16.83,96.09,37.75a67,67,0,0,0-20.63,19.76l-140-32.82q1.68-4.38,3.56-8.71a208,208,0,0,1,17.18-31.72l2,1.52Z" style="fill:#0096d6"/><path d="M640,69,669.48,98.5a165.22,165.22,0,0,0-43.39,40.22l-40.65-16A211.07,211.07,0,0,1,640,69Z" style="fill:#e8dfd8"/><path d="M545.34,32.08h57.71l31,31a219.48,219.48,0,0,0-54.63,53.82Z" style="fill:#0096d6"/><path d="M411,136.86l140.94,33a214.88,214.88,0,0,0-10.65,44.71L411,203.91Z" style="fill:#e8dfd8"/><path d="M281.86,42.1h0l124.93,64.66V131.6L259.38,97.05V155.1l-80.17-41.21a211.54,211.54,0,0,1,85.57-65.52Q273.21,44.86,281.86,42.1Z" style="fill:#0096d6"/><polygon points="263.54 102.31 285.82 107.53 285.82 193.65 263.54 191.82 263.54 102.31" style="fill:#e8dfd8"/><path d="M754,175.37v15a47.37,47.37,0,0,0-44.32,44.5h-15.2A62.59,62.59,0,0,1,754,175.37Z" style="fill:#e8dfd8"/><path d="M748.53,307.41c1.78.22,3.59.38,5.42.45V327a85.38,85.38,0,0,1-21.53-3.52Z" style="fill:#e8dfd8"/><path d="M713.8,244.19H754v40.33A43.21,43.21,0,0,1,713.8,244.19Z" style="fill:#0096d6"/><path d="M547.93,244.19H690.26c.06,1.29.15,2.58.28,3.85l-94.32,7.74-47.16,3.87Q548.21,252,547.93,244.19Z" style="fill:#0096d6"/><path d="M673.12,382.81q4.32,2.6,8.77,4.91A163.59,163.59,0,0,0,754,406v39.76a208.81,208.81,0,0,1-110.38-33.34Z" style="fill:#0096d6"/><path d="M579.39,362.19A219.29,219.29,0,0,0,634,416l-31,31H545.34Z" style="fill:#0096d6"/><path d="M566.59,363.72,458.63,447H346.69a212.62,212.62,0,0,1-59.12-8.29L406.79,377v49.5Z" style="fill:#e8dfd8"/><polygon points="285.82 285.42 285.82 371.53 263.54 376.76 263.54 287.24 285.82 285.42" style="fill:#0096d6"/><path d="M166.55,295.2l92.83-7.62v31.69L176.66,361.8a205.49,205.49,0,0,1-23.87-41.54,202.36,202.36,0,0,1-13.43-45h0l27.19-10.14Z" style="fill:#e8dfd8"/><path d="M138.67,208l27.88,10.4v16.44H136.32A204.61,204.61,0,0,1,138.67,208Z" style="fill:#0096d6"/><rect y="234.87" width="759.78" height="9.31" style="fill:#dcae7e"/><path d="M702,307.22q1.38,1.14,2.79,2.22A85.58,85.58,0,0,0,728,322.06c1.46.53,2.94,1,4.44,1.46A85.38,85.38,0,0,0,754,327l.83,0,2.09,0,2.08,0,.83,0v4.17l-.83,0c-.69,0-1.39,0-2.08,0s-1.39,0-2.09,0l-.83,0a89.69,89.69,0,0,1-24.86-4.37c-1.46-.48-2.91-1-4.35-1.54a90,90,0,0,1-24.45-14.1c-.32-.25-.64-.52-.95-.78Z" style="fill:#dcae7e"/><path d="M756.87,147.81c.69,0,1.39,0,2.08,0l.83,0V152l-.83,0c-.69,0-1.39,0-2.08,0s-1.39,0-2.09,0l-.83,0a85.39,85.39,0,0,0-21.53,3.53c-1.5.44-3,.93-4.44,1.45a85.62,85.62,0,0,0-23.19,12.63q-1.41,1.06-2.79,2.22l-2.66-3.2c.31-.27.63-.53.95-.79a89.74,89.74,0,0,1,24.45-14.09c1.44-.56,2.89-1.07,4.35-1.55A89.68,89.68,0,0,1,754,147.86l.83,0C755.48,147.81,756.17,147.81,756.87,147.81Z" style="fill:#dcae7e"/><path d="M652,327.26c.6.74,1.21,1.47,1.83,2.2A134.57,134.57,0,0,0,754,377.27l.83,0h2.09c.69,0,1.39,0,2.08,0h.83v4.16l-.83,0-2.08,0-2.09,0-.83,0a138.69,138.69,0,0,1-104.22-50.37l-1-1.17Z" style="fill:#dcae7e"/><path d="M756.87,97.6H759l.83,0v4.16H759l-2.08,0-2.09,0H754a134.54,134.54,0,0,0-100.13,47.82q-.93,1.08-1.83,2.19l-3.23-2.62c.32-.4.64-.79,1-1.18A138.72,138.72,0,0,1,754,97.63l.83,0Z" style="fill:#dcae7e"/><path d="M628.49,336.59c.54.73,1.08,1.45,1.63,2.17a158.92,158.92,0,0,0,123.83,63h.83l2.09,0,2.08,0h.83v4.16l-.83,0h-5a163.59,163.59,0,0,1-72.06-18.23q-4.46-2.31-8.77-4.91c-1.22-.73-2.44-1.48-3.64-2.25a165.35,165.35,0,0,1-43.39-40.21l-1-1.29Z" style="fill:#dcae7e"/><path d="M756.87,73.09l2.08,0h.83v4.17l-.83,0h-4.17l-.83,0A159.16,159.16,0,0,0,683.81,95a161,161,0,0,0-53.69,45.25l-1.63,2.18L625.14,140c.31-.43.63-.86,1-1.28A165.22,165.22,0,0,1,669.48,98.5c1.2-.76,2.42-1.51,3.64-2.25q4.3-2.58,8.77-4.9A163.32,163.32,0,0,1,754,73.12h.83Z" style="fill:#dcae7e"/><path d="M666.16,320.87c.82.93,1.65,1.86,2.49,2.76a120.61,120.61,0,0,0,32.74,25c1.3.68,2.62,1.34,3.94,2A120.11,120.11,0,0,0,754,362.21h.83c.7,0,1.39,0,2.09,0H759l.83,0v8.33H759c-.69,0-1.39,0-2.08,0s-1.39,0-2.09,0H754a128.62,128.62,0,0,1-93.59-43.65l-.48-.55Z" style="fill:#dcae7e"/><path d="M756.87,108.49c.69,0,1.39,0,2.08,0h.83v8.33H759c-.69,0-1.39,0-2.08,0s-1.39,0-2.09,0l-.83,0a119.85,119.85,0,0,0-48.62,11.6c-1.33.63-2.64,1.28-3.94,2a120.61,120.61,0,0,0-32.74,25c-.84.91-1.67,1.83-2.49,2.77l-6.28-5.48.48-.54A128.63,128.63,0,0,1,754,108.52h.83C755.48,108.49,756.17,108.49,756.87,108.49Z" style="fill:#dcae7e"/><path d="M754.78,171.17l-.83,0c-1.83.08-3.64.23-5.42.45s-3.4.5-5.06.84a66.11,66.11,0,0,0-16.63,5.8h0c-1.6.81-3.17,1.69-4.69,2.63a67,67,0,0,0-20.63,19.76c-.81,1.21-1.6,2.46-2.33,3.73a66,66,0,0,0-8.09,22.48c-.23,1.36-.41,2.74-.55,4.13s-.22,2.56-.28,3.85c0,1-.06,1.95-.06,2.93,0,.58,0,1.16,0,1.73s0,1.15,0,1.73c0,1,0,2,.06,2.93.06,1.29.15,2.58.28,3.85s.32,2.77.55,4.14a65.93,65.93,0,0,0,8.09,22.47c.73,1.27,1.52,2.52,2.33,3.74a67.2,67.2,0,0,0,20.63,19.76c1.52.94,3.09,1.81,4.69,2.63h0a66.18,66.18,0,0,0,16.62,5.8c1.67.34,3.36.62,5.07.83s3.59.38,5.42.45l.83,0c.69,0,1.39,0,2.09,0s1.39,0,2.08,0l.83,0v-4.17l-.83,0c-.69,0-1.39,0-2.08,0s-1.4,0-2.09,0l-.83,0a62.59,62.59,0,0,1-59.52-59.5c0-1-.07-1.95-.07-2.93,0-.56,0-1.12,0-1.67v-.11c0-.56,0-1.12,0-1.68,0-1,0-2,.07-2.93A62.59,62.59,0,0,1,754,175.37c.28,0,.55,0,.83,0,.69,0,1.39,0,2.09,0s1.39,0,2.08,0c.28,0,.55,0,.83,0V171.2l-.83,0c-.69,0-1.39,0-2.08,0S755.47,171.15,754.78,171.17Z" style="fill:#dcae7e"/><path d="M754.78,190.33c-.28,0-.55,0-.83,0a47.37,47.37,0,0,0-44.32,44.5c-.06.9-.08,1.81-.08,2.72,0,.43,0,.85,0,1.28l0,.66,0,.66c0,.43,0,.85,0,1.28,0,.91,0,1.82.08,2.72A47.37,47.37,0,0,0,754,288.69c.28,0,.55,0,.83,0,.69,0,1.39,0,2.09,0s1.39,0,2.08,0c.28,0,.55,0,.83,0v-4.17l-.83.05c-.69,0-1.38.05-2.08.05s-1.4,0-2.09-.05l-.83-.05a43.21,43.21,0,0,1-40.15-40.33c-.06-.9-.09-1.81-.09-2.72,0-.39,0-.78,0-1.16l0-.78,0-.77c0-.39,0-.78,0-1.17,0-.91,0-1.82.09-2.72A43.22,43.22,0,0,1,754,194.54c.27,0,.55,0,.83,0,.69,0,1.39-.06,2.09-.06s1.39,0,2.08.06c.28,0,.56,0,.83,0v-4.17c-.28,0-.55,0-.83,0-.69,0-1.39-.05-2.08-.05S755.47,190.29,754.78,190.33Z" style="fill:#dcae7e"/><polygon points="166.55 239.53 170.72 239.53 170.72 290.68 179.44 289.96 187.77 289.28 261.29 283.25 408.7 271.16 540.75 260.33 549.06 259.65 596.22 255.78 690.54 248.04 692.69 247.87 693.03 252.02 691.09 252.18 596.56 259.93 549.55 263.79 541.24 264.47 410.95 275.15 409.04 275.31 406.79 275.5 294.16 284.74 285.82 285.42 263.54 287.24 261.63 287.4 259.38 287.58 166.55 295.2 166.55 239.53" style="fill:#dcae7e"/><polygon points="166.55 183.86 259.38 191.48 263.54 191.82 285.82 193.65 294.16 194.33 406.79 203.56 410.95 203.91 541.24 214.6 549.55 215.28 691.09 226.89 693.03 227.05 692.69 231.2 690.54 231.02 549.06 219.42 540.75 218.73 408.7 207.9 261.29 195.81 187.77 189.78 179.44 189.1 170.72 188.38 170.72 239.53 166.55 239.53 166.55 183.86" style="fill:#dcae7e"/><polygon points="701.95 274 702.9 278.06 701.51 278.39 606.19 300.73 561.52 311.2 553.33 313.12 449.28 337.5 440.94 339.46 410.95 346.49 409.34 346.86 406.79 347.46 259.38 382.01 259.38 285.33 263.54 285.33 263.54 376.76 285.82 371.53 294.16 369.58 406.79 343.18 408.39 342.81 410.95 342.21 551.89 309.17 560.06 307.26 605.24 296.67 699.18 274.65 701.95 274" style="fill:#dcae7e"/><polygon points="259.38 97.05 406.79 131.6 410.95 132.58 440.94 139.61 449.28 141.56 553.33 165.95 561.52 167.86 701.51 200.68 702.9 201 701.95 205.06 699.18 204.41 605.24 182.39 560.06 171.81 551.89 169.89 410.95 136.86 408.39 136.26 406.79 135.88 294.16 109.48 285.82 107.53 263.54 102.31 263.54 193.74 259.38 193.74 259.38 97.05" style="fill:#dcae7e"/><polygon points="406.79 273.24 410.95 273.24 410.95 420.38 440.94 408.6 449.28 405.32 575.1 355.9 578.41 354.6 578.42 354.6 583.02 352.79 583.19 352.73 626.05 335.89 722.13 298.15 726.17 296.57 727.69 300.44 726.84 300.78 726.83 300.78 704.79 309.44 700.29 311.2 668.65 323.63 660.36 326.89 653.82 329.46 649.73 331.06 630.12 338.76 627.58 339.76 626.09 340.35 585.44 356.31 581.05 358.04 577.47 359.45 566.59 363.72 566.59 363.72 406.79 426.49 406.79 273.24" style="fill:#dcae7e"/><polygon points="406.79 52.57 566.59 115.34 566.59 115.35 577.47 119.62 581.05 121.02 585.44 122.75 626.09 138.72 630.12 140.29 649.73 148 653.82 149.6 660.36 152.18 668.65 155.43 700.29 167.86 704.79 169.63 726.83 178.29 726.84 178.29 727.69 178.62 726.17 182.5 722.13 180.91 626.05 143.17 583.19 126.33 583.02 126.27 578.42 124.47 578.41 124.46 575.1 123.16 449.28 73.74 440.94 70.47 410.95 58.69 410.95 205.83 406.79 205.83 406.79 52.57" style="fill:#dcae7e"/><polygon points="671.33 378.71 674.27 381.66 603.12 452.82 581.03 474.9 576.87 479.06 570.98 479.06 603.05 446.99 634.02 416.01 640.02 410.02 669.48 380.56 671.33 378.71" style="fill:#dcae7e"/><polygon points="584.24 350.11 583.19 352.73 583.11 352.92 581.05 358.04 579.39 362.19 545.34 446.99 543 452.82 534.13 474.9 532.46 479.06 527.97 479.06 529.64 474.9 538.5 452.82 540.85 446.99 574.67 362.75 465.45 446.99 457.89 452.82 429.27 474.9 423.87 479.06 417.05 479.06 422.45 474.9 451.07 452.82 458.63 446.99 566.59 363.72 566.59 363.72 575.65 356.74 578.41 354.6 578.42 354.6 582.26 351.64 584.24 350.11" style="fill:#dcae7e"/><polygon points="465.45 32.08 574.67 116.32 540.85 32.08 538.5 26.24 529.64 4.17 527.97 0 532.46 0 534.13 4.17 543 26.24 545.34 32.08 579.39 116.87 581.05 121.02 583.11 126.15 583.19 126.33 584.24 128.95 582.26 127.43 578.42 124.47 578.41 124.46 575.65 122.32 566.59 115.35 566.59 115.34 458.63 32.08 451.07 26.24 422.45 4.17 417.05 0 423.87 0 429.27 4.17 457.89 26.24 465.45 32.08" style="fill:#dcae7e"/><polygon points="570.98 0 576.87 0 674.27 97.41 671.33 100.35 669.48 98.5 640.02 69.04 634.02 63.05 603.05 32.08 570.98 0" style="fill:#dcae7e"/><polygon points="745.67 304.37 748.61 307.32 701.7 354.23 698.75 351.28 701.39 348.64 724.74 325.3 727.98 322.06 743.46 306.58 745.67 304.37" style="fill:#dcae7e"/><polygon points="701.7 124.84 705.33 128.46 729.09 152.22 748.61 171.74 745.67 174.69 743.47 172.49 727.98 157 724.74 153.77 701.39 130.42 698.75 127.78 701.7 124.84" style="fill:#dcae7e"/><polygon points="167.91 260.13 169.37 264.03 166.55 265.08 139.36 275.22 139.36 275.23 133.8 277.3 108.69 286.67 107.05 287.28 105.59 283.38 107.9 282.51 133.09 273.12 138.67 271.04 166.55 260.63 167.91 260.13" style="fill:#dcae7e"/><polygon points="107.05 191.78 108.69 192.4 133.8 201.76 139.36 203.84 139.36 203.84 166.55 213.98 169.37 215.03 167.91 218.94 166.55 218.43 138.67 208.03 133.09 205.95 107.9 196.55 105.59 195.69 107.05 191.78" style="fill:#dcae7e"/><polygon points="260.5 318.69 262.41 322.4 259.38 323.96 179.21 365.17 173.94 367.88 150.12 380.13 147.96 381.24 146.06 377.53 147.63 376.72 171.4 364.5 176.66 361.8 259.38 319.27 260.5 318.69" style="fill:#dcae7e"/><polygon points="147.96 97.83 150.12 98.93 173.94 111.18 179.21 113.89 259.38 155.1 262.41 156.67 260.5 160.37 259.38 159.79 176.66 117.27 171.4 114.56 147.63 102.34 146.06 101.53 147.96 97.83" style="fill:#dcae7e"/><polygon points="407.91 371.72 409.83 375.42 406.79 376.99 287.57 438.7 280.15 442.55 250.5 457.9 246.53 459.95 244.61 456.25 245.49 455.8 274.64 440.71 274.65 440.71 281.86 436.97 281.86 436.97 406.79 372.3 407.91 371.72" style="fill:#dcae7e"/><polygon points="246.53 19.11 250.5 21.17 280.15 36.52 287.57 40.36 406.79 102.07 409.83 103.65 407.91 107.35 406.79 106.77 281.86 42.09 281.86 42.09 274.65 38.36 274.64 38.36 245.49 23.27 244.61 22.81 246.53 19.11" style="fill:#dcae7e"/><rect x="179.43" y="241.47" width="8.33" height="50.24" style="fill:#dcae7e"/><rect x="179.43" y="187.35" width="8.33" height="50.24" style="fill:#dcae7e"/><rect x="285.82" y="282.99" width="8.33" height="89.71" style="fill:#dcae7e"/><rect x="285.82" y="106.36" width="8.33" height="89.71" style="fill:#dcae7e"/><rect x="440.95" y="336.34" width="8.33" height="72.86" style="fill:#dcae7e"/><rect x="440.95" y="69.86" width="8.33" height="72.86" style="fill:#dcae7e"/><path d="M757.12,25v8.34H754A208.76,208.76,0,0,0,643.56,66.7Q641.78,67.85,640,69a211.07,211.07,0,0,0-54.58,53.71c-.79,1.12-1.57,2.26-2.33,3.4l-.09.12-.76,1.16a208,208,0,0,0-17.18,31.72q-1.89,4.32-3.56,8.71c-.5,1.31-1,2.62-1.46,3.94a206.91,206.91,0,0,0-10.51,43.48c-.18,1.37-.34,2.75-.49,4.14-.57,5.11-.94,10.27-1.13,15.45-.06,1.55-.1,3.11-.12,4.66s.06,3.11.12,4.66q.29,7.78,1.13,15.46c.15,1.39.31,2.76.49,4.14a206.67,206.67,0,0,0,10.51,43.47c.47,1.32,1,2.63,1.46,3.94q1.66,4.38,3.56,8.71a208.13,208.13,0,0,0,17.18,31.73l.76,1.15.09.13c.76,1.14,1.54,2.27,2.33,3.4A211.24,211.24,0,0,0,640,410c1.17.8,2.36,1.58,3.55,2.35A208.81,208.81,0,0,0,754,445.71h.83l2.34,0v8.33h-2.34q-10.68-.12-21.18-1.24a216.93,216.93,0,0,1-96.05-34.43c-1.18-.78-2.36-1.57-3.53-2.37a219.29,219.29,0,0,1-54.63-53.83c-.65-.91-1.29-1.82-1.92-2.74s-1.22-1.81-1.82-2.71c-.19-.28-.38-.56-.55-.84a216.24,216.24,0,0,1-17.66-32.66q-2.19-5-4.11-10.12c-.49-1.32-1-2.63-1.44-3.95a214.94,214.94,0,0,1-10.65-44.7c-.18-1.38-.34-2.76-.49-4.14-.58-5.34-1-10.73-1.15-16.14-.06-1.53-.1-3.06-.12-4.6v-.12c0-1.53.06-3.07.12-4.6q.27-8.12,1.15-16.14c.15-1.38.31-2.76.49-4.13a214.88,214.88,0,0,1,10.65-44.71c.46-1.32,1-2.63,1.44-3.94q1.92-5.1,4.11-10.13a216.24,216.24,0,0,1,17.66-32.66c.17-.28.36-.56.55-.84.6-.9,1.2-1.81,1.82-2.7s1.27-1.84,1.92-2.75A219.48,219.48,0,0,1,634,63.05c1.17-.81,2.35-1.6,3.53-2.37A216.73,216.73,0,0,1,733.6,26.24q10.5-1.12,21.18-1.23Z" style="fill:#dcae7e"/><rect y="2.08" width="756.87" height="474.9" style="fill:none"/><path d="M762.32,307.9V171.17c-.69,0-1.39,0-2.08,0s-1.39,0-2.08,0V307.9c.69,0,1.38,0,2.08,0S761.63,307.92,762.32,307.9Zm509.27,152.45A237.93,237.93,0,0,0,1417,244.19c0-1.1,0-2.19,0-3.28v-2.75c0-1.1,0-2.19,0-3.29A238,238,0,0,0,1178.88,0H758.16V479.06h420.72A236.72,236.72,0,0,0,1271.59,460.35ZM762.32,474.9V4.17h416.56a232.35,232.35,0,0,1,87.72,17q1.7.67,3.36,1.38c.56.24,1.11.47,1.66.72a232.86,232.86,0,0,1,72.72,49.43A235.85,235.85,0,0,1,1367,98.93c.85,1.13,1.68,2.27,2.49,3.41a233.49,233.49,0,0,1,39,90.06c.28,1.38.53,2.76.78,4.15a234.75,234.75,0,0,1,3.66,38.32c0,1.1,0,2.19,0,3.29v2.75c0,1.09,0,2.19,0,3.28a234.64,234.64,0,0,1-3.66,38.32c-.25,1.39-.5,2.78-.78,4.16a233.36,233.36,0,0,1-39,90.05c-.81,1.14-1.64,2.28-2.49,3.41a235.31,235.31,0,0,1-95.36,75.67l-1.66.71c-1.11.47-2.23.93-3.36,1.39a232.55,232.55,0,0,1-87.72,17Zm0-167V171.17c-.69,0-1.39,0-2.08,0s-1.39,0-2.08,0V307.9c.69,0,1.38,0,2.08,0S761.63,307.92,762.32,307.9Zm0,0V171.17c-.69,0-1.39,0-2.08,0s-1.39,0-2.08,0V307.9c.69,0,1.38,0,2.08,0S761.63,307.92,762.32,307.9Z" style="fill:#dcae7e"/><path d="M1271.62,455.8l-29.16-15.09q6.11-2.13,12.11-4.64a216.92,216.92,0,0,0,88.59-68.19L1367,380.13a235.31,235.31,0,0,1-95.36,75.67Z" style="fill:#1b2645"/><path d="M1178.88,474.9h-84.23L1066,452.82h104.38A218.26,218.26,0,0,0,1237,442.55l29.65,15.35A232.55,232.55,0,0,1,1178.88,474.9Z" style="fill:#e8dfd8"/><polygon points="1087.84 474.9 987.47 474.9 978.6 452.82 1059.21 452.82 1087.84 474.9" style="fill:#1b2645"/><polygon points="982.97 474.9 941.96 474.9 919.88 452.82 974.11 452.82 982.97 474.9" style="fill:#1b2645"/><path d="M936.07,474.9H762.32V454.06q10.68-.12,21.19-1.24H914Z" style="fill:#1b2645"/><path d="M914,26.24H783.51Q773,25.12,762.32,25V4.17H936.07Z" style="fill:#e8dfd8"/><polygon points="974.11 26.24 919.88 26.24 941.96 4.17 982.97 4.17 974.11 26.24" style="fill:#1b2645"/><polygon points="1059.21 26.24 978.6 26.24 987.47 4.17 1087.84 4.17 1059.21 26.24" style="fill:#0096d6"/><path d="M1237,36.52a218,218,0,0,0-66.54-10.28H1066l28.62-22.07h84.23a232.35,232.35,0,0,1,87.72,17Z" style="fill:#1b2645"/><path d="M1343.16,111.18A216.92,216.92,0,0,0,1254.57,43q-6-2.51-12.11-4.63l29.16-15.09a232.86,232.86,0,0,1,72.72,49.43A235.85,235.85,0,0,1,1367,98.93Z" style="fill:#0096d6"/><path d="M1383.3,201.77a211.2,211.2,0,0,0-37.6-87.21l23.77-12.22a233.49,233.49,0,0,1,39,90.06Z" style="fill:#1b2645"/><path d="M1369.47,376.72,1345.7,364.5a210.92,210.92,0,0,0,24-41.94,208.74,208.74,0,0,0,13.63-45.26l25.12,9.37a233.36,233.36,0,0,1-39,90.05Z" style="fill:#0096d6"/><path d="M1409.2,282.51,1384,273.12a210.73,210.73,0,0,0,2.61-28.93h26.24A234.64,234.64,0,0,1,1409.2,282.51Z" style="fill:#e8dfd8"/><path d="M1412.86,234.87h-26.24A210.44,210.44,0,0,0,1384,206l25.19-9.4A234.75,234.75,0,0,1,1412.86,234.87Z" style="fill:#0096d6"/><path d="M762.32,327.07l.83,0V152l-.83,0v19.17c-.69,0-1.39,0-2.08,0s-1.39,0-2.08,0V307.9c.69,0,1.38,0,2.08,0s1.39,0,2.08,0ZM1237,442.55c1.84-.59,3.68-1.21,5.51-1.84h0q6.11-2.13,12.11-4.64a216.92,216.92,0,0,0,88.59-68.19c.86-1.12,1.71-2.24,2.54-3.38a210.92,210.92,0,0,0,24-41.94,208.74,208.74,0,0,0,13.63-45.26c.25-1.39.49-2.78.71-4.18a210.73,210.73,0,0,0,2.61-28.93c0-1.55.05-3.1.05-4.66s0-3.11-.05-4.66A210.44,210.44,0,0,0,1384,206c-.22-1.4-.46-2.79-.71-4.18a211.2,211.2,0,0,0-37.6-87.21c-.83-1.13-1.68-2.26-2.54-3.38A216.92,216.92,0,0,0,1254.57,43q-6-2.51-12.11-4.63h0q-2.74-1-5.51-1.84a218,218,0,0,0-66.54-10.28H757.32V452.82h413.09A218.26,218.26,0,0,0,1237,442.55ZM763.15,447V32.08h407.26a212.88,212.88,0,0,1,59.12,8.28c1.91.55,3.82,1.13,5.71,1.74h0q8.65,2.76,17.08,6.27a211.54,211.54,0,0,1,85.57,65.52c.87,1.12,1.72,2.24,2.55,3.38a205,205,0,0,1,37.31,86.57h0c.24,1.39.47,2.79.68,4.19a204.61,204.61,0,0,1,2.35,26.84c0,1.55,0,3.11,0,4.66s0,3.11,0,4.66a204.76,204.76,0,0,1-2.35,26.85c-.21,1.4-.44,2.79-.68,4.18h0a203.42,203.42,0,0,1-13.43,45,205.53,205.53,0,0,1-23.88,41.54c-.83,1.13-1.68,2.26-2.55,3.37a211.27,211.27,0,0,1-85.57,65.52q-8.43,3.53-17.08,6.28h0c-1.89.61-3.8,1.19-5.71,1.73a212.52,212.52,0,0,1-59.12,8.29Zm-.83-119.92.83,0V152l-.83,0v19.17c-.69,0-1.39,0-2.08,0s-1.39,0-2.08,0V307.9c.69,0,1.38,0,2.08,0s1.39,0,2.08,0Zm0,0,.83,0V152l-.83,0v19.17c-.69,0-1.39,0-2.08,0s-1.39,0-2.08,0V307.9c.69,0,1.38,0,2.08,0s1.39,0,2.08,0Z" style="fill:#dcae7e"/><path d="M815.71,348.64,792.36,325.3a89.88,89.88,0,0,0,24.45-14.1l31.64,12.43A120.61,120.61,0,0,1,815.71,348.64Z" style="fill:#e8dfd8"/><path d="M933.92,352.73l-42.87-16.84L795,298.15a67.28,67.28,0,0,0,20.62-19.76l140,32.81q-1.67,4.38-3.55,8.71a208.19,208.19,0,0,1-17.19,31.73l-2-1.53Z" style="fill:#0096d6"/><path d="M877.08,410l-29.46-29.46A165.35,165.35,0,0,0,891,340.35l40.65,16A211.24,211.24,0,0,1,877.08,410Z" style="fill:#e8dfd8"/><path d="M971.76,447H914.05l-31-31a219.56,219.56,0,0,0,54.64-53.83Z" style="fill:#0096d6"/><path d="M1106.15,342.21l-140.94-33a214.94,214.94,0,0,0,10.65-44.7l130.29,10.69Z" style="fill:#e8dfd8"/><path d="M1235.24,437h0L1110.32,372.3V347.46L1257.73,382V324l80.16,41.21a211.27,211.27,0,0,1-85.57,65.52Q1243.89,434.22,1235.24,437Z" style="fill:#0096d6"/><polygon points="1253.56 376.76 1231.28 371.53 1231.28 285.42 1253.56 287.25 1253.56 376.76" style="fill:#e8dfd8"/><path d="M763.15,303.69v-15a47.39,47.39,0,0,0,44.33-44.51h15.19A62.58,62.58,0,0,1,763.15,303.69Z" style="fill:#e8dfd8"/><path d="M768.58,171.65q-2.69-.33-5.43-.45V152a85.47,85.47,0,0,1,21.54,3.53Z" style="fill:#e8dfd8"/><path d="M803.3,234.87H763.15V194.55A43.19,43.19,0,0,1,803.3,234.87Z" style="fill:#0096d6"/><path d="M969.17,234.87H826.84c-.05-1.29-.15-2.57-.27-3.85l94.32-7.74,47.16-3.87Q968.89,227.09,969.17,234.87Z" style="fill:#0096d6"/><path d="M844,96.25q-4.31-2.58-8.77-4.9a163.29,163.29,0,0,0-72.06-18.23V33.35A208.54,208.54,0,0,1,873.53,66.7Z" style="fill:#0096d6"/><path d="M937.72,116.87a219.75,219.75,0,0,0-54.64-53.82l31-31h57.71Z" style="fill:#0096d6"/><path d="M950.51,115.34l108-83.26h111.94a212.88,212.88,0,0,1,59.12,8.28l-119.21,61.71V52.57Z" style="fill:#e8dfd8"/><polygon points="1231.28 193.65 1231.28 107.53 1253.56 102.31 1253.56 191.82 1231.28 193.65" style="fill:#0096d6"/><path d="M1350.55,183.86l-92.82,7.62V159.79l82.71-42.52a205,205,0,0,1,37.31,86.57h0L1350.55,214Z" style="fill:#e8dfd8"/><path d="M1378.43,271l-27.88-10.41V244.19h30.23A204.76,204.76,0,0,1,1378.43,271Z" style="fill:#0096d6"/><rect x="757.32" y="234.87" width="759.78" height="9.31" style="fill:#dcae7e"/><path d="M815.1,171.85q-1.36-1.15-2.79-2.22A85.62,85.62,0,0,0,789.12,157c-1.46-.52-2.94-1-4.43-1.45A85.47,85.47,0,0,0,763.15,152l-.83,0c-.69,0-1.39,0-2.08,0s-1.39,0-2.08,0l-.84,0v-4.16q.42,0,.84,0c.69,0,1.38,0,2.08,0s1.39,0,2.08,0c.28,0,.56,0,.83,0A89.68,89.68,0,0,1,788,152.22c1.47.48,2.92,1,4.35,1.55a89.7,89.7,0,0,1,24.45,14.09l1,.79Z" style="fill:#dcae7e"/><path d="M760.24,331.26c-.7,0-1.39,0-2.08,0l-.84,0V327l.84,0,2.08,0,2.08,0,.83,0a85.46,85.46,0,0,0,21.54-3.52c1.49-.45,3-.93,4.43-1.46a85.58,85.58,0,0,0,23.19-12.62q1.43-1.08,2.79-2.22l2.67,3.2c-.32.26-.64.53-1,.78a89.88,89.88,0,0,1-24.45,14.1c-1.44.55-2.89,1.07-4.35,1.54a89.69,89.69,0,0,1-24.86,4.37l-.83,0C761.63,331.25,760.93,331.26,760.24,331.26Z" style="fill:#dcae7e"/><path d="M865.12,151.8q-.9-1.11-1.83-2.19a134.56,134.56,0,0,0-100.14-47.82h-.83l-2.08,0-2.08,0h-.84V97.63l.84,0h4.16l.83,0A138.74,138.74,0,0,1,867.38,148c.33.39.65.78,1,1.18Z" style="fill:#dcae7e"/><path d="M760.24,381.47l-2.08,0-.84,0v-4.16h.84c.69,0,1.38,0,2.08,0h2.08l.83,0a134.59,134.59,0,0,0,100.14-47.81c.62-.73,1.23-1.46,1.83-2.2l3.23,2.63c-.32.39-.65.78-1,1.18a138.73,138.73,0,0,1-104.23,50.36l-.83,0Z" style="fill:#dcae7e"/><path d="M888.61,142.47c-.53-.73-1.07-1.45-1.62-2.17A161,161,0,0,0,833.29,95a159.13,159.13,0,0,0-70.14-17.75l-.83,0h-4.16l-.84,0V73.12h.84l2.08,0,2.08,0h.83a163.29,163.29,0,0,1,72.06,18.23q4.45,2.31,8.77,4.9c1.22.73,2.44,1.49,3.64,2.25A165.22,165.22,0,0,1,891,138.72c.33.42.64.85,1,1.28Z" style="fill:#dcae7e"/><path d="M760.24,406h-2.08l-.84,0v-4.16h.84l2.08,0,2.08,0h.83A159.14,159.14,0,0,0,833.29,384,160.81,160.81,0,0,0,887,338.77c.55-.72,1.09-1.45,1.62-2.18l3.36,2.47c-.32.43-.63.86-1,1.29a165.35,165.35,0,0,1-43.39,40.21c-1.2.77-2.41,1.52-3.64,2.25q-4.31,2.6-8.77,4.91A163.56,163.56,0,0,1,763.15,406h-2.91Z" style="fill:#dcae7e"/><path d="M850.94,158.2c-.82-.94-1.64-1.86-2.49-2.77a120.61,120.61,0,0,0-32.74-25c-1.3-.68-2.61-1.33-3.94-2a119.89,119.89,0,0,0-48.62-11.6l-.83,0c-.69,0-1.39,0-2.08,0s-1.39,0-2.08,0h-.84v-8.33h.84c.69,0,1.38,0,2.08,0s1.39,0,2.08,0h.83a128.61,128.61,0,0,1,93.59,43.66c.17.18.32.36.48.54Z" style="fill:#dcae7e"/><path d="M760.24,370.57c-.7,0-1.39,0-2.08,0h-.84v-8.33l.84,0h2.08c.69,0,1.39,0,2.08,0h.83a120.11,120.11,0,0,0,48.63-11.61c1.32-.62,2.63-1.28,3.93-2a120.61,120.61,0,0,0,32.74-25c.85-.9,1.67-1.83,2.49-2.76l6.28,5.47c-.16.19-.31.37-.48.55a128.6,128.6,0,0,1-93.59,43.65h-.83C761.63,370.57,760.93,370.57,760.24,370.57Z" style="fill:#dcae7e"/><path d="M762.32,307.9l.83,0c1.83-.07,3.64-.23,5.43-.45s3.39-.49,5.06-.83a66.39,66.39,0,0,0,16.63-5.8h0c1.6-.82,3.17-1.69,4.7-2.63a67.28,67.28,0,0,0,20.62-19.76q1.23-1.83,2.33-3.74a66.16,66.16,0,0,0,8.1-22.47c.22-1.37.4-2.75.55-4.14s.22-2.56.27-3.85c0-1,.07-1.95.07-2.93,0-.58,0-1.15,0-1.73s0-1.15,0-1.73c0-1,0-2-.07-2.93-.05-1.29-.15-2.57-.27-3.85s-.33-2.77-.55-4.13a66.21,66.21,0,0,0-8.1-22.48c-.73-1.27-1.51-2.52-2.33-3.73A67,67,0,0,0,795,180.92q-2.29-1.41-4.7-2.63h0a66.25,66.25,0,0,0-16.63-5.8c-1.67-.34-3.35-.62-5.06-.84s-3.6-.37-5.43-.45c-.27,0-.55,0-.83,0-.69,0-1.39,0-2.08,0s-1.39,0-2.08,0l-.84,0v4.17q.42,0,.84,0c.69,0,1.38,0,2.08,0s1.39,0,2.08,0c.28,0,.56,0,.83,0a62.58,62.58,0,0,1,59.52,59.5c.05,1,.07,1.95.07,2.93,0,.56,0,1.12,0,1.68v.11c0,.55,0,1.11,0,1.67,0,1,0,2-.07,2.93a62.58,62.58,0,0,1-59.52,59.5l-.83,0c-.69,0-1.39,0-2.08,0s-1.39,0-2.08,0l-.84,0v4.17l.84,0c.69,0,1.38,0,2.08,0S761.63,307.92,762.32,307.9Z" style="fill:#dcae7e"/><path d="M762.32,288.74l.83,0a47.39,47.39,0,0,0,44.33-44.51c0-.9.08-1.81.08-2.72,0-.43,0-.85,0-1.27l0-.67,0-.66c0-.43,0-.85,0-1.28,0-.91,0-1.82-.08-2.72a47.39,47.39,0,0,0-44.33-44.5l-.83,0c-.69,0-1.39-.05-2.08-.05s-1.39,0-2.08.05l-.84,0v4.18c.28,0,.56,0,.84-.05.68,0,1.38-.05,2.08-.05s1.39,0,2.08.05c.28,0,.56,0,.83.05a43.19,43.19,0,0,1,40.15,40.32c.06.9.09,1.81.09,2.72,0,.39,0,.78,0,1.17l0,.77,0,.78c0,.38,0,.77,0,1.16,0,.91,0,1.82-.09,2.72a43.19,43.19,0,0,1-40.15,40.33l-.83.05c-.69,0-1.38.05-2.08.05s-1.4,0-2.08-.05l-.84-.05v4.18l.84,0c.69,0,1.38.05,2.08.05S761.63,288.77,762.32,288.74Z" style="fill:#dcae7e"/><polygon points="1350.55 239.53 1346.38 239.53 1346.38 188.38 1337.67 189.1 1329.34 189.78 1255.82 195.81 1108.4 207.9 976.35 218.73 968.05 219.41 920.89 223.28 826.57 231.02 824.41 231.2 824.07 227.05 826.02 226.89 920.55 219.13 967.55 215.28 975.86 214.6 1106.15 203.91 1108.06 203.75 1110.32 203.57 1222.95 194.33 1231.28 193.65 1253.56 191.82 1255.47 191.66 1257.73 191.48 1350.55 183.86 1350.55 239.53" style="fill:#dcae7e"/><polygon points="1350.55 295.2 1257.73 287.59 1253.56 287.25 1231.28 285.42 1222.95 284.74 1110.32 275.5 1106.15 275.16 975.86 264.47 967.55 263.79 826.02 252.18 824.07 252.02 824.41 247.87 826.57 248.04 968.05 259.65 976.35 260.33 1108.4 271.16 1255.82 283.25 1329.34 289.28 1337.67 289.96 1346.38 290.68 1346.38 239.53 1350.55 239.53 1350.55 295.2" style="fill:#dcae7e"/><polygon points="815.15 205.06 814.2 201 815.59 200.68 910.91 178.34 955.58 167.87 963.77 165.95 1067.83 141.56 1076.16 139.61 1106.15 132.58 1107.76 132.2 1110.32 131.6 1257.73 97.05 1257.73 193.74 1253.56 193.74 1253.56 102.31 1231.28 107.53 1222.95 109.48 1110.32 135.88 1108.71 136.26 1106.15 136.86 965.21 169.89 957.05 171.81 911.86 182.39 817.92 204.41 815.15 205.06" style="fill:#dcae7e"/><polygon points="1257.73 382.01 1110.32 347.46 1106.15 346.49 1076.16 339.46 1067.83 337.51 963.77 313.12 955.58 311.2 815.59 278.39 814.2 278.06 815.15 274 817.92 274.65 911.86 296.67 957.05 307.26 965.21 309.17 1106.15 342.21 1108.71 342.81 1110.32 343.18 1222.95 369.58 1231.28 371.53 1253.56 376.76 1253.56 285.33 1257.73 285.33 1257.73 382.01" style="fill:#dcae7e"/><polygon points="1110.32 205.83 1106.15 205.83 1106.15 58.69 1076.16 70.47 1067.83 73.74 942.01 123.16 938.69 124.46 938.69 124.47 934.08 126.27 933.92 126.33 891.05 143.17 794.97 180.91 790.94 182.5 789.41 178.62 790.26 178.29 790.27 178.29 812.32 169.63 816.81 167.86 848.45 155.43 856.74 152.18 863.29 149.6 867.38 148 886.99 140.3 889.53 139.3 891.01 138.72 931.66 122.75 936.05 121.02 939.63 119.62 950.51 115.35 950.51 115.34 1110.32 52.57 1110.32 205.83" style="fill:#dcae7e"/><polygon points="1110.32 426.49 950.51 363.72 950.51 363.72 939.63 359.45 936.05 358.04 931.66 356.31 891.01 340.35 886.99 338.77 867.38 331.07 863.29 329.46 856.74 326.89 848.45 323.63 816.81 311.2 812.32 309.44 790.27 300.78 790.26 300.78 789.41 300.44 790.94 296.57 794.97 298.15 891.05 335.89 933.92 352.73 934.08 352.79 938.69 354.6 938.69 354.6 942.01 355.91 1067.83 405.32 1076.16 408.6 1106.15 420.38 1106.15 273.24 1110.32 273.24 1110.32 426.49" style="fill:#dcae7e"/><polygon points="845.77 100.35 842.83 97.4 913.99 26.24 936.07 4.17 940.24 0 946.13 0 914.05 32.08 883.08 63.05 877.08 69.04 847.62 98.5 845.77 100.35" style="fill:#dcae7e"/><polygon points="932.87 128.95 933.92 126.33 933.99 126.15 936.05 121.02 937.72 116.88 971.76 32.08 974.11 26.24 982.97 4.17 984.64 0 989.13 0 987.47 4.17 978.6 26.24 976.25 32.08 942.43 116.32 1051.65 32.08 1059.21 26.24 1087.84 4.17 1093.24 0 1100.06 0 1094.65 4.17 1066.03 26.24 1058.47 32.08 950.51 115.34 950.51 115.35 941.46 122.33 938.69 124.46 938.69 124.47 934.84 127.43 932.87 128.95" style="fill:#dcae7e"/><polygon points="1051.65 446.99 942.43 362.75 976.25 446.99 978.6 452.82 987.47 474.9 989.13 479.06 984.64 479.06 982.97 474.9 974.11 452.82 971.76 446.99 937.72 362.19 936.05 358.04 933.99 352.92 933.92 352.73 932.87 350.11 934.84 351.64 938.69 354.6 938.69 354.6 941.46 356.74 950.51 363.72 950.51 363.72 1058.47 446.99 1066.03 452.82 1094.65 474.9 1100.06 479.06 1093.24 479.06 1087.84 474.9 1059.21 452.82 1051.65 446.99" style="fill:#dcae7e"/><polygon points="946.13 479.06 940.24 479.06 842.83 381.66 845.77 378.71 847.62 380.56 877.08 410.02 883.08 416.01 914.05 446.99 946.13 479.06" style="fill:#dcae7e"/><polygon points="771.44 174.69 768.49 171.74 815.4 124.83 818.35 127.78 815.71 130.42 792.37 153.77 789.12 157 773.64 172.49 771.44 174.69" style="fill:#dcae7e"/><polygon points="815.4 354.23 811.78 350.6 788.01 326.84 768.49 307.32 771.44 304.38 773.63 306.58 789.12 322.06 792.36 325.3 815.71 348.64 818.35 351.28 815.4 354.23" style="fill:#dcae7e"/><polygon points="1349.19 218.94 1347.74 215.03 1350.55 213.98 1377.75 203.84 1377.75 203.84 1383.3 201.76 1408.42 192.4 1410.06 191.78 1411.51 195.69 1409.2 196.55 1384.01 205.95 1378.43 208.03 1350.55 218.43 1349.19 218.94" style="fill:#dcae7e"/><polygon points="1410.06 287.28 1408.42 286.67 1383.3 277.3 1377.75 275.23 1377.75 275.22 1350.55 265.08 1347.74 264.03 1349.19 260.13 1350.55 260.63 1378.43 271.04 1384.01 273.12 1409.2 282.51 1411.51 283.38 1410.06 287.28" style="fill:#dcae7e"/><polygon points="1256.6 160.37 1254.69 156.67 1257.73 155.1 1337.89 113.89 1343.16 111.18 1366.98 98.93 1369.14 97.83 1371.05 101.53 1369.47 102.34 1345.7 114.56 1340.44 117.27 1257.73 159.79 1256.6 160.37" style="fill:#dcae7e"/><polygon points="1369.14 381.24 1366.98 380.13 1343.16 367.88 1337.89 365.17 1257.73 323.96 1254.69 322.4 1256.6 318.69 1257.73 319.27 1340.44 361.8 1345.7 364.5 1369.47 376.72 1371.05 377.53 1369.14 381.24" style="fill:#dcae7e"/><polygon points="1109.19 107.35 1107.28 103.65 1110.32 102.07 1229.53 40.36 1236.95 36.52 1266.61 21.17 1270.58 19.11 1272.49 22.81 1271.62 23.27 1242.46 38.36 1242.46 38.36 1235.24 42.09 1235.24 42.09 1110.32 106.77 1109.19 107.35" style="fill:#dcae7e"/><polygon points="1270.58 459.95 1266.61 457.9 1236.95 442.55 1229.53 438.7 1110.32 376.99 1107.28 375.42 1109.19 371.72 1110.32 372.3 1235.24 436.97 1235.24 436.97 1242.46 440.71 1242.46 440.71 1271.62 455.8 1272.49 456.25 1270.58 459.95" style="fill:#dcae7e"/><rect x="1329.34" y="187.35" width="8.33" height="50.24" style="fill:#dcae7e"/><rect x="1329.34" y="241.47" width="8.33" height="50.24" style="fill:#dcae7e"/><rect x="1222.95" y="106.36" width="8.33" height="89.71" style="fill:#dcae7e"/><rect x="1222.95" y="282.99" width="8.33" height="89.71" style="fill:#dcae7e"/><rect x="1067.83" y="69.86" width="8.33" height="72.86" style="fill:#dcae7e"/><rect x="1067.83" y="336.34" width="8.33" height="72.86" style="fill:#dcae7e"/><path d="M760,454.07v-8.33l2.34,0h.83a208.81,208.81,0,0,0,110.39-33.34c1.19-.77,2.37-1.55,3.54-2.35a211.24,211.24,0,0,0,54.58-53.7c.8-1.13,1.57-2.26,2.33-3.4l.09-.13c.26-.38.51-.77.76-1.15A208.19,208.19,0,0,0,952,319.91q1.88-4.32,3.55-8.71c.51-1.31,1-2.62,1.47-3.94a206.65,206.65,0,0,0,10.5-43.47c.19-1.38.35-2.76.5-4.14q.84-7.68,1.12-15.46c.06-1.55.1-3.1.12-4.66s-.06-3.11-.12-4.66q-.27-7.78-1.12-15.46c-.15-1.38-.32-2.76-.5-4.14a207,207,0,0,0-10.5-43.47q-.7-2-1.47-3.93-1.67-4.4-3.55-8.72a208.08,208.08,0,0,0-17.19-31.72l-.76-1.16-.09-.12c-.76-1.14-1.53-2.28-2.33-3.4A211.07,211.07,0,0,0,877.08,69c-1.17-.79-2.35-1.58-3.55-2.34A208.54,208.54,0,0,0,763.15,33.35H760V25l2.34,0q10.68.1,21.19,1.23a217.09,217.09,0,0,1,96,34.44c1.19.77,2.36,1.56,3.53,2.37a219.75,219.75,0,0,1,54.64,53.82c.65.91,1.28,1.83,1.91,2.75s1.23,1.8,1.83,2.71c.19.27.37.55.55.83a218,218,0,0,1,17.66,32.66q2.18,5,4.1,10.13c.5,1.31,1,2.62,1.44,3.94a214.88,214.88,0,0,1,10.65,44.71c.18,1.37.34,2.75.49,4.13q.89,8,1.16,16.14c.06,1.53.09,3.07.12,4.6v.12c0,1.54-.06,3.07-.12,4.6-.19,5.41-.57,10.8-1.16,16.14-.15,1.38-.31,2.76-.49,4.14a214.94,214.94,0,0,1-10.65,44.7c-.46,1.32-.94,2.63-1.44,3.95q-1.92,5.1-4.1,10.12A218.64,218.64,0,0,1,942,355.91c-.18.28-.36.56-.55.83-.6.91-1.21,1.81-1.83,2.71s-1.26,1.83-1.91,2.74A219.56,219.56,0,0,1,883.08,416c-1.17.8-2.34,1.59-3.53,2.36a216.37,216.37,0,0,1-96,34.44q-10.5,1.13-21.19,1.24Z" style="fill:#dcae7e"/><rect x="760.24" y="2.08" width="756.87" height="474.9" style="fill:none"/></g></g></svg>