<svg xmlns="http://www.w3.org/2000/svg" viewBox="0 0 1493.39 471.58"><title>Asset 4</title><g id="Layer_2" data-name="Layer 2"><g id="Layer_3" data-name="Layer 3"><path d="M1394.87,231.2A234.23,234.23,0,0,0,1160.45,0H332.93A234.23,234.23,0,0,0,98.52,231.2H0v9.17H98.52A234.26,234.26,0,0,0,332.93,471.58h827.52a234.24,234.24,0,0,0,234.42-231.21h98.52V231.2Zm-29.93,0a207.17,207.17,0,0,0-2.56-28.47l24.79-9.25a231.83,231.83,0,0,1,3.6,37.72Zm-8,35.6-27.45-10.24V240.37h29.76A203.54,203.54,0,0,1,1356.89,266.8Zm-141,163.34h0l-123-63.66V342l145.11,34V318.9L1317,359.46a208.06,208.06,0,0,1-84.24,64.5Q1224.46,427.42,1215.94,430.14ZM260.64,424a208.1,208.1,0,0,1-84.23-64.5l78.91-40.56V376l145.11-34v24.45l-123,63.66h0Q268.94,427.42,260.64,424ZM134.19,240.37H164v16.19L136.5,266.8A201.8,201.8,0,0,1,134.19,240.37Zm2.31-35.6L164,215V231.2H134.19A202,202,0,0,1,136.5,204.77Zm141-163.33h0l123,63.66v24.44l-145.11-34v57.15l-78.91-40.57a208,208,0,0,1,84.23-64.49Q268.94,44.16,277.45,41.44Zm955.29,6.18A208,208,0,0,1,1317,112.11l-78.91,40.57V95.53l-145.11,34V105.1l123-63.66h0Q1224.44,44.16,1232.74,47.62Zm123.47,153-26.77,10V181l-91.37,7.5v-31.2l81.42-41.86a202.75,202.75,0,0,1,23.5,40.89,199.41,199.41,0,0,1,13.22,44.33Zm-47.65,30.55H962.23c-.19-5.33-.56-10.63-1.14-15.89l130-10.66,145.1-11.9,72.38-5.93Zm-219.7,105.66L950.12,304.34a211.5,211.5,0,0,0,10.49-44l128.25,10.53Zm-168.63,9.28-1.94-1.5,1,2.57-42.2-16.57-94.58-37.15A66,66,0,0,0,802.84,274l137.81,32.31c-1.1,2.87-2.27,5.74-3.51,8.57A204.28,204.28,0,0,1,920.23,346.14ZM820.27,378a156.86,156.86,0,0,1-69,17.48v-20a136.59,136.59,0,0,0,102.6-49.58l19.3,7.58A158.31,158.31,0,0,1,820.27,378ZM742.16,395.5a156.85,156.85,0,0,1-69-17.48,158.43,158.43,0,0,1-52.85-44.55l19.3-7.58a136.57,136.57,0,0,0,102.59,49.58Zm-169-49.36a205.21,205.21,0,0,1-16.92-31.23q-1.85-4.26-3.5-8.58l44-10.3,93.84-22a65.92,65.92,0,0,0,20.3,19.46l-94.58,37.15-42.2,16.57,1-2.57Zm-168.63-9.28v-66l128.25-10.52a211.5,211.5,0,0,0,10.49,44Zm134.84-96.49h140.1c.06,1.28.15,2.54.27,3.8l-92.84,7.61-46.43,3.81Q539.65,248,539.37,240.37ZM404.53,134.72l138.74,32.52a211.56,211.56,0,0,0-10.49,44L404.53,200.72Zm168.63-9.29,1.94,1.51-1-2.58,42.2,16.58,94.58,37.15a66,66,0,0,0-20.3,19.45l-137.81-32.3q1.65-4.32,3.5-8.58A205.68,205.68,0,0,1,573.16,125.43Zm100-31.87a156.58,156.58,0,0,1,69-17.48v20a136.57,136.57,0,0,0-102.59,49.58l-19.3-7.58A158.29,158.29,0,0,1,673.12,93.56Zm78.1-17.48a156.58,156.58,0,0,1,69,17.48,158.2,158.2,0,0,1,52.85,44.55l-19.3,7.58A136.56,136.56,0,0,0,751.22,96.1Zm169,49.35a204.75,204.75,0,0,1,16.91,31.23q1.86,4.26,3.51,8.58l-44,10.31-93.83,22a66.11,66.11,0,0,0-20.3-19.45l94.58-37.15,42.2-16.58-1,2.58Zm168.63,9.29v66L960.61,211.24a211.56,211.56,0,0,0-10.49-44ZM952.43,211.91l-46.27,3.8-93.06,7.63a65.22,65.22,0,0,0-8-22.13l92.47-21.67,44.48-10.42A203.45,203.45,0,0,1,952.43,211.91ZM751.22,299V284.18a46.65,46.65,0,0,0,43.64-43.81h14.95A61.61,61.61,0,0,1,751.22,299Zm-67.64-58.58h14.95a46.65,46.65,0,0,0,43.63,43.81V299A61.6,61.6,0,0,1,683.58,240.37Zm58.58-67.74v14.76a46.65,46.65,0,0,0-43.63,43.81H683.58A61.59,61.59,0,0,1,742.16,172.63Zm35.75,2.87a65,65,0,0,0-16.36-5.71l15.24-15.24A84.46,84.46,0,0,1,799.62,167l-21.7,8.53ZM756.56,302.6h0l15.86,15.86h0a84.2,84.2,0,0,1-21.2,3.47V303.05Q753.92,302.95,756.56,302.6Zm-19.74,0q2.64.34,5.34.45v18.88A84.12,84.12,0,0,1,721,318.46h0l15.85-15.86Zm0-133.63h0L721,153.11h0a84.11,84.11,0,0,1,21.19-3.46v18.87Q739.46,168.64,736.82,169Zm38.87-19.13a88.73,88.73,0,0,0-24.47-4.3V115a118.09,118.09,0,0,1,47.86,11.42h0l-23.39,23.39Zm-33.53-4.3a88.86,88.86,0,0,0-24.47,4.3L694.3,126.45A118.09,118.09,0,0,1,742.16,115Zm0,85.66H702.64a42.54,42.54,0,0,1,39.52-39.7Zm0,9.17v39.7a42.54,42.54,0,0,1-39.52-39.7Zm-24.47,81.36a88.12,88.12,0,0,0,24.47,4.3v30.51a118,118,0,0,1-47.86-11.42h0l23.39-23.39Zm33.53,4.3a88,88,0,0,0,24.47-4.3l23.4,23.39a118,118,0,0,1-47.87,11.42Zm0-85.66h39.53a42.53,42.53,0,0,1-39.53,39.7Zm0-9.17V191.5a42.54,42.54,0,0,1,39.53,39.7Zm0-81.55a84.18,84.18,0,0,1,21.2,3.46h0L756.56,169h0q-2.64-.33-5.34-.45ZM804,165.24A88.53,88.53,0,0,0,780,151.36l23-23A118.69,118.69,0,0,1,835.19,153Zm39.31-15.44a126.6,126.6,0,0,0-92.13-43V100.2a132.47,132.47,0,0,1,98.57,47.07Zm-101.19-43a126.6,126.6,0,0,0-92.12,43l-6.44-2.53a132.45,132.45,0,0,1,98.56-47.07Zm-51.73,21.55,23,23a88.53,88.53,0,0,0-24.06,13.88L658.2,153A118.69,118.69,0,0,1,690.43,128.38Zm26.17,26.17,15.25,15.24a65,65,0,0,0-16.37,5.71h0L693.77,167A84.46,84.46,0,0,1,716.6,154.55Zm-1.12,141.53a65.42,65.42,0,0,0,16.36,5.7L716.6,317a84.77,84.77,0,0,1-22.83-12.43l21.7-8.52Zm-26.13,10.26a88.5,88.5,0,0,0,24.06,13.87l-23,23a118.69,118.69,0,0,1-32.23-24.62ZM650,321.78a126.6,126.6,0,0,0,92.12,43v6.62a132.41,132.41,0,0,1-98.56-47.06Zm101.18,43a126.6,126.6,0,0,0,92.13-43l6.44,2.53a132.43,132.43,0,0,1-98.57,47.06ZM803,343.19l-23-23A88.15,88.15,0,0,0,804,306.34l31.15,12.23A118.69,118.69,0,0,1,803,343.19ZM776.79,317l-15.25-15.25a65.36,65.36,0,0,0,16.37-5.7h0l21.7,8.52A84.77,84.77,0,0,1,776.79,317Zm18.07-85.83a46.64,46.64,0,0,0-43.64-43.8V172.63a61.6,61.6,0,0,1,58.59,58.57ZM595.78,179.54l92.47,21.68a65.11,65.11,0,0,0-8,22.12L541,211.91a203.45,203.45,0,0,1,10.34-42.79ZM540.47,216l139.27,11.42c-.12,1.25-.21,2.52-.27,3.79H539.37C539.55,226.1,539.92,221,540.47,216Zm.49,43.68,46.27-3.8,93-7.64a65.16,65.16,0,0,0,8,22.13L595.78,292,551.3,302.46A203.6,203.6,0,0,1,541,259.67ZM897.61,292l-92.47-21.67a65.14,65.14,0,0,0,8-22.13l139.33,11.43a203.54,203.54,0,0,1-10.34,42.8Zm55.31-36.44L813.64,244.17c.13-1.26.22-2.52.28-3.8H954Q953.75,248,952.92,255.59Zm-139-24.39c-.06-1.27-.15-2.54-.28-3.79l92.85-7.62L952.92,216q.83,7.56,1.1,15.22ZM1234,188.82l-21.94,1.8V105.85l21.94-5.14Zm-30.14,2.47L1093,200.39V133.76l110.87-26Zm-115-60.79-29.52,6.93V69.37l29.52-11.6Zm-37.73,8.85-102.42,24q-1.89-5-4.05-10a213.12,213.12,0,0,0-17.38-32.15l123.85-48.65Zm-174.05-2.8A162.67,162.67,0,0,0,834.37,97l29-29a208.1,208.1,0,0,1,53.73,52.87Zm-46.29-41.8h0q-4.24-2.55-8.63-4.83a160.91,160.91,0,0,0-70.94-18V32.83A205.43,205.43,0,0,1,859.88,65.66h0ZM742.16,72a160.84,160.84,0,0,0-70.93,18q-4.4,2.28-8.63,4.83h0L633.5,65.66h0A205.43,205.43,0,0,1,742.16,32.83ZM659,97a162.79,162.79,0,0,0-42.7,39.59l-40-15.72A207.85,207.85,0,0,1,630,68Zm-92.9,24.27a213.68,213.68,0,0,0-17.39,32.16q-2.15,5-4,10l-102.43-24V72.59Zm-132.06,16.2-29.52-6.93V57.77l29.52,11.6Zm-33.62,62.95-110.87-9.09V107.77l110.87,26Zm-119.07-9.76-21.94-1.8V100.71l21.94,5.14Zm-24.16,2.13,145.11,11.9,130,10.66q-.87,7.89-1.14,15.89H184.83V186.82ZM176.63,231.2h-8.58V185.44l8.58.71Zm-8.58,9.17h8.58v45.06l-8.58.71Zm16.78,0H531.16q.27,8,1.14,15.89l-130,10.66L257.2,278.82l-72.37,5.94Zm74.59,42.38L281.36,281v84.77l-21.94,5.14Zm30.14-2.47,110.87-9.09v66.63l-110.87,26Zm115,60.79,29.52-6.92v68.06l-29.52,11.6Zm37.72-8.84,102.43-24q1.89,5,4,10a214.06,214.06,0,0,0,17.39,32.15L442.25,399ZM616.31,335A162.75,162.75,0,0,0,659,374.61l-29,29a207.6,207.6,0,0,1-53.72-52.86Zm46.29,41.8h0q4.24,2.55,8.63,4.83a161,161,0,0,0,70.93,17.94v39.15a205.32,205.32,0,0,1-108.65-32.83h0Zm88.62,22.77a161,161,0,0,0,70.94-17.94q4.4-2.28,8.63-4.83h0l29.09,29.09h0a205.43,205.43,0,0,1-108.66,32.83Zm83.15-25A162.64,162.64,0,0,0,877.08,335l40,15.72a207.85,207.85,0,0,1-53.73,52.86Zm92.91-24.27a213.12,213.12,0,0,0,17.38-32.15q2.16-4.95,4-10l102.43,24V399Zm132.06-16.19,29.52,6.92v72.74l-29.52-11.6Zm33.62-63,110.87,9.09v83.53l-110.87-26ZM1212,281l21.94,1.8v88.11L1212,365.73Zm24.15-2.14-145.1-11.9-130-10.66c.58-5.26.95-10.56,1.14-15.89h346.33v44.39Zm80.58-38.45h8.58v45.77l-8.58-.71Zm0-9.17v-45l8.58-.71V231.2ZM1093,100.48V51.75l-157.3,61.79,106.26-82h110.19a209.43,209.43,0,0,1,58.2,8.16Zm-165.26,14L961,31.57h74.22Zm-4.64.55a216.17,216.17,0,0,0-53.79-53l30.49-30.49h56.81ZM865.81,59.73h0a214,214,0,0,0-63.22-28.16H894ZM662.53,41.14a213.27,213.27,0,0,0-34.95,18.59h0L599.42,31.57h91.37A212.62,212.62,0,0,0,662.53,41.14ZM624.11,62.06a216.54,216.54,0,0,0-53.78,53L536.81,31.57h56.82ZM565.69,114.5,458.18,31.57h74.21Zm-8-1L400.43,51.75v48.73L283.08,39.73a209.32,209.32,0,0,1,58.2-8.16H451.46ZM255.32,157.29v31.19L164,181v29.65l-26.77-10h0a199.41,199.41,0,0,1,13.22-44.33,201.81,201.81,0,0,1,23.5-40.89ZM137.18,270.92l26.77-10v29.65l91.37-7.5v31.19L173.9,356.14a201.54,201.54,0,0,1-23.5-40.89,199.48,199.48,0,0,1-13.22-44.32ZM400.43,371.1v48.72L557.73,358,451.46,440H341.28a209,209,0,0,1-58.2-8.16Zm165.26-14L532.39,440H458.18Zm4.64-.55a216.08,216.08,0,0,0,53.78,53L593.63,440H536.81Zm57.25,55.32h0A214.37,214.37,0,0,0,690.79,440H599.43Zm203.28,18.58a213.32,213.32,0,0,0,34.95-18.59h0L894,440H802.59A211.8,211.8,0,0,0,830.86,430.43Zm38.41-20.92a215.9,215.9,0,0,0,53.79-53L956.57,440H899.76Zm58.43-52.43L1035.21,440H961Zm8,1L1093,419.82V371.1l117.35,60.74a209.06,209.06,0,0,1-58.2,8.16H1041.92Zm302.41-43.76V283.09l91.37,7.5V260.94l26.77,10h0A199.48,199.48,0,0,1,1343,315.25a202.48,202.48,0,0,1-23.5,40.89Zm91.37-83.08V215l27.45-10.25a203.69,203.69,0,0,1,2.31,26.43Zm57-41.81-24.72,9.22a205.72,205.72,0,0,0-13.42-44.55,208.21,208.21,0,0,0-23.6-41.29l23.4-12a229.77,229.77,0,0,1,38.34,88.65Zm-40.79-92-23.45,12A213.71,213.71,0,0,0,1235,42.32q-5.9-2.46-11.91-4.56l28.7-14.86a229.54,229.54,0,0,1,71.59,48.66A233.49,233.49,0,0,1,1345.61,97.39ZM1160.45,4.1a228.85,228.85,0,0,1,86.36,16.74L1217.62,36a214.76,214.76,0,0,0-65.51-10.12H1049.37L1077.54,4.1Zm-89.62,0-28.18,21.73H963.3L972,4.1ZM967.6,4.1l-8.72,21.73H905.5L927.24,4.1Zm-217.2,0h171L899.7,25.83H771.26q-10.34-1.09-20.86-1.21ZM572,4.1H743V24.62q-10.5.11-20.85,1.21H593.68L572,4.1Zm-5.8,0,21.73,21.73H534.51L525.78,4.1Zm-44.79,0,8.73,21.73H450.73L422.56,4.1Zm-188.43,0h82.92L444,25.83H341.28A214.71,214.71,0,0,0,275.77,36L246.58,20.84A228.84,228.84,0,0,1,332.93,4.1ZM170.06,71.56A229.54,229.54,0,0,1,241.65,22.9l28.7,14.86q-6,2.1-11.92,4.56a213.49,213.49,0,0,0-87.2,67.12l-23.46-12A232.52,232.52,0,0,1,170.06,71.56ZM120.7,144.78a229.24,229.24,0,0,1,24.63-44l23.39,12a208.7,208.7,0,0,0-23.6,41.29,205.7,205.7,0,0,0-13.41,44.55L107,189.39A228.07,228.07,0,0,1,120.7,144.78Zm-14.49,48.7,24.8,9.25a207.17,207.17,0,0,0-2.56,28.47H102.62A230.72,230.72,0,0,1,106.21,193.48Zm22.24,46.89A207.31,207.31,0,0,0,131,268.85l-24.8,9.25a230.84,230.84,0,0,1-3.59-37.73ZM107,282.19,131.71,273a206,206,0,0,0,13.41,44.56,208.34,208.34,0,0,0,23.6,41.28l-23.39,12A229.64,229.64,0,0,1,107,282.19Zm40.78,92,23.46-12.06a213.32,213.32,0,0,0,87.2,67.13q5.91,2.46,11.92,4.56l-28.7,14.85a231.62,231.62,0,0,1-93.88-74.48Zm185.16,93.28a228.83,228.83,0,0,1-86.35-16.73l29.19-15.11a214.7,214.7,0,0,0,65.51,10.11H444l-28.17,21.73Zm89.63,0,28.17-21.73h79.36l-8.73,21.73Zm103.22,0,8.73-21.73h53.37l-21.73,21.73Zm217.2,0H572l21.74-21.73H722.13Q732.46,446.85,743,447Zm7.42,0V447q10.51-.1,20.86-1.22H899.71l21.73,21.73Zm176.84,0L905.5,445.74h53.38l8.72,21.73Zm44.79,0-8.73-21.73h79.35l28.18,21.73Zm188.42,0h-82.91l-28.17-21.73h102.74a214.75,214.75,0,0,0,65.51-10.11l29.19,15.11A228.85,228.85,0,0,1,1160.45,467.47ZM1323.33,400a229.37,229.37,0,0,1-71.59,48.66L1223,433.82q6-2.1,11.91-4.56a213.54,213.54,0,0,0,87.21-67.13l23.45,12.06A232.48,232.48,0,0,1,1323.33,400Zm49.36-73.21a228.86,228.86,0,0,1-24.63,44l-23.4-12a208.13,208.13,0,0,0,23.6-41.28A206,206,0,0,0,1361.68,273l24.72,9.23A228.28,228.28,0,0,1,1372.69,326.8Zm14.48-48.7-24.79-9.25a207.31,207.31,0,0,0,2.56-28.48h25.83A232,232,0,0,1,1387.17,278.1Z" style="fill:#12162c"/></g></g></svg>